<?xml version="1.0" standalone="no"?>
<!DOCTYPE svg PUBLIC "-//W3C//DTD SVG 1.1//EN" "http://www.w3.org/Graphics/SVG/1.1/DTD/svg11.dtd" >
<svg xmlns="http://www.w3.org/2000/svg" xmlns:xlink="http://www.w3.org/1999/xlink" version="1.1">
<metadata>
Created by FontForge 20200511 at Tue Sep 28 12:42:04 2021
 By convertio
Copyright (c) 2021 by Misti's Fonts. All rights reserved.
</metadata>
<defs>
<font id="FairyCottage-Regular" horiz-adv-x="335" >
  <font-face 
    font-family="Fairy Cottage"
    font-weight="400"
    font-stretch="normal"
    units-per-em="1000"
    panose-1="0 0 0 0 0 0 0 0 0 0"
    ascent="800"
    descent="-200"
    x-height="411"
    cap-height="657"
    bbox="-33.6154 -276.267 676.571 961.071"
    underline-thickness="0"
    underline-position="0"
    unicode-range="U+0020-2212"
  />
<missing-glyph horiz-adv-x="494" 
d="M460 700v-700h-427v700h427zM246 371l186 309h-371zM54 650v-601l180 301zM62 21h370l-185 308zM440 47v605l-181 -302z" />
    <glyph glyph-name=".notdef" horiz-adv-x="494" 
d="M460 700v-700h-427v700h427zM246 371l186 309h-371zM54 650v-601l180 301zM62 21h370l-185 308zM440 47v605l-181 -302z" />
    <glyph glyph-name=".null" horiz-adv-x="0" 
 />
    <glyph glyph-name=".null" horiz-adv-x="0" 
 />
    <glyph glyph-name="space" unicode=" " horiz-adv-x="245" 
 />
    <glyph glyph-name="zero" unicode="0" horiz-adv-x="387" 
d="M209 657q25 -1 46 -10.5t37.5 -25t29 -35t20.5 -41.5q17 -45 18 -93.5t0 -102.5q-4 -62 -8.5 -120.5t-26.5 -110.5q-10 -26 -25 -48.5t-34.5 -39t-42.5 -25.5t-49 -7q-25 1 -45.5 11t-36.5 26t-28 36.5t-19 42.5q-16 46 -17 96t-1 104q2 63 6 120t26 108q10 24 25 46
t34 37.5t42 24t49 7.5zM262 123q10 42 12 96t3 114q0 61 -2 113t-12 92t-27.5 64.5t-42.5 23.5q-25 1 -42.5 -23.5t-26.5 -64.5q-10 -40 -12 -92t-2 -112q1 -60 3 -114t11 -97q10 -42 27 -68.5t42 -26.5t42.5 26.5t26.5 68.5z" />
    <glyph glyph-name="one" unicode="1" horiz-adv-x="326" 
d="M301 88q5 4 9 2.5t6 -6.5q4 -13 -8 -21q-132 -96 -264 -30q-5 2 -8 8t-1 12q1 6 5 8t9 0q40 -19 78 -23q5 137 5.5 273.5t-3.5 274.5q-14 -45 -32.5 -78t-43.5 -41q-18 -5 -28.5 2t-12.5 21q-3 14 4 31t25 27q7 3 14 2q5 -1 19 4q22 7 30.5 28t17.5 60q5 22 15 22
q5 1 12 -1.5t14 -6.5q9 -6 18 -10.5t15 -6.5q5 -1 9.5 0t7.5 6q6 4 9 3q4 -1 6 -6t1 -10q-17 -146 -17.5 -291t16.5 -291q37 12 73 38z" />
    <glyph glyph-name="two" unicode="2" horiz-adv-x="385" 
d="M355 89q11 6 15 -5q5 -13 -8 -21q-168 -113 -336 0q-5 4 -7.5 10t-0.5 11q1 6 8 6q38 15 63.5 42t44.5 58q20 31 33.5 62t24.5 60q21 60 33 105.5t14 80.5q1 27 -3 50t-13 40.5t-22.5 26.5t-30.5 8q-26 -3 -37.5 -24t-16.5 -43q-6 -22 -13.5 -39.5t-21.5 -22.5t-26.5 4.5
t-16.5 24.5t3 35t25 40q17 20 44 36.5t59 19.5q44 5 78 -13t54 -46t26 -61.5t0 -70.5q-5 -35 -19 -75t-35 -94q-11 -27 -24 -58t-30 -64t-40.5 -66t-55.5 -59q118 -32 232 42z" />
    <glyph glyph-name="three" unicode="3" horiz-adv-x="388" 
d="M324 277q29 -32 36 -72q6 -32 0 -65.5t-29 -65.5q-22 -31 -59.5 -54.5t-86.5 -21.5q-29 0 -56 12t-49.5 30t-38 40t-20.5 44q-3 11 -3.5 18.5t1.5 14.5q5 17 16.5 24.5t22.5 4.5q6 -2 11.5 -8t8.5 -18q6 -25 16 -48.5t23 -41.5t29.5 -29.5t35.5 -12.5q22 -2 40.5 11
t30.5 33q25 43 20 101q-10 133 -105 135q-5 0 -7.5 4.5t-2.5 9.5q0 6 2.5 11t7.5 6q39 0 60 42t26 117q5 57 -12 92.5t-52 35.5q-14 -1 -23.5 -7t-16 -15t-11 -20t-7.5 -21q-6 -22 -14 -39t-22 -21q-14 -3 -26 9t-15 29q-4 16 3.5 35t25.5 36q17 17 44.5 30t59.5 14
q43 2 76 -18.5t53 -48.5q20 -29 25.5 -60t0.5 -61q-5 -25 -13 -45t-20 -38q-25 -36 -63 -58q46 -16 77 -50z" />
    <glyph glyph-name="four" unicode="4" horiz-adv-x="345" 
d="M319 266q8 2 10 -11q2 -12 -8 -14q-11 -3 -22.5 -5.5t-23.5 -4.5q8 -92 27 -180q2 -9 -14.5 -21t-37.5 -17q-19 -5 -34.5 -1.5t-15.5 14.5q-2 50 -4 98.5t-3 98.5q-90 -3 -177 18q-10 2 -8 15q5 35 9.5 67.5t11.5 65.5q8 33 18.5 66t26.5 64q16 30 37.5 55.5t48.5 41.5
t58 20t63 -7q12 -5 9 -19q-2 -14 -14 -10q-38 13 -75 -12t-60 -76q-25 -51 -36 -116t-14 -140q51 -5 102 -3q-1 57 -0.5 112.5t1.5 111.5q1 19 10 19q5 -1 10 -4t11 -8q8 -6 15 -10t12 -5q9 -2 14 6q4 6 8 4q3 -1 4.5 -5.5t0.5 -8.5q-10 -103 -6 -206q12 2 23.5 3.5
t22.5 3.5z" />
    <glyph glyph-name="five" unicode="5" horiz-adv-x="418" 
d="M396 590q5 -3 7 -8.5t0 -10.5q-5 -12 -16 -6q-94 52 -189 52q-8 -66 -14.5 -131t-12.5 -130q42 1 74 -14t55 -36q47 -43 59 -104q5 -32 -0.5 -65.5t-28.5 -64.5t-60.5 -53t-86.5 -20q-29 1 -56 12.5t-49 29.5t-37.5 40t-20.5 44q-5 17 -2 32q5 17 16.5 25t22.5 5
q7 -2 12 -8t8 -18q6 -25 16 -48.5t23 -41.5t29 -29.5t36 -12.5q21 -2 39.5 10.5t30.5 32.5q13 20 18 46t3 55q-6 72 -44 113t-91 41q-15 0 -30 3.5t-17 13.5q7 64 8 131t-1 137q0 12 2 17t8 7q144 38 289 -46z" />
    <glyph glyph-name="six" unicode="6" horiz-adv-x="345" 
d="M283 343q29 -40 37 -101q3 -31 -0.5 -68t-20.5 -76q-8 -19 -20.5 -37t-29 -32t-37 -22.5t-45.5 -8.5q-24 0 -43.5 9.5t-35 25.5t-27 36.5t-18.5 43.5q-15 47 -16.5 97t-1.5 104q1 32 2.5 60.5t5.5 57.5t11 57t18 54q10 26 26.5 48t37 37.5t44.5 22t50 1.5
q27 -5 46.5 -18.5t30.5 -30.5q12 -17 15.5 -35t0.5 -34q-5 -20 -16.5 -30t-23.5 -6q-16 5 -24.5 29.5t-16.5 50.5q-5 19 -13.5 32.5t-24.5 14.5q-20 2 -38 -19.5t-29 -59.5t-15.5 -89t-4.5 -111q19 22 42 35t50 12t48 -15.5t36 -34.5zM228 91q7 26 8.5 56t-0.5 59
q-4 70 -19.5 113t-42.5 44q-16 0 -33 -15t-34 -40q0 -57 0.5 -106.5t7.5 -87.5t21.5 -61.5t38.5 -23.5q20 1 33 18.5t20 43.5z" />
    <glyph glyph-name="seven" unicode="7" horiz-adv-x="343" 
d="M329 593q5 -4 7.5 -10t0.5 -11q0 -5 -4 -7q-43 -41 -69 -104.5t-46 -136.5t-40.5 -149.5t-51.5 -143.5q-4 -8 -21 -9t-39 11q-18 9 -32 24t-12 21q0 1 5 7q42 42 67 105t45 135t39.5 146.5t50.5 139.5q-97 25 -197 -43q-5 -4 -9 -3t-6 7q-2 5 0.5 11t7.5 10
q152 111 304 0z" />
    <glyph glyph-name="eight" unicode="8" horiz-adv-x="406" 
d="M343 321q26 -36 35 -88q5 -35 -2 -74t-32 -76q-12 -18 -29 -34t-37 -28t-43.5 -18.5t-48.5 -4.5q-24 1 -45 8.5t-38.5 19.5t-31 27t-22.5 31q-19 32 -22.5 65t1.5 64q5 28 15.5 50.5t24.5 42.5q15 20 34.5 38t43.5 29q-38 14 -64 40.5t-34 64.5q-5 27 2 57t30 58t58 47.5
t80 17.5q38 -2 68.5 -20t50.5 -42q19 -25 25.5 -51.5t1.5 -50.5q-8 -39 -34.5 -67.5t-64.5 -45.5q26 -9 45 -25t33 -35zM134 509q5 -55 23.5 -87.5t47.5 -32.5t47 32.5t23 86.5q5 50 -13.5 84.5t-56.5 34.5t-57 -34.5t-14 -83.5zM277 83q11 25 14.5 55.5t1.5 65.5
q-5 69 -27.5 111.5t-61.5 43.5q-38 -1 -60 -43.5t-27 -110.5q-2 -35 1 -66t14 -55q11 -25 29.5 -40t42.5 -15q25 0 43.5 15t29.5 39z" />
    <glyph glyph-name="nine" unicode="9" horiz-adv-x="346" 
d="M303 541q15 -47 16.5 -97t0.5 -104q-1 -32 -2 -60.5t-5 -57.5t-11 -57t-18 -54t-27 -48t-36.5 -37.5t-44.5 -22.5t-51 -2q-26 5 -45.5 19t-30.5 31q-12 17 -15.5 35t-0.5 34q5 20 16.5 30t23.5 6q16 -5 24.5 -29.5t15.5 -50.5q5 -19 13.5 -32.5t25.5 -15.5q20 -2 38 20
t29 60t15.5 89t3.5 111q-18 -22 -41.5 -35t-49.5 -12q-27 1 -48 15.5t-36 34.5q-30 40 -37 101q-3 31 0 68t21 76q8 19 20.5 37t29 32t37 22.5t45.5 8.5q24 0 43.5 -9.5t35 -25.5t27 -37t18.5 -43zM238 346q0 57 -0.5 106t-7.5 88q-7 38 -21 61.5t-38 23.5q-21 -1 -34 -18.5
t-19 -43.5q-7 -26 -8.5 -56t0.5 -59q4 -70 19 -113t43 -44q16 0 33 15t33 40z" />
    <glyph glyph-name="A" unicode="A" horiz-adv-x="427" 
d="M238 323q-26 0 -52 0.5t-52 1.5q-15 -75 -37.5 -143t-60.5 -125q-6 -7 -14 -1q-14 9 -9 24l2 4t5 6q40 55 63 124t37 146.5t24 161t24 169.5q3 13 11 14q5 0 12.5 -2t15.5 -7q8 -4 16 -7.5t15 -4.5q11 0 18 8q4 6 8 4q7 -1 10 -20q10 -85 18.5 -168t22 -159t36 -144
t62.5 -123q1 -1 1 -2q0 -4 -4.5 -10.5t-12 -13.5t-17 -14t-18.5 -11q-20 -10 -34.5 -10t-18.5 10q-26 69 -42 142t-29 150zM183 631q-12 -71 -21.5 -140t-21.5 -135h93q-11 69 -22.5 138t-27.5 137z" />
    <glyph glyph-name="B" unicode="B" horiz-adv-x="491" 
d="M286 -11q-52 -3 -90 21.5t-57 59.5l-6 -34q-2 -10 -21 -9t-40 11q-20 9 -34 22.5t-11 21.5q105 269 -1 536q-5 16 5 22q5 2 13 4t16 2q11 0 20.5 1t18.5 4q11 5 15 16q3 7 7 7q4 2 7 -1.5t4 -7.5q5 -22 8 -43.5t6 -43.5q11 39 28.5 66t37.5 42q21 15 44 19.5t44 2.5
q42 -3 73.5 -24t49.5 -49q20 -29 24.5 -59.5t-1.5 -61.5q-10 -48 -36 -81t-67 -56q24 -11 43.5 -26.5t33.5 -34.5q29 -38 39 -90q7 -36 2 -74t-28 -73q-21 -35 -59 -61.5t-88 -28.5zM147 128q5 -20 15 -38.5t24.5 -32.5t33 -22.5t40.5 -8.5q29 -1 50.5 13.5t35.5 38.5
q26 47 20 123q-7 75 -32.5 115t-76.5 41q-5 0 -7.5 5.5t-2.5 12.5q0 6 2.5 12t7.5 6q39 0 62.5 37.5t29.5 102.5q5 57 -13.5 98t-61.5 43q-23 1 -43.5 -13t-36.5 -39t-25.5 -57.5t-12.5 -70.5q15 -184 -9 -366z" />
    <glyph glyph-name="C" unicode="C" horiz-adv-x="362" 
d="M198 -10q-27 -3 -50 5.5t-42 24.5t-33.5 38t-23.5 46q-20 51 -23 106.5t-1 116.5q1 34 2.5 65.5t6.5 63.5q4 32 11.5 63.5t19.5 60.5q11 29 28.5 54.5t39 43t47.5 25t55 1.5q26 -5 45.5 -20t30.5 -32q24 -35 16 -70q-4 -20 -15.5 -29.5t-22.5 -5.5q-15 5 -23.5 27
t-16.5 46q-7 20 -18 35.5t-28 17.5q-24 2 -42 -24t-29 -71t-14.5 -104t-3.5 -128q0 -73 3 -131.5t14 -101.5t31.5 -66.5t47.5 -20.5q19 2 37 15.5t33 35t26 48.5t16 55q1 7 4 10t6 5q4 2 8 -1.5t6 -8.5v-4.5t-2 -10.5q-7 -34 -18.5 -65t-30.5 -57q-18 -25 -43 -40.5
t-54 -17.5z" />
    <glyph glyph-name="D" unicode="D" horiz-adv-x="475" 
d="M422 123q-9 -27 -23 -51t-33 -42.5t-43.5 -29.5t-54.5 -11q-44 -1 -79 21t-52 51l-4 -25q-2 -10 -21 -9t-40 11q-20 9 -34.5 22.5t-10.5 21.5q105 269 -1 536q-5 16 5 22q5 2 13 4t16 2q11 0 20.5 1t18.5 4q11 5 15 16q2 6 7 8q4 1 7 -2.5t4 -7.5q4 -21 7.5 -41.5
t6.5 -41.5q9 39 24 64t33 39.5t38.5 19.5t41.5 4q26 -1 48 -11t40 -26.5t31.5 -38.5t22.5 -46q18 -49 20 -103.5t1 -114.5q-3 -68 -4.5 -129.5t-19.5 -116.5zM341 121q14 45 16.5 103t2.5 127t-2.5 126t-14.5 101q-11 44 -32.5 70.5t-50.5 25.5q-20 0 -38.5 -14t-32.5 -38
q-14 -25 -22 -57.5t-12 -70.5q17 -187 -9 -373q11 -41 37 -67.5t61 -28.5t60 24.5t37 71.5z" />
    <glyph glyph-name="E" unicode="E" horiz-adv-x="344" 
d="M334 84q2 -6 -0.5 -13.5t-7.5 -11.5q-147 -120 -293 0q-4 3 -7.5 10t-1.5 12q73 268 0 537q-1 5 2 11.5t7 10.5q141 114 280 10q5 -4 8 -11t1 -13q-4 -14 -15 -6q-88 60 -174 38q5 -66 7 -131.5t3 -131.5q28 1 55.5 0.5t56.5 -3.5q10 -2 8 -17q0 -16 -9 -16
q-28 1 -55.5 1h-55.5q0 -81 -2.5 -160t-7.5 -159q94 -24 186 47q11 9 15 -4z" />
    <glyph glyph-name="F" unicode="F" horiz-adv-x="326" 
d="M313 641q6 -5 8.5 -12.5t0.5 -12.5q-2 -6 -6.5 -8t-9.5 3q-85 70 -173 49q4 -71 6 -141t2 -141q29 1 56.5 0.5t55.5 -2.5q9 -2 9 -17t-9 -15q-28 -1 -55.5 -1h-56.5q0 -162 -9 -322q-1 -10 -19 -10t-40 14q-20 12 -34.5 30.5t-12.5 26.5q67 265 -1 532q-2 8 -0.5 14
t8.5 13q141 118 280 0z" />
    <glyph glyph-name="G" unicode="G" horiz-adv-x="367" 
d="M342 310q2 -56 1 -106.5t-17 -97.5q-8 -23 -20 -43.5t-28.5 -36.5t-37 -26t-44.5 -11q-27 -2 -50 7t-41.5 25.5t-33 38t-23.5 45.5q-20 51 -22.5 106t-0.5 116q1 34 2.5 65.5t6.5 63.5q4 32 11 63t19 60q11 29 28 54t38.5 43t47.5 26.5t55 3.5q49 -8 77 -48
q24 -35 16 -70q-4 -20 -15 -30.5t-23 -6.5q-14 4 -23.5 26t-16.5 45q-7 20 -18.5 35t-28.5 17q-24 2 -42 -24.5t-28 -71.5q-11 -45 -14 -104t-3 -128q0 -72 3 -130.5t14 -102.5q11 -42 30.5 -66t47.5 -22q26 2 43 25.5t25 59.5q9 37 10 83.5t-1 100.5q-18 -2 -35.5 -3
t-35.5 -1q-10 -2 -10 17q0 8 2.5 13t6.5 5q30 0 59.5 1t59.5 3q3 0 6 -4t3 -10v-5z" />
    <glyph glyph-name="H" unicode="H" horiz-adv-x="466" 
d="M330 31q-11 82 -16.5 164t-5.5 165h-150q0 -83 -5.5 -165t-16.5 -164q-2 -10 -20.5 -9t-40.5 12q-20 11 -34.5 25.5t-11.5 22.5q93 269 0 536q-6 17 6 23q4 3 12 5t16 3q22 0 39 7q10 4 16 16q1 6 7 8q4 2 7 -2t4 -8q9 -69 14.5 -138t7.5 -139q75 4 151 0q1 70 6.5 139
t15.5 138q1 11 4.5 14t9.5 1q4 -2 10.5 -7t13.5 -12q18 -20 34 -29q10 -5 20 -1q4 1 9 -1q4 -2 5.5 -8t-0.5 -9q-93 -267 0 -536q3 -8 -13.5 -24t-38.5 -27q-20 -10 -36.5 -10.5t-18.5 10.5z" />
    <glyph glyph-name="I" unicode="I" horiz-adv-x="346" 
d="M333 84q2 -6 -0.5 -13t-7.5 -12q-152 -120 -304 0q-5 4 -7.5 11.5t-0.5 13.5q4 13 15 5q48 -35 93 -47q22 307 0 615q-45 -12 -93 -47q-5 -3 -9 -1.5t-6 7.5q-2 5 0.5 12.5t7.5 11.5q152 120 304 0q5 -5 7.5 -12t0.5 -12q-4 -14 -15 -6q-48 35 -93 47q-23 -308 0 -615
q45 12 93 47q11 8 15 -5z" />
    <glyph glyph-name="J" unicode="J" horiz-adv-x="353" 
d="M338 639q5 -4 7.5 -11t0.5 -12q-5 -14 -16 -6q-45 32 -93 46q-10 -120 -12.5 -239t3.5 -240q2 -39 -4.5 -74t-22.5 -61q-17 -26 -42 -38.5t-57 -1.5q-23 8 -40.5 24.5t-28.5 36.5q-21 39 -13 76q6 26 20 33.5t27 2.5q10 -4 17 -15.5t5 -30.5q-3 -16 -11 -28
q-4 -5 -6.5 -10.5t-4.5 -13.5q-2 -10 3.5 -19.5t16.5 -14.5q22 -8 35.5 17t15.5 72q5 133 4 264.5t-9 264.5q-48 -9 -93 -37q-5 -3 -9 -1t-6 9q-2 5 0.5 12t7.5 11q153 99 305 -16z" />
    <glyph glyph-name="K" unicode="K" horiz-adv-x="478" 
d="M31 82q96 269 -1 536q-5 16 6 23q9 5 28 7q21 0 39 6q10 4 16 17q1 5 7 7q4 2 7 -1.5t4 -7.5q24 -156 24 -312q24 41 48 85t51 86t59.5 78t73.5 61q5 3 10 0q6 -3 9.5 -10t1.5 -14q-2 -5 -6 -8q-51 -28 -88 -74t-69 -100q20 -56 39 -112t42 -106t53 -92t72 -70v-1
q1 -3 -3.5 -9t-12 -13t-17.5 -14t-20 -12q-22 -10 -38 -9.5t-21 8.5q-26 36 -46.5 77t-37.5 84.5t-32 88t-31 87.5q-9 -16 -18.5 -31.5t-18.5 -29.5q-3 -139 -24 -275q-2 -10 -20.5 -9t-40.5 12q-20 11 -34.5 25t-10.5 22z" />
    <glyph glyph-name="L" unicode="L" horiz-adv-x="322" 
d="M318 84q2 -6 -0.5 -13.5t-7.5 -12.5q-139 -119 -277 0q-4 4 -7 11.5t-1 13.5q68 267 0 535q-4 16 7 26q11 9 28 12q22 3 38 10q10 4 16 17q3 6 8 8q4 1 6.5 -3t3.5 -8q9 -161 9 -320.5t-8 -320.5q85 -21 170 49q11 9 15 -4z" />
    <glyph glyph-name="M" unicode="M" horiz-adv-x="573" 
d="M299 86q0 -5 -5.5 -9t-12.5 -6q-12 -5 -32 -3q-17 2 -28.5 8.5t-13.5 17.5q-11 64 -20.5 126t-23 120.5t-33 112t-49.5 100.5q65 -247 -27 -489q-2 -5 -8 -6t-12 2q-12 7 -7 18q120 272 -1 544q-2 6 0.5 11.5t7.5 7.5q7 3 13 3.5t11 -0.5q26 -2 40 4q12 5 15 15q2 6 6 8
q6 1 12 -9q34 -58 56 -121.5t38.5 -130t30 -135.5t30.5 -138q16 67 28.5 135t28 134t36 129t52.5 121q5 8 10 15.5t10 5.5t11.5 -7t12.5 -11q8 -8 16 -15t16 -10q10 -6 22 -1q4 4 9 2t6 -7.5t-1 -9.5q-118 -267 -1 -536q4 -8 -12.5 -22t-38.5 -23q-20 -8 -36.5 -8.5
t-18.5 9.5q-30 134 -34 266.5t17 266.5q-24 -55 -40.5 -114t-29.5 -120.5t-24.5 -124.5t-25.5 -126z" />
    <glyph glyph-name="N" unicode="N" horiz-adv-x="453" 
d="M417 647q6 -4 9 -10t1 -11q-93 -272 -2 -542q2 -5 -4 -12.5t-15 -15.5t-19 -14.5t-16 -9.5q-20 -10 -35.5 -9t-20.5 9q-41 63 -68 139.5t-51.5 152.5t-53 145t-73.5 119q58 -262 -14 -524q-2 -5 -7.5 -6t-11.5 4q-12 7 -9 19q93 273 0 545q-3 8 1.5 13t7.5 7
q5 4 12.5 5.5t16.5 3.5q11 2 21 2.5t18 4.5q12 5 16 16q4 6 7 8q5 1 13 -13q27 -42 47.5 -90.5t38 -98.5t33.5 -101t34 -98t40 -89t51 -75q-57 261 15 522q4 13 18 4z" />
    <glyph glyph-name="O" unicode="O" horiz-adv-x="413" 
d="M222 714q26 -1 48.5 -11t40.5 -27t31.5 -39t22.5 -46q18 -50 19.5 -104t0.5 -114q-2 -35 -3 -67.5t-5 -64.5t-11 -62t-18 -58t-27.5 -52t-37.5 -41.5t-46 -27t-52 -7.5q-26 1 -48 11.5t-39 27.5t-30 39t-21 46q-17 49 -18.5 103.5t-0.5 113.5q1 36 2 68.5t5 64.5
q4 31 10 61t17 58q10 28 26.5 52t37 41t45 26.5t51.5 8.5zM280 127q11 45 13.5 103t2.5 125q0 66 -2.5 123t-13.5 102q-10 45 -29 72t-45 26q-27 1 -45.5 -26t-28.5 -71q-11 -45 -13 -102.5t-3 -123.5q1 -67 3 -125t13 -103q10 -45 29 -72t45 -27t45 27t29 72z" />
    <glyph glyph-name="P" unicode="P" horiz-adv-x="471" 
d="M302 712q48 -5 82 -32.5t52 -63.5q18 -37 20.5 -77.5t-3.5 -84.5q-8 -44 -20 -82t-34 -71q-21 -32 -51.5 -55t-69.5 -23q-39 -1 -68.5 17.5t-47.5 49.5q-2 -63 -9.5 -125.5t-18.5 -125.5q-2 -10 -21 -9t-41 12q-20 9 -34 22.5t-11 21.5q108 268 1 536q-5 16 5 22
q5 2 13 4t16 2q11 0 20.5 1t18.5 4q11 5 15 16q3 7 7 7q4 2 7 -1.5t4 -7.5q5 -22 8 -43.5t6 -43.5q11 39 28 65.5t38 41.5q21 16 44 20.5t44 2.5zM360 467q2 44 0.5 80.5t-11.5 65.5q-9 29 -27 46t-44 19q-23 1 -44 -13t-37 -38q-17 -25 -26.5 -58.5t-13.5 -71.5
q6 -75 6 -149q13 -38 36.5 -62.5t54.5 -25.5q24 0 42.5 15.5t32.5 43.5q13 27 20.5 64.5t10.5 83.5z" />
    <glyph glyph-name="Q" unicode="Q" horiz-adv-x="437" 
d="M364 9q18 9 31 3t17 -21q5 -15 -4.5 -39t-40.5 -41q-20 -10 -39 -9.5t-37 8.5t-33.5 21t-28.5 27q-16 17 -29 31.5t-24 17.5q-45 3 -76 37t-48 80q-17 47 -23 99t-9 111q-2 36 -1.5 69.5t4.5 65.5q3 32 10 63.5t19 60.5q11 29 27.5 54.5t37.5 43.5t45.5 27.5t51.5 8.5
q26 -1 48.5 -11.5t40.5 -28t32.5 -41t23.5 -48.5q20 -52 23 -108.5t-1 -116.5q-5 -59 -14 -112t-27 -103q-18 -49 -47 -89.5t-70 -54.5q55 -20 86.5 -17.5t54.5 12.5zM198 42q23 0 40 26t28 70q11 45 16 102t7 125t-1 126t-14 103t-30.5 71.5t-45.5 25.5q-26 0 -45 -26.5
t-30 -70.5q-11 -45 -14 -102.5t-1 -125.5t7 -125.5t16 -102.5q11 -44 27.5 -70t39.5 -26z" />
    <glyph glyph-name="R" unicode="R" horiz-adv-x="517" 
d="M492 87q4 -2 3 -2q0 -1 1 -1q1 -3 -3 -8.5t-12 -12.5t-19 -14.5t-23 -12.5q-25 -11 -42 -10t-25 8q-53 50 -90 114t-70 129q-11 1 -24 5t-26 9q-3 -64 -10 -126.5t-18 -125.5q-2 -10 -21 -9t-41 12q-20 9 -34 22.5t-11 21.5q106 268 1 536q-5 16 5 22q5 2 13 4t16 2
q11 0 20.5 1t18.5 4q11 5 15 16q2 6 7 8q4 1 7 -2.5t4 -7.5q4 -22 7.5 -43.5t6.5 -43.5q17 63 56 99t98 30q44 -4 76 -29t49 -57q17 -33 20.5 -69.5t-3.5 -73.5q-12 -71 -45 -120q-17 -25 -40 -46t-55 -32q18 -32 37.5 -61.5t42 -55t49.5 -46t59 -34.5zM224 309q27 -1 49 13
t38 40q31 51 39 145q3 37 0.5 67t-11.5 53q-19 49 -61 52q-24 1 -45 -13.5t-37 -39.5q-17 -26 -26 -59t-13 -70q4 -43 5.5 -86t-0.5 -86q33 -16 62 -16z" />
    <glyph glyph-name="S" unicode="S" horiz-adv-x="386" 
d="M315 341q15 -22 26 -46.5t16 -59.5q6 -37 0 -76.5t-29 -77.5q-23 -36 -61 -63t-87 -25q-35 2 -63.5 17.5t-48.5 41.5t-32.5 58.5t-19.5 69.5q-1 5 -1 7v4q4 13 14 10q3 -2 6 -5t5 -10q5 -28 15.5 -55t26 -48.5t36.5 -36t47 -17.5q27 -2 47.5 9.5t34.5 31.5q13 20 18 45
t3 53q-4 53 -26 87t-54 66q-19 18 -38.5 39t-36.5 45t-29.5 51.5t-17.5 65.5t3.5 73t31.5 63t59.5 43.5t81.5 7.5q31 -5 54.5 -20t37.5 -33q15 -19 20 -38t1 -36q-5 -20 -16.5 -29t-22.5 -5q-15 5 -23.5 27t-16.5 46q-6 20 -17 36.5t-33 18.5q-30 4 -48.5 -25t-16.5 -78
q1 -29 8.5 -51t19.5 -40t27 -34t32 -33t34.5 -35.5t32.5 -38.5z" />
    <glyph glyph-name="T" unicode="T" horiz-adv-x="339" 
d="M321 644q5 -5 7.5 -12t0.5 -12q-4 -14 -15 -6q-23 18 -46.5 29.5t-46.5 18.5q-11 -160 -11 -318t12 -317q1 -10 -16.5 -19.5t-39.5 -9.5q-20 1 -35.5 9.5t-14.5 19.5q12 159 12 317t-11 318q-23 -7 -46.5 -18.5t-46.5 -29.5q-5 -3 -9 -1.5t-6 7.5q-2 5 0.5 12t7.5 12
q152 120 304 0z" />
    <glyph glyph-name="U" unicode="U" horiz-adv-x="431" 
d="M400 647q5 -3 8 -10.5t0 -17.5q-53 -161 -41 -327q3 -51 0 -99t-21 -93q-9 -21 -21.5 -40.5t-29 -34.5t-36.5 -23.5t-42 -8.5q-23 0 -43 8t-36.5 22t-29.5 33.5t-22 40.5q-18 45 -20.5 95.5t1.5 109.5q9 162 -43 321q-5 15 6 23q9 6 28 8q11 1 20.5 2.5t18.5 5.5
q10 4 16 16q2 6 7 8q4 2 7 -2t4 -7q11 -97 16 -192.5t3 -192.5q-1 -53 -1 -98.5t8 -82.5t26.5 -60.5t50.5 -21.5q33 2 56.5 29.5t36.5 64.5q14 38 16.5 80t0.5 85q-5 88 3.5 174.5t31.5 174.5q3 10 9.5 12t11.5 -2z" />
    <glyph glyph-name="V" unicode="V" horiz-adv-x="436" 
d="M379 677q22 -11 28.5 -38t6.5 -56q0 -30 -4 -56.5t-6 -42.5q-11 -52 -20 -111t-18 -125q-5 -32 -10.5 -64t-12.5 -62t-16.5 -56t-22.5 -46q-5 -8 -21 -14t-32 -7q-20 -2 -34.5 4t-16.5 17q-20 85 -33.5 169.5t-31 162.5t-44.5 146.5t-73 121.5q-6 6 -6 8q-2 5 1 10.5
t8 8.5q2 1 10 3t18 4q13 1 23.5 2.5t14.5 2.5q10 4 16 17q1 5 6 7q5 1 11 -10q34 -69 54.5 -147t38 -158.5t35.5 -160.5t46 -155q16 23 25 68t14 99t8.5 110.5t8.5 109.5q3 48 3.5 91.5t-9.5 75.5q-8 28 -5 46q3 17 14 24t26 1z" />
    <glyph glyph-name="W" unicode="W" horiz-adv-x="704" 
d="M651 664q23 -8 25 -31.5t-3 -51.5q-5 -29 -12.5 -55.5t-11.5 -41.5q-17 -53 -26 -111.5t-14 -121.5q-3 -30 -5 -60.5t-5.5 -58.5t-9.5 -53t-16 -44q-4 -8 -19 -14t-32 -9q-20 -4 -35 -1t-19 14q-28 68 -46 137.5t-32 140.5q-15 -73 -31.5 -146t-41.5 -145q-7 -5 -25 -7
t-36 0q-20 2 -33 9.5t-14 18.5q-5 84 -11.5 164t-24 154.5t-51.5 142t-94 125.5l-6 6t-2 3q-4 5 -1.5 9.5t7.5 6.5q2 1 10.5 1.5t19.5 0.5q14 -1 25.5 -0.5t15.5 1.5q10 3 13 14q1 5 6 7q6 1 13 -10q48 -66 76 -139t45.5 -149.5t29.5 -156.5t27 -161q25 74 41.5 149
t31.5 151q-8 39 -15.5 78t-15.5 79q-2 7 -2 9v4q0 13 10 13q2 0 7.5 -2.5t13.5 -6.5l18 -9t11 -4q9 0 15 10q3 6 6 4q4 0 7 -13q9 -59 18.5 -117t23 -114t32.5 -110.5t48 -106.5q13 23 15.5 65.5t4.5 93.5t4 105.5t10 105.5q6 47 11 88t0 71q-2 12 -1.5 23t3.5 20
q6 17 19 24t28 2z" />
    <glyph glyph-name="X" unicode="X" horiz-adv-x="467" 
d="M446 86q0 -1 1 -2q1 -3 -3.5 -9t-12 -13t-17.5 -14t-20 -12q-20 -10 -35 -9t-20 9q-44 61 -73 134.5t-54 147.5q-16 -39 -33 -76t-37 -70.5t-45 -62.5t-56 -50q-5 -3 -10 0q-6 4 -10 11t-2 13q2 4 6 7q32 20 57.5 48.5t46 62.5t38 72.5t33.5 79.5q-14 41 -29.5 81t-34 76
t-41 67.5t-51.5 56.5q-3 3 -3.5 4l-1.5 3q-2 6 1.5 11t7.5 7q2 2 10 3t18 2q13 1 24 1.5t14 2.5q10 3 16 15q2 5 7 7q2 1 6 -3.5t16 -23.5q30 -50 51.5 -105.5t41.5 -112.5q28 64 62 120.5t85 96.5q5 5 12 1q5 -3 8 -9.5t1 -14.5l-2 -4t-4 -5q-52 -38 -87 -96t-64 -124
q16 -49 33.5 -96.5t38.5 -89.5t48 -77.5t63 -60.5z" />
    <glyph glyph-name="Y" unicode="Y" horiz-adv-x="420" 
d="M399 648q5 -4 8 -10.5t1 -14.5q-1 -2 -7 -8q-53 -51 -83.5 -125t-53.5 -161q1 -150 15 -302q1 -10 -16.5 -19t-39.5 -10q-20 -1 -35.5 6t-14.5 18q5 79 6.5 157.5t2.5 158.5q-15 43 -31 84t-35 78t-42.5 67.5t-53.5 53.5q-7 5 -7 7q-2 5 1 11t8 8q2 2 10 4t18 4
q13 2 23.5 3.5t14.5 3.5q10 4 16 17q3 5 6 7q5 1 14 -12q22 -35 39 -74t31.5 -80t27.5 -83.5t26 -83.5q24 86 54 162.5t82 131.5q8 6 15 1z" />
    <glyph glyph-name="Z" unicode="Z" horiz-adv-x="359" 
d="M346 88q2 -6 -0.5 -13.5t-7.5 -11.5q-158 -120 -316 0q-6 5 -8 12t0 13q42 45 67.5 112t44 145t35.5 161t43 161q-79 9 -158 -42q-5 -2 -9 0t-6 8t1 13t8 10q134 93 271 6q6 -4 8 -10.5t0 -12.5q-39 -54 -63 -126t-42 -151.5t-36.5 -161.5t-47.5 -156q101 -23 200 49
q13 7 16 -5z" />
    <glyph glyph-name="a" unicode="a" horiz-adv-x="326" 
d="M302 72q4 -8 -11.5 -21t-36.5 -20q-19 -7 -34.5 -5t-16.5 13q-2 14 -3 29l-2 30q-6 -21 -15 -38t-21 -28.5t-28 -16.5t-37 -1q-23 4 -40 16.5t-26 29.5q-10 16 -12 33t3 34q13 45 56 74q21 15 50 26t65 10v24q1 31 1.5 58t-2 46.5t-8.5 31t-19 12.5q-11 1 -16.5 -7.5
t-10.5 -19.5q-5 -15 -12 -30t-19 -16q-11 -2 -22 9t-13 27q-3 12 1.5 24t14.5 21.5t25.5 16t35.5 7.5q38 1 65 -19.5t41 -47.5q15 -28 17.5 -58t0.5 -62q-7 -90 29 -182zM128 39q19 -2 37.5 30.5t28.5 84.5q0 14 -0.5 29t-0.5 29q-38 -1 -62 -32t-29 -78q-2 -26 5 -43.5
t21 -19.5z" />
    <glyph glyph-name="b" unicode="b" horiz-adv-x="369" 
d="M355 234q5 -39 0.5 -80t-22.5 -79q-9 -19 -21 -36t-27 -30.5t-33 -21.5t-38 -8q-32 0 -53 15t-30 35q0 -3 -0.5 -5.5t-0.5 -5.5q-1 -10 -19 -8.5t-39 13.5q-19 11 -32.5 26t-11.5 23q81 271 -2 541q-4 16 7 23q10 8 28 10q10 1 19.5 2.5t15.5 4.5q12 5 15 17q4 7 8 8
q4 2 6.5 -1.5t3.5 -8.5q18 -156 18 -313q15 31 34 44t43 12q29 0 51.5 -16.5t39.5 -39.5q31 -48 40 -121zM252 63q10 26 13.5 59.5t1.5 75.5q-2 38 -7 71t-13.5 57.5t-19.5 39t-24 14.5q-14 0 -29.5 -16.5t-26.5 -44.5q0 -65 -3.5 -128.5t-9.5 -128.5q9 -26 24 -38t31 -14
q21 -2 37 12.5t26 40.5z" />
    <glyph glyph-name="c" unicode="c" horiz-adv-x="280" 
d="M174 415q-18 2 -31 -15t-21 -45t-10 -62t-3 -69q1 -33 3.5 -66.5t11.5 -59.5q8 -27 23 -43.5t35 -12.5q24 4 41 29.5t20 53.5q1 8 9 12q9 2 11 -6q1 -2 1.5 -6.5t-1.5 -12.5q-3 -19 -11.5 -37t-22.5 -32.5t-33 -24t-43 -10.5q-22 -1 -40 5t-32.5 16.5t-24.5 24.5t-17 29
q-14 31 -15 61.5t-1 59.5q3 35 8.5 72t22.5 76q8 18 21 35.5t30.5 29.5t39.5 17.5t48 0.5q42 -9 60.5 -34t10.5 -48q-5 -16 -14.5 -23t-20.5 -5q-12 4 -21 18.5t-13 37.5q-3 17 -7.5 24.5t-13.5 9.5z" />
    <glyph glyph-name="d" unicode="d" horiz-adv-x="371" 
d="M341 631q5 -4 6 -9.5t0 -8.5q-83 -270 -2 -541q2 -8 -14 -24.5t-36 -27.5t-35.5 -11.5t-16.5 9.5l-3 28q-15 -37 -39.5 -53.5t-56.5 -13.5q-38 3 -66.5 29t-44.5 60q-17 34 -20 71t2 74q6 39 17.5 71.5t30.5 60.5q17 27 42 46.5t55 18.5q25 0 41.5 -11t24.5 -28
q1 148 18 297q1 19 14 14q5 -2 11.5 -7t12.5 -12q8 -10 16.5 -18t14.5 -12q11 -6 20 -2q5 2 8 0zM171 10q18 0 36.5 20t29.5 52q-6 64 -8.5 128t-2.5 128q-9 23 -21.5 32.5t-25.5 9.5q-32 -1 -50.5 -49.5t-21.5 -129.5q-2 -39 1 -73.5t11 -60.5t21.5 -42t30.5 -15z" />
    <glyph glyph-name="e" unicode="e" horiz-adv-x="286" 
d="M264 130v-5t-1 -8q-2 -18 -9.5 -36.5t-21 -34t-33.5 -26t-45 -12.5q-22 -1 -40 5t-32.5 16.5t-24.5 24.5t-17 29q-14 31 -15 61.5t-1 59.5q4 35 6.5 71.5t17.5 74.5q7 18 18.5 35.5t27.5 30t36 19t46 3.5q32 -5 50.5 -21.5t26.5 -35.5q9 -19 9 -37t-3 -35
q-6 -27 -17.5 -48.5t-27.5 -26.5q-26 1 -52 1h-52v-11q1 -33 3.5 -66.5t11.5 -59.5q8 -27 23.5 -43.5t35.5 -12.5q23 4 40 29.5t20 53.5q1 10 9 12t11 -7zM172 407q-15 2 -26 -9t-18.5 -30t-11.5 -45t-5 -54q20 1 41 1t41 -2q2 -1 6.5 15t6.5 39q3 31 -4 56.5t-30 28.5z" />
    <glyph glyph-name="f" unicode="f" horiz-adv-x="242" 
d="M216 638q11 -22 14.5 -42.5t0.5 -37.5q-6 -38 -40 -20q-11 5 -16 17t-4 26q1 11 3.5 21.5t6.5 21.5q2 6 2 8q2 13 -5 22t-12 11q-11 4 -17 -11.5t-9 -38.5t-4 -48t-1 -40l-2 -148q25 0 49 -3q5 0 7 -4.5t2 -9.5q0 -13 -9 -13h-49q0 -172 6 -344q0 -10 -17.5 -17.5
t-37.5 -1.5q-20 5 -35 19.5t-13 24.5q18 159 18 319q-7 0 -13.5 -0.5t-14.5 -0.5q-9 0 -9 12t9 14l28 3q-1 35 -2 68.5t-3 68.5q-3 45 2.5 82t19.5 63t35 39t44 5q22 -6 38.5 -25t27.5 -40z" />
    <glyph glyph-name="g" unicode="g" horiz-adv-x="365" 
d="M313 498q18 -11 27 -28.5t4 -34.5q-3 -10 -8.5 -14.5t-13 -5.5t-16 1t-15.5 6q-26 12 -38 13.5t-20 -3.5q18 -14 31 -33t21 -39q15 -41 10 -87q-6 -64 -46 -107q-19 -21 -44.5 -35t-56.5 -12q-36 0 -67 22q2 -20 22.5 -35.5t55.5 -17.5q30 0 53 -9t40 -23q34 -31 40 -80
q8 -59 -23 -111q-17 -27 -46.5 -48.5t-71.5 -18.5q-38 3 -65 24.5t-42 47.5q-29 51 -20 108q6 31 19 46.5t31 11.5q17 -5 26 -27t7 -65q-2 -23 1.5 -44t10.5 -36.5t17.5 -25.5t23.5 -10q12 0 22.5 8t17 23t9.5 34.5t2 41.5q-2 45 -18 68.5t-51 25.5q-20 2 -35.5 13t-25.5 28
t-14 39t-4 49q-34 38 -38 92q-2 31 5 63.5t26 64.5q19 30 48 53t65 22q21 0 40 -8q7 17 17.5 31.5t24 23t29.5 9t33 -10.5zM207 279q1 31 -2 57.5t-9 46t-16 30t-22 10.5q-24 -2 -36 -43.5t-10 -101.5t14.5 -94t33.5 -35q20 0 33 34.5t14 95.5z" />
    <glyph glyph-name="h" unicode="h" horiz-adv-x="382" 
d="M371 72q1 -4 -2.5 -11t-11 -15t-17 -15.5t-19.5 -13.5q-20 -11 -35.5 -11.5t-16.5 10.5q-5 55 -8.5 110t-5.5 111q-2 75 -12.5 108.5t-30.5 34.5q-12 0 -22.5 -12t-19 -30.5t-14.5 -40t-10 -39.5q-3 -120 -15 -242q-1 -10 -19 -9t-39 14q-19 10 -33 26.5t-11 24.5
q78 271 -1 541q-4 16 7 24q9 7 28 10q10 2 19.5 3.5t15.5 3.5q12 7 15 17q5 8 8 9q4 2 6.5 -2t3.5 -9q8 -86 12 -171.5t4 -172.5q13 38 33 62.5t53 22.5q23 -2 41 -15t31 -33q25 -41 31 -107q5 -47 13.5 -92.5t21.5 -90.5z" />
    <glyph glyph-name="i" unicode="i" horiz-adv-x="151" 
d="M116 380q-2 -79 0.5 -158t10.5 -158q0 -3 -4.5 -16t-12.5 -26q-8 -14 -17.5 -23t-20.5 -7q-9 0 -18 9.5t-15.5 21.5t-10.5 23.5t-3 16.5q7 79 9.5 158.5t0.5 159.5q0 17 8 23q4 2 9.5 2.5t11.5 -2.5q7 -4 14 -7.5t12 -5.5q9 -2 13 5q5 3 6 2q3 -2 5 -8t2 -10zM114 578
q8 -19 11.5 -37.5t1.5 -28.5q-1 -11 -5.5 -13t-11.5 -2q-8 0 -16.5 1t-18.5 1t-18.5 -1t-15.5 -1q-8 0 -12 2t-6 13q-1 10 2.5 28.5t10.5 37.5q7 20 17 34.5t22 14.5q12 1 22 -14t17 -35z" />
    <glyph glyph-name="j" unicode="j" horiz-adv-x="190" 
d="M149 382q-14 -190 3 -379q4 -39 -1.5 -79t-19.5 -74t-35 -55.5t-45 -14.5q-21 4 -38 25t-28 46t-15.5 48t-2.5 39q3 25 16.5 25t27.5 -8q10 -8 17.5 -20.5t6.5 -32.5q0 -11 -2.5 -17t-5.5 -11q-3 -6 -6 -11.5t-3 -13.5q-1 -10 4 -20t13 -13q10 -4 16 4t9 23t3.5 33.5
t0.5 35.5v507q0 19 9 19q4 0 9.5 -4t11.5 -9l15 -15t12 -10q4 -2 8 -2.5t6 2.5q4 3 7 0t5 -8.5t2 -9.5zM116 631q12 -9 22 -25t17 -33.5t10 -34t1 -26.5q-3 -20 -19.5 -17.5t-36.5 14.5q-20 13 -35 32t-15 45q0 13 4 25t12 19.5t18 8.5t22 -8z" />
    <glyph glyph-name="k" unicode="k" horiz-adv-x="395" 
d="M389 69q1 -3 -3.5 -9.5t-12 -14t-17 -15.5t-18.5 -12q-20 -11 -33 -9.5t-20 7.5q-29 28 -53 63t-45 73q-19 -12 -44 -15q-2 -30 -4.5 -60t-6.5 -60q-1 -9 -19 -8t-39 13q-19 11 -32.5 26.5t-11.5 23.5q81 271 -1 541q-4 16 7 24q11 7 28 9q10 1 19.5 2.5t15.5 4.5
q12 5 15 17q5 8 8 9q4 1 6.5 -2.5t3.5 -8.5q14 -125 17 -249.5t-4 -250.5q24 3 45 16.5t36 34t23 45.5t8 49q0 16 -3 27q-4 13 -4 32q0 26 9 38.5t19 10.5q11 -2 19 -16.5t7 -47.5q0 -44 -16 -83.5t-42 -71.5q28 -45 61 -80t77 -50q5 0 5 -3z" />
    <glyph glyph-name="l" unicode="l" horiz-adv-x="152" 
d="M120 646q4 -8 6 -19t2 -14q-24 -271 0 -541q0 -3 -4.5 -19t-12.5 -32q-8 -17 -17.5 -28t-20.5 -9q-9 0 -18 12.5t-16 28t-10.5 29.5t-3.5 18q24 270 0 541q-1 8 2 20t8 22q5 11 12 19t14 10q9 3 18.5 -2.5t15.5 -11.5q5 -5 9 -8.5t8 -4.5q6 -6 8 -11z" />
    <glyph glyph-name="m" unicode="m" horiz-adv-x="590" 
d="M560 72q6 -8 -8.5 -17.5t-34.5 -14.5q-19 -5 -36 -3.5t-21 12.5q-42 104 -34 209q2 32 5.5 57.5t4.5 44.5q2 38 -17 41q-11 2 -25 -10t-26 -32t-20 -46t-12 -52q-2 -57 1 -113t9 -113q2 -10 -15.5 -16.5t-37.5 -5.5q-20 0 -34.5 5.5t-12.5 16.5q6 57 9 113t1 113
q-1 69 -14 107.5t-32 36.5q-11 -1 -19 -12.5t-13.5 -29t-9 -40t-4.5 -44.5q13 -115 -32 -230q-3 -10 -23 -11.5t-41 3.5q-19 5 -31 14t-5 17q111 154 1 306q-12 15 -1 19q5 2 13.5 1.5t17.5 -2.5q26 -5 38 -3q11 4 12 13q3 7 6 7q4 1 8 -3t6 -8q6 -15 10.5 -30.5t8.5 -30.5
q4 39 21.5 66t58.5 30q46 3 72 -28q24 -28 30 -86q14 51 45.5 80.5t77.5 21.5q28 -5 43 -20.5t18 -38.5q4 -23 -1.5 -51t-10.5 -61q-12 -91 54 -182z" />
    <glyph glyph-name="n" unicode="n" horiz-adv-x="384" 
d="M358 72q4 -8 -12 -20.5t-36 -19.5q-19 -7 -35 -5t-17 13q-17 112 -14 221q4 75 -1 110.5t-31 37.5q-17 0 -29.5 -13.5t-21 -34t-13.5 -44t-7 -42.5q2 -60 -1 -118t-12 -117q-1 -10 -19.5 -12t-39.5 6q-19 7 -32 18.5t-9 19.5q70 152 1 306q-7 16 4 21q9 5 28 3
q11 -2 20.5 -2.5t15.5 1.5q11 3 14 14q5 7 7 7q4 1 7 -3t4 -9l4 -32t4 -33q9 42 34 69.5t70 21.5q31 -4 51 -22t28 -43q9 -25 8 -53.5t-4 -62.5q-8 -92 34 -183z" />
    <glyph glyph-name="o" unicode="o" horiz-adv-x="345" 
d="M302 364q14 -31 16 -64t2 -68q-2 -38 -5.5 -74.5t-21.5 -70.5q-9 -16 -22 -31t-30.5 -26t-38.5 -17t-45 -5q-42 2 -70.5 23.5t-42.5 50.5q-14 30 -15.5 63.5t-1.5 69.5q2 39 5.5 76t20.5 70t51 57t83 23q42 -1 71.5 -24t43.5 -53zM223 93q8 25 9.5 58.5t1.5 73.5t-1.5 73
t-9.5 59q-7 25 -19.5 39.5t-29.5 13.5q-17 1 -29.5 -13.5t-19.5 -40.5q-8 -25 -9.5 -58.5t-2.5 -73.5q1 -40 2.5 -73.5t8.5 -58.5q8 -25 20.5 -39.5t29.5 -14.5t29.5 14.5t19.5 40.5z" />
    <glyph glyph-name="p" unicode="p" horiz-adv-x="371" 
d="M339 377q16 -33 18.5 -69.5t-2.5 -73.5q-11 -80 -44 -135q-18 -28 -42.5 -48t-56.5 -20q-24 0 -41 11.5t-25 28.5q-2 -60 -5.5 -118t-11.5 -118q-1 -10 -19.5 -9t-38.5 12q-20 10 -33.5 24.5t-10.5 22.5q82 248 1 493q-6 16 6 23q5 4 12 5.5t15 2.5q11 1 20.5 2t15.5 3
q10 4 15 16q3 7 7 9q4 1 7 -2.5t3 -8.5q2 -8 2.5 -15.5t1.5 -15.5q15 36 39.5 51.5t56.5 13.5q38 -2 66 -27.5t44 -57.5zM265 241q2 39 -1 73t-11 60t-21 42t-30 15q-19 0 -37 -19t-28 -51q5 -65 8 -128.5t2 -128.5q9 -23 21 -32.5t25 -9.5q33 -1 51 49t21 130z" />
    <glyph glyph-name="q" unicode="q" horiz-adv-x="368" 
d="M341 378q-81 -246 0 -493q1 -4 -2.5 -10.5t-10.5 -13.5t-16.5 -14t-19.5 -12q-20 -11 -36 -11t-17 11q-8 63 -12 126t-5 127q-15 -32 -34 -45.5t-44 -12.5q-29 1 -52 18t-39 42t-24.5 55.5t-13.5 67.5q-4 39 0 79t21 78q17 36 47.5 64t71.5 28q32 1 52.5 -14t29.5 -35
l2 15q2 11 5.5 14t8.5 1t11.5 -7t12.5 -12q8 -9 16.5 -16.5t14.5 -10.5q10 -7 19 -2q6 3 9 0q5 -2 6 -7.5t-1 -9.5zM221 124q0 64 3 128t10 128q-9 26 -24 38t-31 13q-20 2 -36 -12.5t-26 -39.5q-10 -26 -13 -59.5t-1 -75.5q1 -38 6 -71t13 -58t18.5 -39.5t24.5 -14.5
q15 0 30 17t26 46z" />
    <glyph glyph-name="r" unicode="r" horiz-adv-x="285" 
d="M240 419q26 -11 33 -29t2 -31q-5 -14 -16 -22t-28 -3q-6 2 -12.5 5.5t-10.5 7.5q-8 7 -18 9q-18 3 -34 -15t-24 -50q2 -64 1 -127.5t-5 -127.5q-1 -10 -19 -12.5t-39 6.5q-19 8 -32.5 21t-10.5 21q54 153 0 306q-6 16 7 23q6 4 14.5 5t17.5 0q8 0 16 -1t14 1q10 3 14 14
q4 7 8 8q4 0 6.5 -4t2.5 -9q2 -21 2.5 -41.5t1.5 -41.5q14 50 44 76t65 11z" />
    <glyph glyph-name="s" unicode="s" horiz-adv-x="275" 
d="M157 408q-9 1 -17 -3.5t-13.5 -13t-8.5 -19.5t-2 -23q1 -30 18 -49.5t37 -38.5q12 -11 24 -23.5t23 -25.5q10 -13 17.5 -27t10.5 -34q5 -23 0.5 -46t-19.5 -45q-14 -21 -38.5 -37t-56.5 -15q-24 0 -43 9.5t-32.5 25.5t-22.5 36t-13 43q-1 5 -1 8q3 9 12 6q6 -2 9 -12
q8 -30 25 -55.5t40 -28.5q11 -2 21 3.5t17.5 15t11.5 23.5t3 29q-2 37 -20.5 58.5t-40.5 41.5q-12 11 -23 21t-20.5 21t-16.5 23.5t-10 28.5q-4 21 1 44t22 45q17 20 44 35t61 11q26 -2 45.5 -13t31.5 -25q23 -28 17 -55q-5 -14 -14.5 -21t-20.5 -4q-12 3 -20.5 18.5
t-13.5 38.5q-4 14 -8.5 21t-15.5 8z" />
    <glyph glyph-name="t" unicode="t" horiz-adv-x="254" 
d="M241 124q3 -16 0 -36t-14 -40t-27.5 -37.5t-37.5 -24.5q-24 -8 -45.5 3.5t-35.5 36.5q-14 26 -19.5 62t-2.5 81q4 73 4.5 145.5t-2.5 144.5q-9 -2 -18 -5.5t-17 -7.5q-10 -4 -11 8q-1 5 1.5 10t7.5 7q8 5 17 9t18 7q-2 41 -5 81t-8 81q-1 19 9 25q12 5 27 2q9 -3 18.5 -5
t15.5 -2q5 1 9.5 3t6.5 7q6 6 8 6q4 -1 6.5 -6t2.5 -10q-2 -43 -3 -86l-2 -86q15 -2 29.5 -6t29.5 -11q4 -2 6.5 -7.5t1.5 -10.5q0 -12 -10 -9q-30 11 -57 14q-2 -88 -1.5 -175.5t2.5 -175.5q0 -17 1.5 -35.5t5 -32.5t9.5 -22t16 -4q8 4 12.5 13t3.5 19q-1 11 -9 24
q-6 9 -8 16t-2 13q-2 20 5 31.5t17 16.5q14 5 27 -0.5t18 -30.5z" />
    <glyph glyph-name="u" unicode="u" horiz-adv-x="374" 
d="M345 394q4 -2 5 -7t-1 -9q-69 -153 -3 -306q4 -8 -11.5 -20.5t-35.5 -19.5q-19 -6 -35 -4.5t-17 12.5q-2 15 -3.5 30t-3.5 30q-9 -42 -34.5 -68t-70.5 -20q-28 5 -46.5 22.5t-26.5 41.5t-7 52.5t4 62.5q9 94 -33 187q-7 16 4 21q10 5 29 3q11 -1 20.5 -1.5t14.5 1.5
q12 3 15 14q3 7 7 8t7 -3t4 -9q15 -114 12 -228q-3 -75 1 -109t27 -36q16 -1 28 12t20 33t13.5 43t7.5 42q-5 121 12 243q3 18 14 16q5 -1 11 -5.5t13 -9.5q8 -8 16 -14.5t13 -8.5q12 -3 20 2q8 3 10 2z" />
    <glyph glyph-name="v" unicode="v" horiz-adv-x="364" 
d="M305 419q16 -6 21.5 -19t5.5 -29t-3 -32t-6 -28q-8 -28 -15.5 -59t-15.5 -68q-8 -36 -17 -76t-29 -77q-3 -6 -19.5 -12.5t-31.5 -6.5q-19 -1 -32 5.5t-16 16.5q-13 49 -22 96.5t-22 92t-32 83.5t-51 70q-4 3 -5 5l-2 4q-4 9 8 14q5 2 12 2.5t15 0.5q10 -2 19 -2.5t17 1.5
q11 3 15 14q3 7 6 7q5 1 12 -12q21 -41 35 -84.5t26 -88t25 -88.5t32 -86q11 23 17.5 48.5t11 51.5t6.5 51t4 48q2 26 0.5 48t-6.5 40q-8 22 -5 42q2 16 14 24t28 3z" />
    <glyph glyph-name="w" unicode="w" horiz-adv-x="537" 
d="M477 414q15 -5 19 -17t1 -27t-9 -31t-10 -28q-23 -59 -34 -126q-6 -35 -10.5 -73t-17.5 -74q-4 -8 -18.5 -13t-30.5 -7q-20 -3 -34.5 1t-17.5 15q-11 34 -18.5 67.5t-14.5 68.5q-10 -48 -26 -89t-35 -55q-6 -5 -22.5 -7.5t-32.5 -0.5q-19 3 -31 10t-11 18q3 46 2 89.5
t-9.5 84.5t-28 79t-54.5 72q-6 5 -8.5 8.5t-4.5 5.5q-6 9 6 12q10 3 29 0q11 -2 20.5 -3.5t17.5 0.5q10 3 13 13q2 7 5 7q5 1 14 -11q25 -39 40.5 -81t25 -85t15 -87t11.5 -89q10 13 18.5 31.5t15.5 40t12 44.5t9 46q-6 37 -12.5 73.5t-15.5 73.5q-3 15 -3 18q-1 10 10 12
q5 0 10.5 -2.5t12.5 -6.5q8 -5 15 -9t15 -4q10 0 16 9q4 6 8 6q6 -2 6 -15q3 -40 6 -79.5t10 -78.5t18.5 -76.5t29.5 -74.5q8 23 11.5 47.5t5.5 49.5l9 95q3 25 4 46t-3 38q-5 24 1 40q5 16 19 24.5t31 4.5z" />
    <glyph glyph-name="x" unicode="x" horiz-adv-x="321" 
d="M297 69q1 -3 -3 -8.5t-11.5 -12t-17 -12t-19.5 -8.5q-19 -8 -32 -4t-18 12q-20 34 -33.5 70.5t-25.5 73.5q-17 -31 -25.5 -57.5t-10.5 -47.5q-3 -31 -16.5 -41t-27.5 -4t-21.5 22.5t-0.5 35.5q4 14 13 26.5t21 27t26.5 31t30.5 38.5q-18 51 -39.5 94.5t-59.5 72.5
q-5 3 -5 6q-2 5 1.5 10t7.5 7q11 6 27 4q10 -1 18.5 -1.5t16.5 1.5q11 4 15 14q4 6 7 8q2 0 5 -4.5t5 -8.5q17 -31 30.5 -64.5t24.5 -68.5q14 28 20 52t8 43q3 31 15.5 42t26.5 6q15 -5 22.5 -22.5t1.5 -37.5q-8 -26 -30.5 -52t-51.5 -65q18 -52 40 -97.5t60 -75.5z" />
    <glyph glyph-name="y" unicode="y" horiz-adv-x="353" 
d="M336 373q2 -18 -0.5 -36t-5.5 -34q-5 -29 -14 -60t-17 -68q-9 -37 -18 -79t-20 -85t-25.5 -83t-34.5 -69t-44 -43t-50 -3q-17 6 -29.5 19t-20 29t-10 33.5t1.5 33.5q6 27 20 36.5t27 6.5q10 -4 16.5 -15t5.5 -30q-3 -19 -10 -29q-4 -6 -7 -12t-4 -14q-2 -10 3 -18.5
t16 -12.5q12 -4 25.5 3t26.5 23.5t25 40.5t21 54q-23 57 -41 117.5t-38 116.5t-46 104t-64 78q-5 4 -5 8q-3 8 9 18q10 6 26 8q10 1 18.5 2t16.5 4q12 5 16 17q3 6 7 8q5 1 10 -8q22 -38 39 -80.5t31.5 -86.5t27.5 -88.5t28 -85.5q11 50 19 95.5t12 83.5q2 27 0.5 50.5
t-8.5 43.5q-9 26 -7 44q2 16 13 23.5t27 -1.5q15 -9 22 -25t9 -34z" />
    <glyph glyph-name="z" unicode="z" horiz-adv-x="317" 
d="M300 71q2 -5 0 -10.5t-7 -7.5q-136 -70 -271 -1q-13 7 -11 14l4 4q36 26 58.5 64.5t39 82.5t32 91t38.5 91q-61 6 -121 -15q-5 -2 -9 0.5t-6 8.5q-2 5 0.5 10.5t7.5 7.5q116 45 233 -12q13 -7 9 -14q0 -1 -3 -4q-36 -27 -58 -65.5t-38.5 -83.5t-32.5 -92t-40 -90
q80 -9 159 28q11 5 16 -7z" />
    <glyph glyph-name="nonbreakingspace" unicode="&#xa0;" horiz-adv-x="245" 
 />
    <glyph glyph-name="periodcentered" unicode="&#xb7;" horiz-adv-x="122" 
d="M92 357q5 -8 5.5 -17t1.5 -18q-1 -9 -1.5 -18t-5.5 -17q-4 -8 -12 -14t-19 -6q-10 0 -17.5 6t-12.5 14q-4 8 -5 17t-1 18t1 18t5 17q5 8 12.5 14t17.5 6q11 0 19 -6t12 -14z" />
    <glyph glyph-name="dieresis" unicode="&#xa8;" horiz-adv-x="243" 
d="M86 506q13 -12 15 -33q0 -21 -15 -34q-16 -13 -36 -11q-10 1 -14 5.5t-4 10.5t2 13.5t1 15.5q1 8 -1.5 15t-1.5 13q0 13 18 16q20 2 36 -11zM208 473q-1 -8 1 -15.5t2 -13.5q-2 -15 -19 -16q-19 -2 -35 11q-15 13 -15 34q2 21 15 33q16 13 35 11q10 -1 14 -5.5t5 -10.5
t-1.5 -13t-1.5 -15z" />
    <glyph glyph-name="dotaccent" unicode="&#x2d9;" horiz-adv-x="116" 
d="M84 506q4 -7 5 -14.5t1 -15.5t-1 -16t-5 -15q-4 -8 -10.5 -13t-16.5 -5q-9 0 -15.5 5t-10.5 13q-4 7 -5 15t-1 16t1 15.5t5 14.5t10.5 12.5t15.5 5.5q10 0 16.5 -5.5t10.5 -12.5z" />
    <glyph glyph-name="grave" unicode="`" horiz-adv-x="145" 
d="M129 454q2 -6 -3 -12.5t-13 -11.5q-11 -5 -23 -2t-15 13q-9 21 -15.5 43.5t-13 43.5t-15.5 39.5t-23 30.5q0 1 -1 2q-1 3 1 8t5 7q5 2 9 -2q9 -6 14 -4q6 2 11.5 6t10.5 9q13 11 22 10q5 -1 6.5 -5.5t3.5 -15.5q3 -26 6.5 -56t10.5 -53q6 -23 14 -36t8 -14z" />
    <glyph glyph-name="acute" unicode="&#xb4;" horiz-adv-x="144" 
d="M132 615q3 -2 4.5 -7t0.5 -8q-14 -13 -23 -31.5t-16 -39.5t-13 -44t-15 -44q-4 -10 -15.5 -13t-22.5 2q-9 5 -13.5 11.5t-2.5 12.5q0 1 8 14t14 36q7 23 10 53t7 56q1 20 9 21q10 1 22 -10q6 -5 11.5 -9t10.5 -6t14 4q5 4 10 2z" />
    <glyph glyph-name="circumflex" unicode="&#x2c6;" horiz-adv-x="237" 
d="M213 447q4 -6 0 -11.5t-13 -8.5q-11 -4 -23.5 -1t-17.5 11q-20 32 -29.5 66.5t-22.5 69.5q-7 -19 -13 -38t-13.5 -37.5t-17 -35t-24.5 -31.5q-7 -6 -13 -4q-5 2 -9 8t-1 12l8 8q16 15 26.5 33t17 38.5t12 42.5t12.5 45q4 9 7 9q4 0 9 -6q6 -10 12 -10t11.5 2.5t12.5 6.5
q14 8 24 7q5 -2 6 -6t0 -15q-1 -25 1 -53t10 -51q7 -23 17.5 -36.5t10.5 -14.5z" />
    <glyph glyph-name="caron" unicode="&#x2c7;" horiz-adv-x="235" 
d="M210 622q5 -2 9 -8t0 -12q-1 -2 -7 -8q-17 -15 -27 -33t-16.5 -38.5t-12.5 -43t-13 -44.5q-2 -8 -7 -8q-3 -2 -8 5l-6 7.5t-7 2.5q-9 0 -23 -9q-14 -8 -24 -7q-5 2 -6 6t0 15q1 26 -1 54t-10 51q-7 23 -17.5 36t-11.5 14q-3 6 1 11.5t13 8.5q11 4 23.5 1t17.5 -11
q20 -32 29.5 -66.5t22.5 -69.5q13 38 26 75.5t42 66.5q7 6 13 4z" />
    <glyph glyph-name="breve" unicode="&#x2d8;" horiz-adv-x="294" 
d="M269 583q5 -1 6.5 -4.5t-0.5 -5.5q-23 -25 -32 -48t-16 -45q-5 -11 -10 -20t-14 -17q-9 -7 -21.5 -11.5t-27.5 -4.5q-31 0 -54 15q-11 8 -17.5 17.5t-11.5 20.5q-9 23 -19 45.5t-33 47.5q-2 2 -1.5 5t5.5 5q6 2 11.5 -0.5t7.5 -4.5q19 -28 41.5 -41t62.5 -14
q42 1 64.5 14t41.5 41q2 2 7 4.5t10 0.5z" />
    <glyph glyph-name="ring" unicode="&#x2da;" horiz-adv-x="209" 
d="M172 610q9 -17 11 -34t2 -34q-2 -18 -4 -36.5t-13 -36.5q-10 -17 -28.5 -30t-42.5 -11q-21 0 -37 11.5t-24 27.5t-10 33t-2 34q2 18 4 37t12 36t27.5 30t41.5 12q22 0 38.5 -12t24.5 -27zM106 458q13 0 17.5 17.5t3.5 62.5q1 45 -3.5 62.5t-17.5 17.5q-17 0 -21 -22.5
t-4 -57.5t4 -57.5t21 -22.5z" />
    <glyph glyph-name="tilde" unicode="&#x2dc;" 
d="M319 555q5 -2 4 -5.5t-5 -7.5q-23 -22 -30 -38.5t-14 -30.5q-6 -13 -16 -21.5t-28 -9.5q-11 -1 -25.5 1.5t-40.5 10.5q-15 5 -29.5 8t-29.5 4t-28.5 -10.5t-27.5 -28.5q-3 -4 -10 -7t-12 -2q-6 1 -5 5t5 8q13 13 20.5 24.5t11.5 22t6 19.5t5 17q5 17 17 27t36 12
q14 1 33 -1.5t47 -10.5q15 -5 28 -8t24 -4q26 -2 41 17q3 4 10 7t13 2z" />
    <glyph glyph-name="macron" unicode="&#xaf;" horiz-adv-x="300" 
d="M248 447q0 -3 4 -6t8.5 -5.5t7.5 -4t0 -1.5q-118 -6 -236 0q-3 0 -0.5 1.5t7 4t9 5.5t4.5 6t-4 6t-8.5 5.5t-7.5 4t0 1.5q118 6 236 0q3 0 0 -1.5t-7.5 -4t-8.5 -5.5t-4 -6z" />
    <glyph glyph-name="cedilla" unicode="&#xb8;" horiz-adv-x="181" 
d="M145 -47q17 -25 23 -60q2 -14 0 -29.5t-11 -32.5q-8 -15 -24.5 -27.5t-39.5 -13.5q-29 0 -50 20t-27 45q-3 7 -1 16q3 12 11 9q6 -1 10 -13q4 -19 14.5 -31t22.5 -14q10 -1 16.5 5t10.5 16t5.5 23t1.5 26q0 14 -2.5 28t-7 25.5t-12 18t-19.5 5.5q-1 46 -6 95q-1 6 2 11
t8 6q11 2 13 -14l2 -76q21 1 35.5 -11t24.5 -27z" />
    <glyph glyph-name="ogonek" unicode="&#x2db;" horiz-adv-x="196" 
d="M153 -162q8 2 15 -4.5t9 -14.5q5 -19 -15 -45q-10 -12 -24.5 -22t-33.5 -12q-27 -2 -46 11t-30 30q-11 18 -13 36.5t1 38.5t11 40t20 48q14 27 33 61t53 60q5 7 15 3q5 -2 8 -5.5t2 -6.5q0 -1 -7 -6q-30 -26 -43 -57.5t-20 -59.5q-6 -29 -8.5 -52t-3.5 -44q-1 -32 6 -50
t24 -16q12 1 18 10t9 22q4 12 8 22.5t12 12.5z" />
    <glyph glyph-name="germandbls" unicode="&#xdf;" horiz-adv-x="377" 
d="M311 265q16 -20 26 -41t14 -47q5 -34 -3 -74t-32 -78q-12 -19 -27.5 -35.5t-34.5 -28.5t-41 -17.5t-46 -1.5q-20 2 -37.5 13.5t-28.5 28.5q-20 31 -14 72q5 29 18 40.5t27 8.5q10 -2 17 -13t6 -31q-1 -7 -3 -14t-7 -18q-5 -8 -6.5 -14t-2.5 -12q-2 -24 23 -30
q26 -5 46.5 8.5t33.5 38.5q26 50 21 129q-3 74 -28 118t-67 44h-12q-5 0 -7.5 4.5t-3.5 10.5q0 5 3 9.5t8 5.5q39 2 62.5 41.5t26.5 105.5q1 30 -3.5 56.5t-14.5 45.5t-25 29t-35 7q-23 -3 -43 -20.5t-33 -43.5t-17 -57t0 -66q27 -210 -26 -423q-4 -13 -15 -5q-5 4 -7.5 10
t-0.5 11q60 199 30 399q-8 44 0.5 85.5t30.5 73.5q21 32 50.5 50.5t55.5 18.5q38 2 68.5 -19t50.5 -50q19 -30 26 -62t2 -61q-4 -24 -13 -43.5t-23 -36.5q-28 -36 -71 -58q26 -11 46.5 -27.5t35.5 -36.5z" />
    <glyph glyph-name="thorn" unicode="&#xfe;" horiz-adv-x="355" 
d="M227 455q30 -2 53.5 -22t39.5 -47q31 -56 31 -131q2 -80 -33 -148q-17 -34 -43.5 -59t-59.5 -25q-26 0 -43.5 13.5t-25.5 32.5q-5 -119 -15 -236q-1 -10 -19 -7t-38 19q-20 14 -34 33.5t-12 27.5q85 361 0 723q-4 17 8 27q8 8 27 15q10 2 19.5 5.5t15.5 6.5q11 8 16 19
q4 9 7 10q4 2 7 -1t3 -8q7 -78 11 -154.5t6 -153.5q15 33 34.5 47.5t44.5 12.5zM195 54q18 0 31 13.5t22 38t13.5 58.5t4.5 74q0 38 -4 72t-12 59.5t-19 40t-25 14.5q-15 0 -30.5 -18t-26.5 -48q2 -64 1 -128t-3 -128q9 -25 22 -36t26 -12z" />
    <glyph glyph-name="Thorn" unicode="&#xde;" horiz-adv-x="467" 
d="M303 655q44 -4 76 -29.5t49 -59.5q18 -35 22 -74t1 -82q-4 -45 -13.5 -84.5t-30.5 -74.5q-20 -35 -51.5 -60t-73.5 -26q-41 -1 -71.5 19t-48.5 52q-3 -48 -9.5 -95t-15.5 -95q-2 -9 -21 -8t-40 11q-20 9 -34.5 22.5t-10.5 21.5q108 269 -1 536q-5 16 5 22q5 2 13 4t16 2
q11 0 21 1t19 4q9 4 15 16q1 6 7 8q4 1 7 -2.5t4 -7.5q13 -74 21 -147q11 38 27.5 63.5t36.5 40.5q19 14 40 19t41 3zM361 413q2 44 -1 80t-13 65q-9 28 -26 44.5t-40 17.5q-21 1 -41 -12.5t-35 -37.5q-16 -24 -25.5 -56t-14.5 -70q2 -38 2.5 -75t-1.5 -75
q11 -38 35.5 -64.5t56.5 -26.5q25 -1 44 15.5t32 44.5q13 29 19 66.5t8 83.5z" />
    <glyph glyph-name="Eng" unicode="&#x14a;" horiz-adv-x="439" 
d="M409 637q5 -4 6 -9.5t0 -9.5q-73 -284 -25 -570q5 -32 2 -66.5t-17 -67.5q-13 -32 -36 -59t-55 -36q-23 -7 -42 -1.5t-32 18.5t-20 32.5t-6 40.5q2 32 14.5 47.5t25.5 16.5q11 1 18.5 -8.5t8.5 -29.5q1 -10 -1.5 -18t-4.5 -16q-3 -8 -5 -15t-2 -15q0 -11 7 -17.5t18 -4.5
q21 5 31 36.5t6 76.5l-6 102q-31 65 -56 141.5t-51 150t-57.5 138.5t-74.5 107q25 -132 29.5 -262.5t-9.5 -262.5q-1 -5 -5.5 -6t-9.5 1q-11 7 -8 17q36 274 -35 543q-5 14 9 25q9 8 28 13q11 3 21 5.5t18 7.5q5 3 10 7.5t7 11.5q4 7 8 8q4 2 12 -12q28 -50 49.5 -108
t40 -119t35 -123t34.5 -119q-2 115 3.5 229t16.5 229q1 18 14 13q10 -5 24 -22q8 -9 17 -18.5t17 -15.5q11 -8 20 -5q5 2 8 -1z" />
    <glyph glyph-name="Oslash" unicode="&#xd8;" horiz-adv-x="411" 
d="M338 649q18 -27 28 -59t15 -66q4 -35 4 -70.5t-1 -73.5q-2 -35 -3 -67.5t-5 -64.5t-10.5 -62t-18.5 -58q-11 -28 -27.5 -52t-37.5 -41.5t-46 -26.5t-52 -7t-50 13t-42 30q-5 -10 -13 -13t-15 0q-15 5 -12 21q0 2 5 10l10 15q-16 26 -25 57.5t-12 65.5q-4 33 -4 68t1 73
q2 36 3 68.5t4 64.5q4 32 10.5 61.5t17.5 57.5q20 56 62.5 93t96.5 35q27 -2 50 -12.5t41 -27.5q6 7 13 8.5t13 -0.5t10 -8.5t2 -14.5q0 -1 -1 -2.5t-5 -6.5zM279 134q11 45 13.5 103t3.5 125q0 54 -2 102.5t-8 89.5q-23 -51 -40.5 -105.5t-34 -110t-34.5 -111t-42 -106.5
q10 -39 28 -62.5t42 -23.5q26 0 45 27t29 72zM116 362q0 -51 1.5 -97.5t6.5 -85.5q22 51 39.5 105.5t34 110t34.5 110t42 105.5q-11 34 -28.5 55t-40.5 20q-26 1 -45 -26t-29 -71q-11 -45 -13 -102.5t-2 -123.5z" />
    <glyph glyph-name="AE" unicode="&#xc6;" horiz-adv-x="587" 
d="M548 103q5 2 10.5 -0.5t7.5 -7.5q3 -6 1.5 -12.5t-6.5 -8.5q-146 -68 -291 -63q-4 0 -7.5 5.5t-3.5 18.5q4 75 5.5 150t1.5 150q-20 0 -39.5 0.5t-39.5 0.5q-24 -77 -59 -144.5t-94 -121.5q-6 -4 -14 -1q-5 3 -8 8.5t1 12.5l2 4t5 5q60 52 94.5 120.5t58 146.5t41.5 162
t45 168q2 5 4.5 10t6.5 5q142 5 280 -58q5 -3 6.5 -9t-0.5 -11q-3 -6 -8 -9t-10 -1q-87 37 -174 48q-14 -132 -15 -265q28 -1 55.5 -2t56.5 -3q4 0 6.5 -5t1.5 -11q0 -15 -9 -15q-28 1 -55.5 1h-56.5q0 -161 15 -320q47 5 93 18.5t92 33.5zM197 371h34.5t34.5 1
q0 61 -1 121.5t-3 121.5q-18 -62 -33 -123t-32 -121z" />
    <glyph glyph-name="OE" unicode="&#x152;" horiz-adv-x="635" 
d="M598 104q5 2 10.5 -1t8.5 -8q7 -14 -4 -20q-143 -58 -289 -64q-4 0 -8 3.5t-4 11.5t-0.5 16.5t-0.5 16.5q-27 -29 -63 -42.5t-77 -7.5q-52 8 -84 42t-43 79q-13 46 -10 98.5t5 112.5q3 70 3.5 131.5t18.5 113.5q16 51 54 88t93 42q30 4 56.5 -3.5t47.5 -24.5v7
q0 6 4 10.5t8 4.5q69 -3 138 -17.5t138 -41.5q5 -2 6.5 -8t-1.5 -11q-7 -14 -19 -11q-86 32 -172 45q-21 -129 -24 -261l56 -2t56 -3q10 0 8 -16q0 -14 -9 -14q-28 0 -55.5 0.5t-55.5 0.5q-2 -160 24 -316q47 7 92.5 19.5t91.5 29.5zM281 128q14 44 20 103.5t6 130.5
q0 70 -6 129t-20 103q-14 43 -36.5 66t-48.5 20t-42 -30t-22 -70q-6 -44 -5 -99t0 -119q1 -65 0 -120t6 -99q6 -44 21.5 -71.5t41.5 -30.5t48.5 20.5t36.5 66.5z" />
    <glyph glyph-name="eth" unicode="&#xf0;" horiz-adv-x="361" 
d="M332 338q2 -60 0.5 -114t-20.5 -105q-9 -24 -22.5 -46.5t-32 -39t-42.5 -26t-52 -7.5h-1q-43 2 -75 28.5t-49 60.5q-18 35 -21.5 72t2.5 75q12 77 52 132q20 26 48.5 45.5t64.5 18.5q34 0 61 -21q-1 57 -6.5 105t-16.5 85q-8 -8 -15 -16.5t-14 -17.5q-2 -4 -6 -4
q-5 0 -10 7q-5 8 -5 17q0 3 2 9q8 11 16 21t17 20q-13 23 -29.5 35.5t-36.5 9.5q-5 -1 -8.5 3.5t-4.5 12.5q-1 7 2.5 12.5t8.5 6.5q32 5 59.5 -6t49.5 -33q8 7 17 13.5t19 12.5q2 2 7 1q7 -3 12 -12q3 -9 3 -18q-2 -6 -4 -7q-8 -5 -15 -10t-15 -10q20 -30 31.5 -66.5
t17.5 -75.5q6 -40 7.5 -81t3.5 -87zM226 85q8 26 11 60.5t1 74.5q-3 81 -19.5 131t-43.5 51q-28 -1 -44 -51.5t-20 -129.5q-2 -40 0 -74t10 -60t21.5 -41.5t30.5 -15.5q17 -1 31 14t22 41z" />
    <glyph glyph-name="exclam" unicode="!" horiz-adv-x="145" 
d="M116 642q5 -10 6.5 -19.5t1.5 -14.5q-1 -3 -3 -20t-5 -43.5t-6 -61t-5 -73.5q-3 -38 -4.5 -78t-2.5 -73t-1.5 -56t-1.5 -27q-1 -14 -8 -23t-16 -8q-8 1 -14 10t-7 21q-1 4 -2 27t-1.5 56.5t-2 73.5t-4.5 78q-2 39 -5 74t-6 61.5t-5 42.5t-3 19q-1 8 2.5 21t8.5 24
q10 23 25 28q9 2 17.5 -2.5t16.5 -12.5l9 -9t8 -6q5 -2 8 -9zM72 84q9 -1 17 2t14.5 5.5t10.5 1.5t5 -10q0 -8 -3 -25.5t-9 -36.5q-6 -18 -15 -32.5t-20 -13.5q-10 0 -18.5 13.5t-14.5 31.5t-9.5 35.5t-2.5 26.5t5 10t10 -1t14 -4.5t16 -2.5z" />
    <glyph glyph-name="at" unicode="@" horiz-adv-x="443" 
d="M403 467q18 -43 19.5 -91.5t-0.5 -101.5q-2 -36 -4 -66.5t-9 -53.5q-7 -24 -20 -40t-33 -20q-23 -5 -40.5 11t-26.5 45q-11 -35 -26.5 -49t-38.5 -14q-45 1 -67.5 41t-20.5 104q0 33 6.5 62t19 51t30.5 34.5t41 12.5q36 0 49 -32v14q1 13 7 13q5 0 14 -7q5 -5 10 -8t9 -3
q4 -1 10 5q2 5 5 5q4 -2 4 -11q-4 -38 -5 -77t0 -77q2 -52 11.5 -69t20.5 -15q20 4 25.5 41.5t6.5 100.5q2 54 0 99.5t-19 83.5q-15 37 -45.5 62.5t-73.5 27.5q-44 4 -76 -20.5t-50 -65.5t-22.5 -93t-5.5 -114q1 -60 5.5 -110.5t21.5 -89.5t45 -63t64 -22q5 0 8.5 -5
t3.5 -12q1 -8 -2.5 -13t-8.5 -5q-29 -2 -56 5t-50 21t-42 33.5t-32 41.5q-28 45 -34.5 96t-4.5 104q2 30 3.5 58t6.5 57q5 28 13 56t22 54t33 48t44 39q24 17 53.5 25t61.5 6q52 -4 87.5 -35.5t52.5 -73.5zM240 110q12 0 25 16t19 44q-2 11 -3 21t-1 21q-1 31 -0.5 62
t1.5 62q-6 19 -15.5 27t-18.5 8q-24 1 -37.5 -34.5t-13.5 -95.5q0 -28 3 -52t9 -42t14 -27.5t18 -9.5z" />
    <glyph glyph-name="numbersign" unicode="#" horiz-adv-x="419" 
d="M322 409q-11 -66 -15 -133q20 1 40.5 3t41.5 4q4 1 7 -5t4 -14t-1 -14.5t-6 -7.5q-45 -11 -90 -15q-2 -54 -3 -107.5t-1 -108.5q-1 -12 -14 -19t-30 -9q-14 -2 -27.5 1t-15.5 11q8 57 13 113.5t10 113.5q-19 -1 -38 -0.5t-38 1.5q-8 -54 -17.5 -107t-23.5 -105
q-4 -11 -18 -12.5t-32 4.5q-14 5 -26.5 13t-11.5 16q21 48 35.5 97.5t24.5 100.5q-30 4 -64 12q-4 1 -6 7.5t-1 14.5t4 14t7 5q17 -2 34 -3.5t34 -2.5q5 32 8.5 65.5t5.5 67.5q-21 -2 -41.5 -4.5t-41.5 -5.5q-4 -1 -7 4.5t-5 13.5q-1 8 1 15t6 8q45 12 90 18q2 48 2.5 97
t1.5 99q0 11 11.5 18.5t27.5 9.5q6 1 13.5 0.5t14.5 -2t12.5 -5t6.5 -9.5q-7 -51 -11 -101t-9 -101h38t39 -2q7 49 16 97t22 96q3 11 16 12.5t29 -3.5l12.5 -5t14 -7.5t11 -9.5t3.5 -11q-19 -43 -32 -87t-23 -90q17 -3 32.5 -6t32.5 -8q5 -1 6.5 -8t0.5 -15q-4 -19 -12 -18z
M254 413q-19 1 -37.5 1.5t-37.5 -0.5q-3 -35 -6 -70.5t-7 -70.5q36 -2 73 0z" />
    <glyph glyph-name="dollar" unicode="$" horiz-adv-x="374" 
d="M350 217q5 -32 0 -65t-20 -66q-15 -32 -41 -61t-61 -42v-10t1 -10q1 -10 -6 -16.5t-15 -7.5q-8 0 -13.5 5t-5.5 16v14h-15q-34 2 -60.5 18t-46 40.5t-32.5 56.5t-20 65q-2 10 -2.5 13.5t-0.5 5.5q1 5 5 8t9 1q7 -2 10 -15q6 -27 16.5 -54t26.5 -49t36 -36.5t46 -17.5h14
t14 3q-1 71 -1 141.5v141.5q-32 32 -54.5 58t-37.5 49t-22.5 46.5t-10.5 53.5q-4 33 1.5 65.5t22.5 59.5q16 27 42 46t60 18v25q0 11 6 16t13 4q8 0 15 -6.5t6 -16.5q-1 -6 -1 -11.5v-10.5q57 -9 94 -55q28 -37 22 -73q-4 -20 -15 -29t-22 -5q-14 5 -23 27t-16 45
q-6 19 -15.5 35t-26.5 18q-3 -59 -4.5 -117.5t-2.5 -118.5q32 -33 55.5 -57t38.5 -46q16 -21 24.5 -43.5t12.5 -55.5zM225 34q21 20 29.5 50t6.5 65q-2 37 -13 63.5t-29 49.5q1 -114 6 -228zM188 456q0 48 0.5 96.5t0.5 97.5q-17 -11 -25.5 -36t-7.5 -60q2 -32 10 -55.5
t22 -42.5z" />
    <glyph glyph-name="percent" unicode="%" horiz-adv-x="458" 
d="M394 631q-50 -66 -80 -143t-55 -159t-51.5 -163.5t-68.5 -156.5q-5 -8 -17.5 -11.5t-28.5 0.5q-13 4 -24.5 11.5t-9.5 15.5q0 1 1.5 3.5t6.5 9.5q49 65 79 142t54.5 158.5t50.5 163t68 155.5q5 8 16 12.5t25 0.5q15 -4 29 -13t12 -17zM208 478q0 -29 -7 -53.5t-20 -42.5
t-31 -28t-39 -10q-18 -1 -34 7t-28 20q-26 27 -33 65q-4 23 -1 45t14 42t29.5 36t43.5 21q23 5 42.5 -0.5t33.5 -20t22 -35.5t8 -46zM443 238q3 -23 0 -45t-14 -42t-30 -35.5t-44 -21.5q-22 -5 -40.5 1.5t-32.5 21t-22 36t-8 46.5q0 28 7 52.5t19.5 42.5t30.5 27.5t39 9.5
q19 0 34.5 -7.5t28.5 -20.5q24 -25 32 -65zM79 457q5 -39 14.5 -62t23.5 -23q14 1 22 26.5t5 67.5q-2 42 -14 65t-29 19t-22 -29.5t0 -63.5zM358 125q17 4 22 29.5t0 64.5q-4 38 -13.5 61t-23.5 23q-14 -1 -22 -25.5t-6 -66.5q2 -43 14 -66.5t29 -19.5z" />
    <glyph glyph-name="asciicircum" unicode="^" horiz-adv-x="292" 
d="M273 237q3 -7 -12 -17t-32 -15t-29.5 -2t-16.5 13q-17 41 -27 83.5t-21 85.5q-15 -47 -32 -91t-49 -80q-4 -5 -10 -7.5t-15 1.5q-7 2 -12.5 8t-3.5 10q28 23 44 52.5t25.5 63t16.5 69.5t16 73q3 10 13 10q12 1 25 -10q7 -5 12.5 -7.5t11.5 -3.5q8 -1 15 7q5 5 9 5
q5 -1 6.5 -6t1.5 -11q2 -33 5 -64.5t9 -61t18 -56t32 -49.5z" />
    <glyph glyph-name="ampersand" unicode="&#x26;" horiz-adv-x="467" 
d="M424 369q12 -2 21.5 -16.5t9.5 -39.5q1 -32 -15.5 -56t-45.5 -29q-5 -1 -10 -1.5t-10 -0.5q4 -50 -2.5 -94t-29.5 -79q-22 -35 -59.5 -55.5t-85.5 -14.5q-50 5 -86.5 27t-56.5 51q-21 29 -25.5 60t3.5 61q12 44 38 84q14 18 29.5 32.5t35.5 23.5q-31 24 -52.5 60
t-32.5 78q-7 30 -3 59.5t22 56.5q17 26 49 46.5t75 25.5q33 4 60.5 -3t46.5 -21q19 -13 28 -30t7 -35q-2 -19 -13 -35t-25 -14q-14 1 -23 17t-17 37q-8 20 -21.5 38t-41.5 15q-36 -4 -49 -40t-6 -89q8 -70 22 -112t35 -43q5 0 8 -5t3 -10q0 -6 -3 -10.5t-8 -4.5
q-30 0 -48.5 -38.5t-26.5 -101.5q-8 -64 11 -103q11 -20 28.5 -33.5t41.5 -15.5q30 -2 54 13t38 44q15 29 20.5 67.5t3.5 85.5q-13 -1 -25 -1.5t-24 -0.5q-9 0 -9 17q0 8 2.5 13.5t6.5 5.5q31 0 61.5 1.5t61.5 3.5q22 1 20 21q0 7 -2.5 13t-4.5 13q-2 6 -4 13t-2 16
q1 18 8 26.5t17 6.5z" />
    <glyph glyph-name="asterisk" unicode="*" horiz-adv-x="268" 
d="M239 364q6 -4 8 -11q2 -3 0 -8t-6.5 -9t-9.5 -8t-10.5 -8.5t-7.5 -10.5q-4 -4 -2 -13q2 -5 1.5 -12t-5.5 -8q-6 -1 -10 3q-21 23 -36 48t-28 51q-14 -26 -29.5 -51t-37.5 -46q-3 -5 -9 -3q-5 1 -6 5.5t1 9.5q0 2 0.5 2.5t0.5 2.5q2 9 -1 13q-3 6 -8.5 10.5t-10.5 8.5
q-11 9 -15 17q-1 3 -1 10q1 4 9 9q18 11 33 25t29 31q-14 7 -28.5 13.5t-28.5 11.5q-8 3 -8 10q-1 5 1.5 7t3.5 2q9 6 8 15t-2.5 18.5t-3.5 19.5q-2 7 -1.5 13.5t5.5 8.5q3 2 9 -1q18 -8 34.5 -18t30.5 -21q-5 51 -15 100q-1 5 2 10t8 5q5 1 11 -1.5t11 -6.5q7 -5 12.5 -8
t11.5 -4q7 0 14 10q2 3 4 4t3 1q4 0 6.5 -4t2.5 -8q-10 -48 -15 -98q15 11 31 21t34 18q5 3 9 1q5 -2 5.5 -8.5t-1.5 -13.5q-2 -10 -3.5 -19.5t-2.5 -18.5t8 -15q1 0 3.5 -2t2.5 -7q-2 -8 -9 -10q-15 -6 -30 -12.5t-31 -14.5q14 -16 28 -30.5t31 -25.5z" />
    <glyph glyph-name="parenleft" unicode="(" horiz-adv-x="246" 
d="M225 -2q5 5 9 4.5t5 -5.5q2 -6 -1 -14.5t-8 -13.5q-29 -30 -54.5 -37t-47.5 2t-40 30.5t-30 48.5q-13 28 -21 58t-13 60q-5 29 -6.5 58t-0.5 59q1 37 3 70t7 68q5 34 12.5 68t20.5 66q12 31 29 55.5t39 35.5t47.5 5t54.5 -36q5 -5 8 -13.5t1 -13.5q-1 -6 -5 -7t-9 4
q-29 29 -53 14t-40 -58t-22 -106t-7 -134q1 -69 7 -128.5t22 -100.5q8 -20 18 -34t22 -20t25.5 -2.5t27.5 17.5z" />
    <glyph glyph-name="parenright" unicode=")" horiz-adv-x="244" 
d="M228 248q0 -30 -1.5 -59t-6.5 -58q-5 -30 -12.5 -60t-21.5 -58q-12 -27 -30 -48.5t-40 -30.5t-47.5 -2t-53.5 37q-5 5 -8 13.5t-2 14.5q2 5 6 5.5t9 -4.5q14 -14 27.5 -17.5t25.5 2.5t21.5 20t17.5 34q16 41 22.5 100.5t7.5 128.5q-1 71 -7 134t-23 106q-15 43 -39 58
t-53 -14q-5 -5 -9 -4t-6 7q-1 5 2 13.5t8 13.5q28 30 54 36t48 -5t39 -35.5t29 -55.5q13 -32 20.5 -66t12.5 -68q5 -35 6.5 -68t3.5 -70z" />
    <glyph glyph-name="underscore" unicode="_" horiz-adv-x="303" 
d="M250 -93q0 -4 4.5 -8t9 -7t7.5 -4.5t0 -1.5q-120 -9 -240 0q-3 0 0 1.5t7.5 4.5t9 7t4.5 8t-4 7.5t-8.5 6.5t-8 5t-0.5 2q120 9 240 0q3 0 0 -2t-8 -5t-9 -6.5t-4 -7.5z" />
    <glyph glyph-name="plus" unicode="+" horiz-adv-x="209" 
d="M189 365q5 -1 7 -7t2 -14q0 -9 -2 -15t-7 -6q-12 -2 -23.5 -2.5t-23.5 -1.5q1 -51 9 -102q2 -10 -14 -17.5t-35 -6.5q-18 0 -31 6.5t-11 17.5q3 26 5 51t3 51q-12 1 -24 1.5t-24 2.5q-4 0 -6 6t-2 15q0 8 2 14t6 7q24 3 48 3q-1 52 -9 103q-2 11 1 15t9 5q6 2 12 -0.5
t12 -5.5q7 -5 13.5 -8t12.5 -4q8 0 15 8q5 5 9 5q5 -1 7 -6t1 -9q-8 -51 -9 -103q23 0 47 -3z" />
    <glyph glyph-name="braceleft" unicode="{" horiz-adv-x="193" 
d="M167 -10q5 5 9 6.5t5 -3.5t-2 -14t-8 -15q-15 -20 -29 -27t-26 -4.5t-22.5 12.5t-17.5 25q-16 31 -22.5 75t-4.5 90q0 19 -1 39.5t-4 38t-9.5 29t-16.5 11.5q-9 0 -9 13q0 11 9 13q10 0 16.5 11t9.5 28.5t4 38t1 39.5q-2 47 4.5 91t22.5 75q7 15 17.5 25t22.5 12.5t26 -5
t29 -26.5q5 -6 8 -15t2 -14t-5 -3.5t-9 6.5q-12 14 -20.5 -3.5t-10.5 -59.5q-3 -50 -10 -85t-17 -60q-10 -24 -21.5 -38t-23.5 -13q-11 -1 -16 -6t-5 -11q0 -7 5 -12t16 -5q12 0 23.5 -13.5t21.5 -37.5q10 -25 17 -60t10 -85q2 -42 10.5 -59.5t20.5 -3.5z" />
    <glyph glyph-name="braceright" unicode="}" horiz-adv-x="192" 
d="M175 263q9 -2 9 -13q0 -13 -9 -13q-10 0 -16.5 -11.5t-9.5 -29t-4 -38t-1 -39.5q2 -47 -4.5 -90.5t-22.5 -74.5q-8 -15 -18 -25t-22 -12.5t-26 4.5t-29 27q-5 6 -8 14.5t-2 13.5q1 6 5 4.5t9 -7.5q12 -14 20.5 3.5t10.5 60.5q3 49 10 84.5t17 60.5q10 24 21.5 37.5
t23.5 13.5q11 0 16 5t5 12q0 6 -5 11t-16 6q-12 -1 -23.5 12.5t-21.5 38.5t-17 60t-10 84q-2 43 -10.5 60.5t-20.5 3.5q-5 -6 -9 -7t-5 4t2 13.5t8 15.5q15 19 29 26t26 5t22 -12t18 -25q16 -31 22.5 -75t4.5 -91q0 -19 1 -39.5t4 -38t9.5 -28.5t16.5 -11z" />
    <glyph glyph-name="bracketleft" unicode="[" horiz-adv-x="263" 
d="M254 -4q2 -6 -1 -15t-8 -14q-106 -119 -212 0q-5 5 -8 13t-2 13q54 282 1 565q-2 8 1 17t8 14q100 112 199 13q5 -5 8 -13t2 -14q-4 -14 -14 -4q-50 45 -97 41q3 -335 0 -669q54 -5 109 53q5 5 9 5t5 -5z" />
    <glyph glyph-name="bracketright" unicode="]" horiz-adv-x="264" 
d="M240 -7q2 -5 -1.5 -13.5t-8.5 -13.5q-106 -118 -211 1q-5 5 -8 14t-2 15q3 12 14 0q56 -57 110 -53q-5 334 0 669q-48 4 -98 -41q-5 -5 -9 -4t-5 7t2 14.5t8 13.5q100 100 199 -13q5 -5 8 -13.5t2 -13.5q-54 -285 0 -569z" />
    <glyph glyph-name="backslash" unicode="\" horiz-adv-x="353" 
d="M347 65q2 -8 -9.5 -20.5t-24.5 -20.5q-16 -11 -28.5 -11t-17.5 7q-28 43 -49 94t-38 105.5t-33 109.5t-35 104.5t-43 91.5t-57 70l-7 6q-1 3 2.5 9t9.5 12.5t13.5 13t14.5 11.5q15 9 25.5 8t15.5 -9q28 -43 48.5 -94t37.5 -105t33 -108.5t34.5 -104t42.5 -91.5t57 -70z
" />
    <glyph glyph-name="bar" unicode="|" horiz-adv-x="136" 
d="M112 542q5 -10 6.5 -19t1.5 -14q-1 -3 -4 -25.5t-6 -58t-6 -82.5t-4 -100q-2 -51 -2.5 -104.5t-0.5 -97.5v-74t-1 -34q-2 -16 -10 -29.5t-19 -11.5q-10 1 -17 14t-9 27q-1 4 -1 34.5v75t-0.5 98t-2.5 104.5q-2 53 -5 100t-6 82.5t-5.5 57t-3.5 24.5q-1 8 2.5 20.5
t8.5 23.5t11.5 18t13.5 9q9 2 17.5 -2.5t16.5 -12.5q5 -5 9 -8.5t8 -5.5q5 -2 8 -9z" />
    <glyph glyph-name="semicolon" unicode=";" horiz-adv-x="133" 
d="M111 88q3 -31 -2 -66t-17 -66q-6 -15 -13.5 -26.5t-16.5 -15t-19.5 1t-21.5 21.5q-5 7 -8.5 17t-2.5 15t4.5 3t8.5 -8q10 -14 18 -14.5t14 7.5t8.5 24t2.5 37q-7 1 -13 8t-10.5 16.5t-6.5 19.5t-2 19q1 20 12 31.5t26 13.5q15 1 27 -9q5 -5 8.5 -11t3.5 -15v-3zM108 387
q13 -34 10 -53q-2 -17 -15 -16.5t-30 2.5q-17 5 -29.5 10t-14.5 25q-1 9 2.5 23t9.5 26t14.5 20t18.5 5q11 -2 19.5 -14.5t14.5 -27.5z" />
    <glyph glyph-name="colon" unicode=":" horiz-adv-x="129" 
d="M36 314q-6 2 -9.5 6.5t-5.5 13.5q-1 9 1.5 22.5t8.5 27.5t14.5 25t18.5 10q11 1 19.5 -10t14.5 -25t8.5 -27.5t1.5 -22.5t-5 -13t-10 -7q-11 -4 -29 -4q-17 0 -28 4zM108 91q1 -9 -1.5 -23t-8.5 -28t-14.5 -24.5t-19.5 -10.5q-10 0 -18.5 11t-14.5 25t-8.5 27.5
t-1.5 22.5q2 9 5.5 13t9.5 6q13 5 28 5q16 0 29 -5q6 -2 10 -6t5 -13z" />
    <glyph glyph-name="quoteright" unicode="&#x2019;" horiz-adv-x="130" 
d="M106 602q5 -10 6.5 -20t-0.5 -19v-3q-5 -32 -8.5 -58.5t-14.5 -50.5q-9 -23 -27.5 -33.5t-41.5 3.5q-5 3 -7.5 9t-0.5 11q1 5 5 6.5t8 -0.5q20 -10 30.5 10.5t9.5 62.5q-13 4 -22 17.5t-11 30.5q-1 10 1.5 21t8 20t13.5 14.5t19 4.5t19 -8.5t13 -17.5z" />
    <glyph glyph-name="quotedblright" unicode="&#x201d;" horiz-adv-x="258" 
d="M78 624q22 4 36.5 -11.5t13.5 -38.5v-3q0 -42 -5.5 -72.5t-19.5 -50.5q-14 -19 -34.5 -25t-43.5 2q-12 3 -5 16t17 9q20 -5 34.5 12t13.5 58q-13 3 -22.5 16t-14.5 30q-5 19 2 36.5t28 21.5zM200 621q22 -5 28.5 -23t-1.5 -35v-3q-11 -32 -12 -58t-8 -47
q-6 -20 -22 -33.5t-39 -14.5q-5 0 -8.5 4t-3.5 11q0 6 3 10.5t8 4.5q20 2 26.5 22.5t5.5 60.5q-13 3 -22 18t-7 36q0 23 15.5 37.5t36.5 9.5z" />
    <glyph glyph-name="comma" unicode="," horiz-adv-x="131" 
d="M106 130q5 -10 6.5 -20.5t-0.5 -18.5v-3q-5 -32 -8.5 -59t-14.5 -50q-9 -23 -27.5 -34t-41.5 3q-5 3 -7.5 9.5t-0.5 11.5q1 5 5 6.5t8 -0.5q20 -10 30.5 10.5t9.5 62.5q-13 4 -22 17.5t-11 30.5q-1 10 1.5 21t8 20t13.5 14.5t19 4.5t19 -8.5t13 -17.5z" />
    <glyph glyph-name="period" unicode="." horiz-adv-x="123" 
d="M93 126q5 -8 5.5 -17.5t1.5 -17.5q-1 -9 -1.5 -18t-5.5 -17q-4 -8 -12 -14t-19 -6q-10 0 -17.5 6t-12.5 14q-4 8 -5 17t-1 18q0 8 1 17.5t5 17.5q5 8 12.5 14t17.5 5q11 1 19 -5t12 -14z" />
    <glyph glyph-name="less" unicode="&#x3c;" horiz-adv-x="251" 
d="M223 205q3 -8 3 -16t-4 -10q-35 -1 -63 9.5t-52.5 27.5t-45.5 36.5t-42 36.5q-6 6 -4 14q0 6 2 12.5t4 13.5q6 16 5 27q-1 10 -8 15q-4 3 -5 8q-1 7 8 14q19 16 40.5 31t44.5 26t49 17t56 3q7 -4 4 -23.5t-8 -37.5t-9.5 -29.5t-11.5 -14.5q-28 -11 -53.5 -28t-51.5 -33
q13 -13 27.5 -26t29.5 -24t31.5 -20t35.5 -13q13 -2 18 -16z" />
    <glyph glyph-name="greater" unicode="&#x3e;" horiz-adv-x="250" 
d="M232 371q-7 -6 -7 -15q-1 -11 5 -27q2 -7 4 -13.5t2 -12.5q0 -4 -0.5 -7.5t-3.5 -6.5q-21 -17 -42.5 -36.5t-46 -36.5t-52.5 -27.5t-62 -9.5q-4 2 -4 10t3 16t7.5 11.5t9.5 4.5q38 8 67.5 32.5t57.5 50.5q-26 16 -51.5 33t-53.5 28q-7 3 -12 14.5t-10 29.5t-8 37.5
t5 23.5q30 3 56 -3t49 -17t44 -26t41 -31q4 -3 6.5 -6.5t0.5 -7.5q0 -3 -5 -8z" />
    <glyph glyph-name="slash" unicode="/" horiz-adv-x="354" 
d="M308 647q15 -9 28.5 -24.5t11.5 -21.5q0 -1 -6 -6q-33 -28 -57.5 -70t-43.5 -91.5t-35 -104.5t-33 -109.5t-37.5 -105.5t-48.5 -94q-5 -7 -18 -7t-29 11q-13 8 -24.5 20.5t-9.5 20.5l8 8q33 28 57 70t42.5 91.5t34.5 104t33 108.5t37.5 105t48.5 94q5 8 15.5 9t25.5 -8z
" />
    <glyph glyph-name="question" unicode="?" horiz-adv-x="289" 
d="M125 87q18 -3 30.5 -18t14.5 -38q0 -11 -3.5 -21.5t-10 -18t-15.5 -11.5t-19 -2q-21 4 -33.5 25.5t-10.5 42.5q2 22 16 32.5t31 8.5zM248 620q19 -32 25.5 -63.5t1.5 -58.5q-3 -21 -10 -36.5t-16 -30.5q-8 -14 -18 -29t-21 -32q-22 -37 -40 -87.5t-19 -115.5
q0 -10 -8.5 -16t-17.5 -4q-8 2 -14.5 8t-5.5 17q2 57 13.5 99t24.5 84t24 84t13 102q2 57 -5.5 86t-30.5 29q-20 -2 -31 -21.5t-18 -42.5t-15.5 -42t-22.5 -26t-25 -1t-16 25q-3 15 1 34t18 41q13 21 35 40.5t52 25.5q43 7 75 -15.5t51 -53.5z" />
    <glyph glyph-name="asciitilde" unicode="~" horiz-adv-x="444" 
d="M430 372q5 -1 4 -5t-6 -9q-17 -18 -27 -32t-16 -26t-10 -21t-9 -16q-8 -14 -23 -21.5t-35 -8.5q-16 -1 -36.5 2t-55.5 13q-20 6 -39 11.5t-36 5.5q-26 2 -44 -14q-10 -8 -20 -20.5t-27 -32.5q-5 -5 -12 -8t-12 -2q-6 1 -5 5.5t6 9.5q22 21 32.5 38.5t15.5 32.5
q5 14 7.5 26t7.5 21q7 18 26 29q20 9 46 11q20 1 44.5 -2t61.5 -14l38.5 -11t32.5 -6q20 -2 34 5t32 29q5 5 12.5 8t12.5 2z" />
    <glyph glyph-name="emdash" unicode="&#x2014;" horiz-adv-x="568" 
d="M483 298q0 -5 9.5 -8.5t20 -6.5t18.5 -4.5t5 -1.5q-252 -9 -504 0q-3 0 5 1.5t19 4.5t20.5 6.5t9.5 8.5q1 4 -8.5 7.5t-20.5 6.5t-19.5 4.5t-5.5 1.5q252 10 504 0q3 0 -5.5 -1.5t-19.5 -4.5t-20 -6.5t-8 -7.5z" />
    <glyph glyph-name="perthousand" unicode="&#x2030;" horiz-adv-x="678" 
d="M382 670l-4 -11q-35 -81 -58 -163.5t-48 -163.5t-59 -158.5t-91 -148.5q-7 -8 -21 -11t-30 1q-13 3 -24 9.5t-7 14.5l11 13q64 64 101 137.5t61.5 152t43 160.5t45.5 165q3 9 12.5 15.5t24.5 6.5q14 0 29 -5.5t14 -13.5zM361 334q38 0 62.5 -32.5t28.5 -81.5
q2 -28 -4 -52.5t-19.5 -43.5t-33.5 -30t-45 -11q-22 0 -39.5 9.5t-29.5 26t-17.5 38t-3.5 46.5q2 28 10 52t21.5 41.5t31 27.5t38.5 10zM124 346q-37 0 -62.5 27t-36.5 66q-6 23 -5.5 44t8.5 39q9 19 26 32.5t42 18.5q23 4 43.5 -1t37 -18.5t26.5 -33.5t12 -44
q3 -28 -3 -51.5t-18.5 -41t-30.5 -27.5t-39 -10zM666 241q13 -47 -5 -84q-9 -18 -26 -31.5t-42 -18.5q-22 -5 -42.5 1t-36 19.5t-25.5 33.5t-12 44q-3 28 3 52t18.5 41t30.5 26.5t39 9.5q38 -1 63 -27.5t35 -65.5zM357 114q17 0 25.5 26t6.5 70q-2 42 -10.5 67.5t-22.5 25.5
t-22.5 -25.5t-9.5 -68.5t7.5 -69t25.5 -26zM99 544q-17 -3 -18.5 -27.5t6.5 -61.5q8 -38 18 -60t24 -22q14 1 21.5 25t1.5 65q-6 40 -21 62t-32 19zM591 136q17 3 19 27t-6 62q-7 38 -17 60t-24 22q-14 -1 -21 -25t-2 -64q5 -41 20 -63t31 -19z" />
    <glyph glyph-name="quotesinglbase" unicode="&#x201a;" horiz-adv-x="131" 
d="M106 133q5 -11 6.5 -21t-0.5 -19v-2q-5 -32 -8.5 -59t-14.5 -51q-9 -23 -27.5 -33.5t-41.5 3.5q-13 7 -8 21q1 5 5 6.5t8 -0.5q20 -10 30.5 10.5t9.5 62.5q-13 4 -22 17t-11 31q-1 10 1.5 20.5t8 19.5t13.5 15t19 5t19 -8.5t13 -17.5z" />
    <glyph glyph-name="quotedblbase" unicode="&#x201e;" horiz-adv-x="257" 
d="M77 155q22 4 36.5 -11.5t13.5 -38.5v-4q0 -41 -5.5 -72t-19.5 -50q-14 -20 -34.5 -26t-43.5 2q-12 3 -5 17q7 11 17 9q20 -6 34.5 11t13.5 59q-13 3 -22.5 15.5t-14.5 29.5q-5 19 2 37t28 22zM199 152q22 -5 28.5 -23t-1.5 -36v-2q-11 -32 -12 -58.5t-8 -46.5
q-6 -20 -22 -34t-39 -14q-5 -1 -8.5 3t-3.5 11q0 16 11 16q20 1 26.5 22t5.5 61q-13 2 -22 17.5t-7 35.5q0 23 15.5 38t36.5 10z" />
    <glyph glyph-name="dagger" unicode="&#x2020;" horiz-adv-x="211" 
d="M195 372q4 -2 6.5 -10t1.5 -16t-4 -13t-7 -3q-12 5 -24.5 8t-26.5 5q-3 -67 -4.5 -139.5t-2 -134t-0.5 -103v-46.5q-2 -14 -10 -19.5t-19 -5.5q-10 0 -17.5 6.5t-8.5 18.5q-1 5 -1 46.5t-0.5 103t-2 134t-4.5 139.5q-13 -2 -26 -5t-25 -8q-4 -2 -7 3t-4 13t1.5 16t6.5 10
q23 14 52 20q-2 44 -5.5 87t-7.5 86q-1 8 1.5 15.5t8.5 9.5q10 3 25 -3q8 -3 16.5 -7t16.5 -5q11 -2 18 5q4 5 8 4q4 -2 6 -7.5t1 -10.5q-5 -43 -8 -86t-5 -88q13 -3 25.5 -7.5t25.5 -12.5z" />
    <glyph glyph-name="daggerdbl" unicode="&#x2021;" horiz-adv-x="220" 
d="M203 415q5 -3 7 -11.5t1 -16.5q-2 -19 -12 -15q-25 14 -51 20q-1 -12 -1.5 -24.5t-0.5 -24.5q13 -2 25.5 -5t24.5 -8q4 -2 6.5 -9t2.5 -15q-2 -19 -10 -19q-23 5 -51 7q0 -4 -1 -21.5t-1.5 -43.5t-1.5 -58.5t-1 -65.5q-1 -33 -1 -65.5v-58v-42.5v-19q1 -14 -8.5 -20
t-20.5 -5q-10 0 -18 6.5t-8 17.5v19.5v42.5v58v66q0 33 -1 65.5t-1.5 58.5t-1.5 43.5t-2 21.5q-28 -2 -51 -7q-10 0 -10 19q-1 8 1.5 15t6.5 9q13 5 25.5 8t26.5 5l-3 50q-27 -6 -52 -21q-9 -3 -12 15q-1 8 1.5 16.5t6.5 11.5q14 9 26.5 15.5t26.5 10.5q-3 59 -9 116
q-2 18 1 24.5t8 8.5q9 4 26 -3q8 -3 16.5 -7t16.5 -5q10 -3 18 5q3 4 7 4q9 -5 8 -18q-1 -9 -2.5 -27t-3.5 -37.5t-3.5 -36.5t-1.5 -24q25 -7 52 -26z" />
    <glyph glyph-name="brokenbar" unicode="&#xa6;" horiz-adv-x="139" 
d="M113 546q5 -9 6.5 -18.5t1.5 -14.5q-1 -7 -6.5 -35t-10.5 -66q-3 -19 -5 -39t-3.5 -37.5t-3 -30t-1.5 -16.5q-2 -12 -8.5 -15t-14.5 -3q-7 0 -12.5 4t-7.5 14q-1 4 -2 17t-2.5 30t-3.5 37.5t-5 39.5q-5 39 -10.5 67t-6.5 33q-1 9 2.5 21t8.5 24q5 10 11.5 17t13.5 9
q9 2 17.5 -2.5t16.5 -11.5l9 -9t8 -6q5 0 8 -9zM102 223q7 1 7 -10q0 -7 -1.5 -44t-3.5 -86l-7 -147q-2 -15 -10 -28.5t-19 -11.5q-10 0 -17 13t-9 27q-1 5 -1.5 20t-1.5 36t-2 45l-2 48t-2 46t-1.5 39.5t-1 28.5t-0.5 14q0 16 9 14q4 -1 9 -4t10 -7q6 -5 13 -9t13 -3
q7 1 13 12q2 4 5 7z" />
    <glyph glyph-name="exclamdown" unicode="&#xa1;" horiz-adv-x="145" 
d="M72 377q-9 1 -17 -2.5t-14 -5.5t-10 -1t-5 10q0 9 3 26.5t9 35.5t15 32.5t19 14.5t19 -13.5t15 -31.5t9.5 -36t2.5 -26q-1 -10 -5 -11t-10 1t-14 4.5t-17 2.5zM124 -147q1 -8 -2.5 -20.5t-8.5 -24.5q-5 -10 -11.5 -17.5t-13.5 -9.5q-9 -2 -17.5 2.5t-16.5 11.5l-9 9t-9 6
q-4 2 -7 10q-5 10 -6.5 19.5t-1.5 13.5q1 3 3 20t5 43.5t6 61.5t5 74q3 38 4.5 77.5t2.5 72.5t1.5 56t1.5 27q1 14 8 23t16 8q8 0 14 -9.5t7 -21.5q1 -4 1.5 -27t1.5 -56.5t2.5 -73.5t4.5 -78q2 -39 5 -74t6 -61.5t5 -42.5t3 -19z" />
    <glyph glyph-name="questiondown" unicode="&#xbf;" horiz-adv-x="288" 
d="M272 -87q3 -14 -1 -33.5t-17 -41.5q-13 -21 -35 -40.5t-53 -24.5q-21 -4 -39.5 0.5t-34.5 14.5t-29 24t-22 29q-20 32 -26 63.5t-1 58.5q3 21 10 36.5t15 30.5q9 14 19 29.5t21 32.5q22 36 40 86.5t18 115.5q0 11 8.5 16.5t18.5 3.5q8 -1 14 -7t6 -17q-2 -57 -13.5 -99.5
t-25.5 -84.5q-12 -41 -23.5 -83.5t-13.5 -101.5q-2 -57 6 -86.5t31 -28.5q20 1 31 21t18 43t15 41.5t23 26.5q14 6 25 0.5t15 -25.5zM164 375q-18 2 -31 17t-14 38t13 40.5t35 13.5q20 -4 33 -25.5t10 -43.5q-2 -21 -15.5 -31.5t-30.5 -8.5z" />
    <glyph glyph-name="plusminus" unicode="&#xb1;" horiz-adv-x="263" 
d="M49 327q-4 -1 -7 5t-4 14t1 15t6 8q26 6 50 9q-3 51 -9 102q-1 11 2 15.5t8 5.5q11 3 25 -6q7 -4 13.5 -7.5t12.5 -3.5q8 -1 15 7q4 5 8 5q5 -1 7.5 -6t1.5 -10q-3 -26 -5 -51t-3 -51q24 -3 48 -9q5 -1 6.5 -8t1.5 -15q-1 -8 -3.5 -14t-7.5 -5l-47 2q0 -51 3 -102
q1 -10 -12.5 -17t-29.5 -6q-15 0 -26.5 6t-10.5 17q2 26 2.5 51t0.5 51zM248 181q3 -8 2 -16.5t-6 -11.5q-112 -62 -223 0q-6 4 -7 12t2 16t8 12.5t10 2.5q98 -47 197 0q5 2 10 -2.5t7 -12.5z" />
    <glyph glyph-name="Euro" unicode="&#x20ac;" horiz-adv-x="394" 
d="M376 174v-5t-1 -10q-6 -34 -17.5 -64.5t-29.5 -54.5t-42.5 -40t-53.5 -20q-45 -6 -79.5 15t-55.5 56q-23 35 -32 80t-11 96q-8 2 -15.5 3.5t-15.5 3.5q-9 4 -7 23q1 8 4.5 14t6.5 5q7 -2 13 -2.5t13 -1.5v42q1 14 1 27.5t2 27.5q-7 0 -13.5 -0.5t-13.5 -1.5q-4 0 -6.5 6
t-3.5 14t1.5 14.5t6.5 7.5l32 6q5 55 18 107t39 94q26 41 65.5 63t87.5 10q26 -6 45.5 -20t30.5 -31q22 -34 14 -69q-5 -20 -16.5 -29.5t-23.5 -5.5q-14 5 -22.5 26.5t-16.5 45.5q-6 20 -16.5 36t-27.5 18q-20 2 -37 -15t-28 -49q-12 -32 -18 -76t-8 -97q13 1 26 1.5t26 0.5
q5 -1 7 -8.5t2 -17.5q0 -11 -2 -18t-7 -7h-27t-27 -1q-1 -10 -1 -19.5v-19.5q0 -19 0.5 -36.5t1.5 -34.5q13 0 26 -0.5t27 -0.5q5 0 7.5 -7.5t2.5 -17.5q0 -11 -2.5 -18t-7.5 -7q-13 -1 -25.5 -0.5t-26.5 1.5q3 -48 10 -85t20 -63q12 -26 29.5 -38.5t38.5 -9.5q19 3 37 16.5
t32.5 34.5t24.5 47.5t15 53.5q1 7 4 10t6 5q10 3 14 -10z" />
    <glyph glyph-name="section" unicode="&#xa7;" horiz-adv-x="291" 
d="M248 524q13 -17 17.5 -33.5t2.5 -28.5q-3 -15 -13.5 -19t-21.5 2q-13 6 -22.5 23.5t-15.5 41.5q-3 15 -8 22.5t-16 9.5q-9 2 -17.5 -2.5t-14.5 -13t-9 -19.5t-3 -23q1 -15 6 -27t13.5 -22.5t18.5 -20.5l21 -21q25 -27 46.5 -60t20.5 -70q-2 -33 -17 -61
q-8 -14 -19.5 -26.5t-26.5 -20.5q12 -9 23 -17t20.5 -17t16 -20.5t9.5 -28.5q4 -23 -1.5 -50t-22.5 -52q-16 -26 -41 -44t-57 -16q-24 1 -43.5 13.5t-34.5 31t-25 42t-14 46.5q-1 6 -1 8.5v3.5q2 10 12 3q7 -6 10 -16q9 -35 28 -64t41 -34q23 -5 40 17t16 53q-1 18 -6.5 32
t-14.5 25.5t-20 22t-23 22.5q-24 24 -43 52t-18 60q0 18 5.5 33.5t15.5 29.5t24.5 26.5t33.5 19.5q-18 13 -33 22t-26 18t-18 19.5t-9 26.5q-4 22 3 48.5t25 50.5q18 25 45.5 41.5t62.5 10.5q26 -4 45.5 -18.5t32.5 -31.5zM148 308q-11 -6 -17.5 -21.5t-6.5 -35.5t7.5 -35
t19.5 -28q18 21 18 57q0 37 -21 63z" />
    <glyph glyph-name="yen" unicode="&#xa5;" horiz-adv-x="421" 
d="M399 632q5 -3 8 -10t1 -14q-1 -4 -7 -8q-26 -25 -46.5 -57t-36.5 -68.5t-29 -77t-25 -83.5v-27.5t1 -27.5q11 1 22.5 2t23.5 3q4 1 6.5 -5.5t3.5 -16.5q1 -8 -1 -15.5t-7 -9.5q-11 -2 -23 -4t-24 -3q1 -13 1.5 -25t0.5 -25q13 2 25 4.5t24 6.5q5 2 8 -4t5 -16
q2 -9 0 -16.5t-7 -9.5q-13 -5 -25.5 -8.5t-26.5 -5.5l8 -99q1 -10 -16.5 -19.5t-39.5 -9.5q-20 -2 -35.5 5t-14.5 18l5 101q-12 1 -23.5 3t-22.5 5q-5 1 -7.5 9t-1.5 18q2 10 5 16t7 5q23 -5 44 -6q1 13 1 25.5v24.5q-11 1 -21 2t-21 3q-4 1 -6.5 8.5t-1.5 17.5t3.5 16.5
t6.5 6.5q21 -3 41 -3q0 16 0.5 32t0.5 32q-15 43 -31 85t-35 78.5t-42.5 67.5t-53.5 53q-7 5 -7 6q-2 6 1 11.5t8 8.5q2 1 10 3.5t18 4.5q13 2 23.5 3.5t14.5 3.5q10 4 16 16q3 7 6 7q3 2 6 -1t9 -12q21 -35 38 -74t31.5 -80t27.5 -83t26 -83q12 43 25 84.5t29.5 79.5
t37 71.5t46.5 60.5q6 4 13 -1z" />
    <glyph glyph-name="cent" unicode="&#xa2;" horiz-adv-x="272" 
d="M253 129q2 -5 -2 -19q-7 -30 -25 -56.5t-48 -39.5l2 -28q2 -10 -5 -16.5t-15 -8.5q-7 -1 -13 4t-6 16v25q-20 -1 -36.5 5.5t-29 17t-22.5 24.5t-16 29q-14 31 -17.5 61t-2.5 59q2 31 6.5 63t18.5 67q7 17 16 33.5t21.5 30.5t27.5 24t34 14v30q0 11 6 16t13 4q8 -1 15 -8
t5 -17q0 -6 -0.5 -12t-1.5 -13h4q38 -10 56.5 -34.5t13.5 -47.5q-4 -17 -12.5 -24t-19.5 -4q-12 3 -21 18t-14 38q-3 19 -9 27q-14 -183 0 -366q21 4 37 29.5t21 52.5q1 10 9 12q3 1 6 0t4 -6zM140 53q-2 176 0 350q-11 -11 -18 -30.5t-11 -43.5t-6 -52t-2 -55q0 -25 2 -50
t6 -47.5t11 -41t18 -30.5z" />
    <glyph glyph-name="sterling" unicode="&#xa3;" horiz-adv-x="331" 
d="M321 72q2 -6 -0.5 -13t-7.5 -11q-138 -105 -276 -30q-12 7 -8 23q12 63 19 127t9 129l-26 3q-4 1 -6.5 7.5t-2.5 14.5t2.5 14t6.5 6h27q-1 39 -2.5 77.5t-5.5 76.5q-4 37 0.5 71.5t19.5 63.5q14 29 38 48.5t56 17.5q23 -2 41.5 -14t29.5 -29q24 -35 18 -77
q-4 -29 -17 -40.5t-26 -9.5q-10 2 -17 13t-7 31q1 10 3.5 17.5t5.5 14.5q3 6 5.5 12.5t3.5 14.5q1 11 -5 19.5t-17 10.5q-22 2 -33.5 -27t-10.5 -75q1 -54 1.5 -108t0.5 -108h78q3 0 6 -7t3 -16q0 -23 -9 -25q-20 -2 -39 -2.5t-39 0.5q-1 -68 -1.5 -135t-2.5 -134
q83 -7 169 54q5 4 9.5 2t6.5 -7z" />
    <glyph glyph-name="guilsinglleft" unicode="&#x2039;" horiz-adv-x="250" 
d="M222 208q3 -8 3 -16.5t-4 -10.5q-35 -1 -63 10t-52.5 27.5t-45.5 36.5t-42 37q-6 4 -4 14q0 6 2 12.5t4 13.5q6 14 5 27q-1 10 -8 15q-3 3 -5 7q-1 8 8 15q19 15 40.5 30t44.5 26t49 17t56 3q7 -4 4 -23t-8 -37t-9.5 -30t-11.5 -14q-28 -11 -53.5 -28t-51.5 -33
q27 -26 56.5 -50.5t67.5 -33.5q5 -1 10 -4t8 -11z" />
    <glyph glyph-name="guillemotleft" unicode="&#xab;" horiz-adv-x="407" 
d="M383 208q5 -8 7 -15.5t-2 -9.5q-69 12 -115.5 40.5t-83.5 61.5q-6 4 -6 16q0 8 2 16t4 17q7 17 7 31q0 12 -6 19q-3 6 -3 11q0 6 2 8.5t7 4.5q37 21 80.5 38t101.5 22q3 -1 2 -7t-4 -14t-7.5 -17.5t-8.5 -18.5q-8 -18 -14.5 -30t-13.5 -15q-29 -11 -55 -26.5t-52 -32.5
q28 -26 60 -47t75 -35q5 -2 11 -5.5t12 -11.5zM176 204q5 -3 8 -8.5t3 -16.5q0 -10 -3 -18.5t-7 -8.5q-49 34 -82.5 72t-66.5 68q-4 3 -4 14q1 6 3 12.5t4 13.5q5 16 4 26q-3 10 -9 15q-5 4 -7 8q-1 7 6 12q30 25 63.5 52.5t78.5 50.5q3 0 6 -6t4.5 -15.5t2.5 -21t1 -22.5
q0 -22 -2.5 -37t-9.5 -20q-26 -17 -51 -34.5t-52 -31.5q27 -23 52.5 -50.5t57.5 -53.5z" />
    <glyph glyph-name="trademark" unicode="&#x2122;" horiz-adv-x="395" 
d="M370 616q-81 -111 0 -222q2 -3 -4.5 -7t-15.5 -7q-8 -2 -15.5 -2t-9.5 4q-51 106 -14 211q-29 -45 -37.5 -93t-10.5 -100q1 -5 -6.5 -7.5t-12.5 -2.5q-16 -2 -19 8q-18 51 -27.5 103t-26.5 103q8 -119 -3 -239q0 -5 -7 -5q-5 2 -4 6q18 139 0 279q-1 5 4 5q5 2 9 -2
q9 -6 16 -6q3 0 6 3l4 4q1 0 5 -10q14 -56 23 -110.5t30 -107.5q5 57 18.5 110.5t54.5 100.5q3 3 7 2l4 -2t4 -4q2 -4 5.5 -5.5t7.5 -3.5q2 -1 8 1l6 2q3 -1 1 -6zM146 647q4 1 6 -6q0 -8 -4 -9q-9 -1 -18.5 -1.5t-19.5 -2.5q36 -127 -2 -255q-2 -3 -9.5 -4t-16.5 1
t-14.5 5.5t-3.5 6.5q58 118 4 238q-10 -2 -19.5 -4.5t-18.5 -5.5q-4 -1 -10 5q-3 5 1 7q31 10 62 16t63 9z" />
    <glyph glyph-name="onequarter" unicode="&#xbc;" horiz-adv-x="494" 
d="M428 639q0 1 -7 -9q-50 -63 -80 -140t-55 -158.5t-51 -163.5t-68 -155q-5 -8 -18 -11.5t-29 1.5q-13 4 -24.5 12.5t-9.5 16.5l8 12q33 42 57 90.5t42.5 100.5t34.5 106.5t33 108.5t37.5 107t48.5 102q5 8 15.5 12t25.5 -1q14 -4 28 -14t12 -17zM473 164q2 -7 -4 -9
l-29 -11q6 -26 13.5 -50.5t15.5 -50.5q2 -5 -7 -12t-21 -12q-11 -4 -20 -4t-11 5q-12 57 -21 109q-27 -7 -54.5 -10.5t-55.5 -5.5q-5 0 -5 8l-1 1q0 49 10.5 92t29.5 73.5t43.5 47.5t51.5 16q7 0 5 -7q0 -8 -5 -8q-17 1 -33 -14t-28 -42t-19 -64.5t-4 -81.5q16 2 31.5 4.5
t31.5 6.5q-4 30 -6.5 59.5t-4.5 59.5q-2 9 4 9q4 1 12 -3q4 -2 8.5 -3t6.5 -1q4 0 6 5q2 3 4 3q2 1 3 -1l2 -4q2 -28 6 -55.5t9 -54.5q17 5 28 10q6 2 8 -5zM193 324q-27 0 -53.5 0.5t-53.5 1.5q-5 0 -5 8q0 3 1.5 6t3.5 3h31q0 66 -8.5 132.5t-25.5 132.5q-5 -14 -13 -26.5
t-25 -20.5q-5 -2 -12.5 -1.5t-12.5 11.5q-3 8 0.5 16.5t10.5 12.5q8 4 19 0q7 -2 10 0q8 3 11 15t2 28q-3 8 4 11q4 1 16 1q5 -1 10 -1.5t10 1.5q4 1 7 8q3 4 5 4q5 2 7 -5q28 -157 30 -318h31q5 0 5 -10t-5 -10z" />
    <glyph glyph-name="onehalf" unicode="&#xbd;" horiz-adv-x="539" 
d="M422 634q-49 -65 -79 -142.5t-54.5 -159.5t-51.5 -163.5t-70 -154.5q-5 -8 -17.5 -11.5t-28.5 1.5q-14 4 -25 12t-9 16q0 1 8 12q50 63 80 139.5t55 157.5t51 163t67 156q5 8 15.5 12.5t24.5 0.5q15 -4 29 -13.5t12 -16.5zM522 64q3 -6 -4 -10q-48 -25 -94.5 -40
t-94.5 -22q-5 0 -7 8q0 6 4 10q27 49 42.5 91.5t24.5 76.5q18 67 16 104q-2 28 -11 45.5t-24 17.5q-11 1 -17 -9t-9 -21q-5 -11 -9 -20t-12 -10q-7 0 -11.5 9.5t-5.5 20.5q0 21 18.5 34.5t45.5 11.5q38 -2 58.5 -20t23.5 -59q2 -20 -1 -45t-11 -58q-21 -86 -63 -160
q32 8 65 20t66 29q3 1 6 0t4 -4zM195 324q-26 0 -53 0.5t-54 1.5q-5 0 -5 8q0 3 1.5 6t3.5 3h31q0 132 -36 264q-4 -14 -12 -26.5t-25 -19.5q-5 -2 -12.5 -1.5t-12.5 11.5q-3 8 0.5 16.5t10.5 12.5q8 4 19 0q7 -2 10 0q8 3 11 15t2 27q-3 9 4 11q5 3 15 1q12 -2 20 0
q5 1 8 8q3 4 5 4q2 1 4 -1t2 -4q16 -79 23.5 -158t8.5 -159h31q5 0 5 -10t-5 -10z" />
    <glyph glyph-name="threequarters" unicode="&#xbe;" horiz-adv-x="500" 
d="M430 628q-50 -63 -80.5 -139.5t-55 -157.5t-50.5 -163.5t-66 -158.5q-5 -9 -17.5 -13t-28.5 0q-14 3 -25.5 11t-9.5 16l8 13q48 67 77 145t54 159.5t51.5 162t69.5 153.5q5 8 15.5 12t24.5 -1q15 -4 28.5 -13.5t11.5 -16.5zM482 164q2 -7 -4 -9q-13 -5 -29 -10
q7 -26 14.5 -51t16.5 -50q2 -5 -7.5 -12t-20.5 -12q-11 -4 -20 -4t-11 5q-7 28 -12.5 55t-10.5 54q-56 -14 -110 -17q-6 0 -6 8v1q-1 49 9.5 91.5t29 73.5t43 48t51.5 16q6 -2 6 -8q0 -8 -6 -8q-17 1 -33 -14t-28 -42t-18 -64t-3 -81q31 4 63 12q-5 29 -8 58.5t-5 58.5
q0 10 5 10q4 0 12 -3q7 -4 14 -4q4 0 7 5q2 3 4 3q2 1 3 -1t1 -4q2 -28 6.5 -55.5t10.5 -54.5l28 10q6 2 8 -5zM221 410q1 -45 -24 -71.5t-66 -24.5q-23 2 -45 12.5t-32 28.5q-3 4 -5 15q0 9 4.5 15.5t9.5 7.5q8 0 13 -8q11 -22 24 -38.5t30 -16.5q19 -1 32.5 20.5
t12.5 53.5q-1 39 -18 61t-45 17q-6 -2 -6 5q-2 8 4 10q23 4 33.5 33.5t5.5 71.5q-4 32 -18 46.5t-34 8.5q-15 -5 -20 -16.5t-7 -22.5q-2 -13 -5.5 -23t-11.5 -13q-9 -3 -17.5 3t-11.5 14q-7 17 12.5 39.5t56.5 34.5q24 7 44 5t34.5 -11.5t22.5 -25.5t9 -36
q2 -33 -11.5 -61.5t-37.5 -45.5q32 -6 49.5 -31.5t17.5 -56.5z" />
    <glyph glyph-name="ellipsis" unicode="&#x2026;" horiz-adv-x="485" 
d="M99 126q5 -8 5.5 -17.5t1.5 -17.5q-1 -9 -1.5 -18t-5.5 -17q-4 -8 -12 -14t-19 -6q-10 0 -17.5 6t-12.5 14q-4 8 -5 17t-1 18q0 8 1 17.5t5 17.5q5 8 12.5 14t17.5 5q11 1 19 -5t12 -14zM273 126q5 -8 5.5 -17.5t1.5 -17.5q-1 -9 -1.5 -18t-5.5 -17q-4 -8 -12 -14t-19 -6
q-10 0 -17.5 6t-12.5 14q-4 8 -5 17t-1 18q0 8 1 17.5t5 17.5q5 8 12.5 14t17.5 5q11 1 19 -5t12 -14zM447 126q5 -8 5.5 -17.5t1.5 -17.5q-1 -9 -1.5 -18t-5.5 -17q-4 -8 -12 -14t-19 -6q-10 0 -17.5 6t-12.5 14q-4 8 -5 17t-1 18q0 8 1 17.5t5 17.5q5 8 12.5 14t17.5 5
q11 1 19 -5t12 -14z" />
    <glyph glyph-name="fraction" unicode="&#x2044;" horiz-adv-x="354" 
d="M308 647q15 -9 28.5 -24.5t11.5 -21.5q0 -1 -6 -6q-33 -28 -57.5 -70t-43.5 -91.5t-35 -104.5t-33 -109.5t-37.5 -105.5t-48.5 -94q-5 -7 -18 -7t-29 11q-13 8 -24.5 20.5t-9.5 20.5l8 8q33 28 57 70t42.5 91.5t34.5 104t33 108.5t37.5 105t48.5 94q5 8 15.5 9t25.5 -8z
" />
    <glyph glyph-name="copyright" unicode="&#xa9;" horiz-adv-x="466" 
d="M415 542q20 -45 22 -94.5t0 -103.5q-3 -63 -8.5 -120.5t-32.5 -108.5q-12 -24 -30.5 -46t-42 -38t-51 -24.5t-58.5 -6.5q-59 2 -100.5 34t-61.5 76q-21 45 -23.5 95t-0.5 104q2 32 3 62t6 59t12.5 56t20.5 53q26 51 75 83.5t110 30.5q29 -1 54 -10.5t45.5 -24.5
t35.5 -34.5t25 -41.5zM335 123q14 42 16.5 93t3.5 110q-1 60 -3.5 111.5t-15.5 92.5t-38 67t-61 26q-37 0 -63.5 -25.5t-40.5 -66.5q-15 -42 -18.5 -93.5t-4.5 -110.5q1 -59 4.5 -110.5t18.5 -93.5q14 -42 40.5 -67.5t63.5 -25.5q36 0 60.5 26t37.5 67zM319 247q8 0 8 -8v-4
t-2 -7q-8 -33 -29.5 -54t-56.5 -22q-30 0 -50.5 14.5t-32.5 37.5q-13 23 -17.5 51t-4.5 57q1 35 7.5 70t22.5 64t41.5 48.5t61.5 17.5q28 -2 43.5 -16.5t13.5 -37.5q-2 -16 -8.5 -25t-15.5 -8t-16.5 12.5t-12.5 31.5q-2 14 -5.5 19t-11.5 5q-13 0 -22 -14t-15 -37.5
t-9 -52.5t-3 -57t3.5 -56t10 -49.5t17 -35t25.5 -13.5q17 1 31 18.5t19 40.5q1 10 8 10z" />
    <glyph glyph-name="registered" unicode="&#xae;" horiz-adv-x="466" 
d="M415 542q20 -45 22 -94.5t0 -103.5q-3 -63 -8.5 -120.5t-32.5 -108.5q-12 -24 -30.5 -46t-42 -38t-51 -24.5t-58.5 -6.5q-59 2 -100.5 34t-61.5 76q-21 45 -23.5 95t-0.5 104q2 32 3 62t6 59t12.5 56t20.5 53q26 51 75 83.5t110 30.5q29 -1 54 -10.5t45.5 -24.5
t35.5 -34.5t25 -41.5zM335 123q14 42 16.5 93t3.5 110q-1 60 -3.5 111.5t-15.5 92.5t-38 67t-61 26q-37 0 -63.5 -25.5t-40.5 -66.5q-15 -42 -18.5 -93.5t-4.5 -110.5q1 -59 4.5 -110.5t18.5 -93.5q14 -42 40.5 -67.5t63.5 -25.5q36 0 60.5 26t37.5 67zM325 399
q-2 -42 -19 -70.5t-46 -39.5q17 -32 35.5 -63t40.5 -60v-2q1 -3 -7 -6.5t-17 -5.5q-20 -2 -27 9q-20 30 -36.5 61.5t-33.5 63.5q-10 0 -25 5q-1 -32 -1.5 -65t-2.5 -65q0 -5 -7.5 -8t-16.5 -1q-8 1 -14 4.5t-5 8.5q13 159 0 318q-1 8 3 10q6 0 11 -3q5 -2 8 -3t7 -1q6 2 8 5
q0 2 1 2h1q3 0 5 -6q0 -11 0.5 -22.5t0.5 -22.5q20 62 67 60q36 -2 54.5 -31.5t15.5 -71.5zM220 302q26 0 42.5 26t17.5 74q2 38 -7 60t-27 23q-20 0 -36 -26t-21 -65q1 -22 1 -43v-43q18 -6 30 -6z" />
    <glyph glyph-name="bullet" unicode="&#x2022;" horiz-adv-x="135" 
d="M103 392q5 -10 6 -20.5t2 -20.5q-1 -11 -2 -21t-6 -20q-5 -9 -14 -16.5t-22 -6.5q-11 0 -20 7t-14 16q-5 10 -6.5 20t-1.5 21q0 10 1.5 20.5t6.5 20.5q5 9 14 16t20 7q13 0 22 -7t14 -16z" />
    <glyph glyph-name="ordfeminine" unicode="&#xaa;" horiz-adv-x="234" 
d="M211 440q2 -5 -8 -14t-24 -14t-23.5 -3.5t-10.5 8.5q-2 11 -2.5 21t-1.5 21q-8 -29 -24 -46t-43 -12q-31 7 -44 30.5t-6 44.5q8 29 37 49q14 11 33.5 18t43.5 7v15q1 42 -0.5 70t-20.5 30q-4 0 -8 -6t-7 -14q-5 -9 -10 -19t-11 -11q-8 -1 -15 6t-9 18q-3 16 11 30.5
t41 15.5q25 1 43 -12.5t28 -31.5q10 -19 12 -39.5t0 -41.5q-5 -61 19 -120zM94 418q13 -2 25.5 20t19.5 56q-1 10 -1 19.5v18.5q-26 -3 -42 -22t-19 -51q-2 -17 3 -28.5t14 -12.5z" />
    <glyph glyph-name="ordmasculine" unicode="&#xba;" horiz-adv-x="247" 
d="M209 634q10 -20 11 -42.5t1 -46.5q-2 -26 -4 -50t-14 -47q-12 -22 -35 -38t-55 -14q-28 2 -47 15.5t-29 33.5q-9 20 -10 42t-1 47q2 26 4 50t13 47q11 22 34 38t55 15q29 -1 48 -15.5t29 -34.5zM156 453q5 17 6.5 39t1.5 49q0 26 -1.5 48t-6.5 39t-13 26.5t-19 9.5
t-19.5 -9.5t-13.5 -26.5t-6 -39.5t-1 -49.5q0 -26 1 -48t6 -39t13.5 -26.5t19.5 -9.5q22 0 32 37z" />
    <glyph glyph-name="logicalnot" unicode="&#xac;" horiz-adv-x="344" 
d="M311 284q-56 -93 2 -185q6 -8 -7.5 -17.5t-32.5 -13.5q-17 -5 -32.5 -2t-18.5 14q-20 100 -5 198q-93 9 -186 -12q-4 -2 -10 3.5t-11 13.5t-6 15.5t4 9.5q153 46 304 0q6 -2 5 -9t-6 -15z" />
    <glyph glyph-name="degree" unicode="&#xb0;" horiz-adv-x="234" 
d="M196 644q10 -17 12 -36t1 -39q-2 -23 -4.5 -44t-13.5 -41t-32 -34.5t-50 -12.5q-25 0 -43.5 13t-27.5 30q-10 18 -11.5 37t-1.5 39q2 22 4 43.5t13 41.5q11 19 32 33.5t50 12.5q23 0 42 -11.5t30 -31.5zM86 562q-1 -42 6 -68.5t25 -26.5t25 26.5t6 68.5q1 42 -6 68.5
t-25 26.5t-25 -26.5t-6 -68.5z" />
    <glyph glyph-name="mu" unicode="&#xb5;" horiz-adv-x="365" 
d="M351 371q4 -2 5.5 -8t-0.5 -10q-47 -153 -35 -305q1 -8 -12 -16.5t-30 -11.5q-14 -3 -26 0.5t-12 14.5q-1 15 -1 30v30q-12 -40 -32.5 -65t-55.5 -22q-18 2 -32 12t-25 27q-3 -54 -10 -107.5t-18 -106.5q-1 -5 -8 -5.5t-15 5.5q-9 5 -14 13t-3 13q77 249 1 494
q-4 17 7 24q9 7 28 9q10 1 19.5 2.5t15.5 3.5q13 7 15 17q4 7 8 8q3 2 6 -2t4 -9q5 -57 8.5 -113.5t4.5 -113.5q2 -76 8 -108.5t24 -33.5q12 0 22.5 12.5t18.5 32t14 41.5t9 41q2 61 5 121t9 121q1 20 13 15q5 -2 11.5 -6.5t12.5 -12.5q8 -9 17 -16.5t15 -11.5q10 -7 18 -2
q7 1 10 -1z" />
    <glyph glyph-name="onesuperior" unicode="&#xb9;" horiz-adv-x="190" 
d="M180 359q3 -7 -4 -12q-74 -53 -148 -16q-2 1 -3.5 4t-0.5 6q2 8 7 5q11 -5 22 -8.5t22 -4.5q3 77 3 153t-2 153q-8 -25 -18.5 -43.5t-24.5 -23.5q-10 -3 -15.5 1.5t-7.5 11.5q-2 8 2 18t15 15q3 1 7 1q5 0 11 2q12 4 18 15.5t12 35.5q0 10 6 10q4 1 14 -5q5 -3 9.5 -5.5
t8.5 -3.5q2 0 5 0.5t5 3.5q4 2 5 1q4 -1 4 -9q-10 -81 -10 -162.5t9 -162.5q23 8 41 22q6 5 8 -2z" />
    <glyph glyph-name="twosuperior" unicode="&#xb2;" horiz-adv-x="229" 
d="M215 350q2 -7 -5 -12q-96 -65 -190 1q-7 3 -5 11q2 5 6 3q20 10 35 25t25.5 33t18.5 36.5t14 35.5q11 36 18 62t8 47q2 30 -8.5 51.5t-30.5 19.5q-14 -2 -20.5 -14t-9.5 -24q-4 -13 -8.5 -23t-12.5 -13t-14.5 2.5t-8.5 14.5q-3 7 1.5 19t14 23.5t24.5 20.5t34 11
q25 3 44 -7.5t30 -25.5q12 -17 15 -35.5t0 -39.5t-11 -43.5t-19 -55.5q-12 -32 -30.5 -72.5t-53.5 -72.5q64 -18 129 24q7 5 10 -2z" />
    <glyph glyph-name="threesuperior" unicode="&#xb3;" horiz-adv-x="235" 
d="M210 413q3 -17 -0.5 -36.5t-16.5 -37.5q-12 -17 -33.5 -30.5t-47.5 -11.5q-16 0 -31.5 6.5t-28 17t-21 23t-11.5 25.5q-4 10 -1 18q2 9 8.5 13t12.5 2q8 -3 11 -15q8 -27 22.5 -50t36.5 -24q12 0 22.5 6.5t17 18t9.5 26.5t2 30q-4 38 -18.5 61t-40.5 24q-6 0 -6 7
q2 9 6 9q22 1 33.5 29t14.5 70q2 31 -7 51t-29 20q-15 -1 -21.5 -12t-10.5 -22q-4 -13 -8 -23t-12 -12t-15 5t-9 16q-2 8 2.5 19t14.5 21t25 17t33 8q24 1 42.5 -10.5t29.5 -27.5t14.5 -33.5t0.5 -34.5q-5 -28 -19.5 -50.5t-38.5 -36.5q14 -5 25.5 -13.5t20.5 -18.5
q18 -21 22 -44z" />
    <glyph glyph-name="divide" unicode="&#xf7;" horiz-adv-x="204" 
d="M101 215q17 0 29.5 -14t14.5 -36t-10 -40.5t-34 -18.5q-20 0 -32.5 18.5t-9.5 40.5q2 22 14 36t28 14zM101 392q-16 0 -28 14t-14 36q-3 22 9.5 40.5t32.5 18.5q22 0 34 -18.5t10 -40.5t-14.5 -36t-29.5 -14zM186 325q4 -1 6.5 -7.5t2.5 -14.5q0 -19 -9 -21
q-84 -8 -168 0q-9 2 -9 21q0 8 2.5 14.5t6.5 7.5q84 7 168 0z" />
    <glyph glyph-name="multiply" unicode="&#xd7;" horiz-adv-x="280" 
d="M254 178q2 -3 -1.5 -8t-10.5 -10t-15.5 -9t-17.5 -7q-35 -9 -46 12q-11 17 -19 35l-16 36q-14 -23 -31 -43.5t-40 -35.5q-6 -4 -9 -2q-8 3 -13 15q-3 14 -1 21q2 4 6 7q23 14 40 35t31 46q-15 35 -33 67t-49 52q-6 4 -6 6q-2 5 2 9.5t9 6.5q12 4 27 0q8 -2 14.5 -3.5
t12.5 0.5q7 1 13 11q4 7 7 7q2 1 5.5 -3.5t5.5 -9.5q11 -17 18.5 -34.5t15.5 -35.5q14 22 30 41.5t39 34.5q5 3 9 2q8 -3 13 -17q4 -13 1 -20q-2 -5 -5 -6q-23 -14 -39 -34.5t-30 -43.5q14 -35 32 -66t47 -51q4 -3 4 -5z" />
    <glyph glyph-name="paragraph" unicode="&#xb6;" horiz-adv-x="380" 
d="M355 -15q2 -5 -3 -12.5t-13 -12.5t-15 -4.5t-9 5.5q-65 265 -7 525q-11 5 -22.5 10t-22.5 9q-20 -141 -19 -282.5t24 -282.5q1 -5 -4.5 -12t-13.5 -9q-9 -2 -15 1t-7 9q-5 57 -8 114.5t-5 115.5q-45 -5 -80 14t-60 45q-48 52 -60 127q-5 34 1 71.5t28 72.5q11 17 26 33
t33.5 27.5t40 17.5t46.5 4q39 -4 78.5 -17.5t78.5 -39.5q5 -4 6.5 -12.5t-1.5 -16.5q-83 -249 3 -500z" />
    <glyph glyph-name="currency" unicode="&#xa4;" horiz-adv-x="489" 
d="M466 53q1 -3 -3 -9t-11 -12.5t-16 -12.5t-18 -10q-34 -18 -48 -1q-24 28 -43.5 59.5t-36.5 66.5q-25 -11 -53 -11q-21 0 -40 8t-33 22q-24 -40 -52.5 -73t-66.5 -57q-4 -3 -8 0q-9 6 -14 18q-3 15 -1 21q3 5 5 7q35 20 62 49.5t50 65.5q-19 30 -27 66.5t-7 78.5
q0 45 9.5 84t29.5 73q-22 42 -49.5 76t-62.5 60q-3 2 -4 3l-2 2q-2 5 2.5 10t9.5 7q11 7 27 5q8 -1 15 -0.5t12 3.5q8 2 14 14q3 8 7 9q2 1 5.5 -2.5t6.5 -8.5q23 -28 41 -59t34 -64q27 16 62 14q17 0 33 -6t30 -17q23 36 51 66t63 52q5 3 9 1q8 -5 14 -19q5 -12 1 -21
q-1 -2 -2 -3.5t-3 -3.5q-32 -17 -57.5 -42.5t-47.5 -56.5q24 -32 34 -72.5t10 -85.5q-1 -46 -11.5 -87t-36.5 -75q23 -39 50 -72t62 -56zM251 153q31 2 46 54.5t14 132.5q0 40 -3.5 73.5t-11 58.5t-18.5 39t-26 14t-27 -14t-19.5 -38.5t-11.5 -59t-4 -74.5q0 -41 4 -75
t11.5 -58.5t19 -38.5t26.5 -14z" />
    <glyph glyph-name="hungarumlaut" unicode="&#x2dd;" horiz-adv-x="255" 
d="M238 609q3 -1 3.5 -5t-1.5 -7q-18 -15 -29.5 -33t-18.5 -38t-11.5 -42t-8.5 -44q-2 -10 -12 -16.5t-21 -6.5q-20 0 -20 15q1 1 5 19.5t9 45.5q5 28 10.5 58.5t13.5 56.5q7 18 14 17q10 -1 20 -13q5 -5 9.5 -9t9.5 -6q5 -1 8 0.5t9 5.5q7 3 11 2zM135 627q3 0 5.5 -4.5
t2.5 -8.5q-10 -22 -16.5 -44t-13.5 -44t-15.5 -43.5t-21.5 -40.5q-5 -8 -18.5 -11t-24.5 1q-8 2 -12 7.5t0 11.5q0 1 11.5 14t19.5 36t9.5 51t-0.5 53q-3 19 5 20q10 3 24 -6q7 -4 13 -6.5t11 -2.5t7 3t6 8q3 6 8 6z" />
    <glyph glyph-name="ae" unicode="&#xe6;" horiz-adv-x="483" 
d="M290 255v-11q0 -34 5.5 -66.5t18.5 -57.5q12 -25 30.5 -39t38.5 -10q23 5 36 27.5t12 48.5q0 9 8 11q3 0 6.5 -1.5t5.5 -6.5q2 -4 2 -13q0 -17 -4.5 -33t-15.5 -30t-29.5 -23.5t-43.5 -13.5q-32 -5 -57 1.5t-42 21.5q-18 14 -28 35t-15 45q-25 -63 -55.5 -84t-72.5 -13
q-23 5 -38 16t-22 25t-6 29.5t8 32.5q20 47 63 76q22 15 50.5 25t64.5 10v24q0 32 -2.5 59t-7.5 46.5t-13.5 29.5t-21.5 9q-11 -1 -15.5 -9.5t-6.5 -19.5q-2 -15 -7.5 -29.5t-17.5 -16.5q-11 -2 -23.5 9t-18.5 26q-9 23 8.5 43t58.5 26q38 5 68.5 -7t48.5 -38q20 23 51 34.5
t70 4.5q32 -6 48.5 -20.5t21.5 -31.5t2 -34t-8 -33q-11 -27 -23 -49t-28 -27zM209 172q1 15 1 30v30q-38 -1 -62.5 -30.5t-35.5 -73.5q-6 -25 -2.5 -42t17.5 -19q20 -3 44 25.5t38 79.5zM371 418q-16 3 -29.5 -6.5t-23.5 -27.5t-17 -42.5t-9 -52.5q20 -1 41 -1.5t41 -2.5
q2 0 7 15t10 37q8 30 5.5 53.5t-25.5 27.5z" />
    <glyph glyph-name="oe" unicode="&#x153;" horiz-adv-x="525" 
d="M329 255v-11q0 -33 6.5 -65.5t20.5 -56.5q14 -25 33 -38.5t40 -9.5q23 4 34.5 26t9.5 48q0 8 7 10q8 2 13 -8q2 -4 2 -12q2 -17 -1.5 -33t-14.5 -29t-28.5 -22.5t-42.5 -13.5q-42 -7 -74.5 5.5t-51.5 36.5q-23 -26 -59 -39.5t-81 -8.5q-42 5 -67 25t-34 47
q-11 28 -8.5 60t4.5 69q3 39 2 74.5t12 67.5q12 31 42.5 53.5t78.5 26.5q42 4 74 -11t51 -43q22 25 56.5 37.5t76.5 4.5q32 -6 47 -19.5t19 -30.5q5 -16 0.5 -33t-10.5 -33q-11 -28 -24 -49.5t-29 -26.5zM224 110q11 25 15.5 59t4.5 76t-4.5 75.5t-15.5 57.5q-22 51 -58 48
q-17 -2 -27 -16.5t-14 -38.5q-4 -25 -3 -57t1 -70t-1 -70.5t3 -56.5q3 -24 13.5 -38.5t27.5 -16.5t32 11t26 37zM416 416q-15 3 -29.5 -6.5t-25.5 -27t-18.5 -42t-10.5 -52.5l82 -3q2 0 7 14.5t12 36.5q4 15 6.5 28.5t1 24.5t-7 18t-17.5 9z" />
    <glyph glyph-name="oslash" unicode="&#xf8;" horiz-adv-x="336" 
d="M258 428q18 -17 29.5 -37.5t17.5 -43.5t8 -46.5t1 -48.5q-2 -38 -7 -74.5t-25 -70.5q-9 -16 -22 -31t-29.5 -26t-36 -17t-42.5 -5q-9 1 -18.5 2.5t-17.5 5.5l-11 -21q-5 -10 -13 -13t-15 -1q-14 3 -11 19q0 3 2 5q5 7 8.5 13.5t7.5 13.5q-20 16 -32.5 37t-19.5 45
q-7 23 -8.5 48.5t-1.5 52.5q2 39 7 76t23 70t50.5 57.5t77.5 22.5q26 -1 49 -12l10 19q5 9 13 12.5t15 1.5q6 -2 10 -7.5t2 -13.5l-3 -4zM108 244q0 -36 2 -66t8 -54q26 67 44 138t45 138q-14 31 -38 31q-17 0 -29 -14.5t-20 -40.5q-7 -25 -9.5 -58.5t-2.5 -73.5zM216 113
q8 25 10.5 58.5t2.5 73.5q0 31 -1.5 57.5t-5.5 49.5q-13 -33 -23 -67t-20 -68.5t-20.5 -69t-23.5 -67.5q13 -21 33 -21q17 -1 29 13.5t19 40.5z" />
    <glyph glyph-name="eng" unicode="&#x14b;" horiz-adv-x="355" 
d="M320 277q-20 -125 0 -250q6 -38 4.5 -71.5t-13.5 -60.5q-11 -26 -31 -45t-44 -24q-22 -5 -39 0.5t-29 18t-17.5 30.5t-4.5 38q2 31 14 47t25 16q10 0 17.5 -9t8.5 -29q0 -11 -1.5 -18t-3.5 -15q-3 -8 -5.5 -15.5t-2.5 -15.5q1 -11 6 -17.5t13 -4.5q10 2 15 12.5t6.5 26
t1 33.5t-1.5 35q-6 86 -6.5 171t3.5 171q5 75 -2 111.5t-33 39.5q-17 1 -30 -13t-22.5 -35t-15 -45.5t-6.5 -43.5q6 -118 3 -235q0 -10 -13.5 -14t-30.5 0q-14 3 -25.5 10.5t-10.5 15.5q10 153 -36 306q-4 16 7 24q5 3 12 5t15 4q23 0 36 5q11 6 15 17q4 6 7 8q4 2 7 -2
t3 -9l6 -65q5 22 14.5 41t23 32t31 18.5t39.5 1.5q30 -7 51 -28.5t32 -49.5t12 -59t-4 -64z" />
    <glyph glyph-name="quotesingle" unicode="'" horiz-adv-x="131" 
d="M106 602q5 -10 6.5 -20t-0.5 -19v-3q-5 -32 -8.5 -58.5t-14.5 -50.5q-9 -23 -27.5 -33.5t-41.5 3.5q-5 3 -7.5 9t-0.5 11q1 5 5 6.5t8 -0.5q20 -10 30.5 10.5t9.5 62.5q-13 4 -22 17.5t-11 30.5q-1 10 1.5 21t8 20t13.5 14.5t19 4.5t19 -8.5t13 -17.5z" />
    <glyph glyph-name="quotedbl" unicode="&#x22;" horiz-adv-x="258" 
d="M78 624q22 4 36.5 -11.5t13.5 -38.5v-3q0 -42 -5.5 -72.5t-19.5 -50.5q-14 -19 -34.5 -25t-43.5 2q-12 3 -5 16t17 9q20 -5 34.5 12t13.5 58q-13 3 -22.5 16t-14.5 30q-5 19 2 36.5t28 21.5zM200 621q22 -5 28.5 -23t-1.5 -35v-3q-11 -32 -12 -58t-8 -47
q-6 -20 -22 -33.5t-39 -14.5q-5 0 -8.5 4t-3.5 11q0 6 3 10.5t8 4.5q20 2 26.5 22.5t5.5 60.5q-13 3 -22 18t-7 36q0 23 15.5 37.5t36.5 9.5z" />
    <glyph glyph-name="endash" unicode="&#x2013;" horiz-adv-x="332" 
d="M276 302q0 -5 5 -8.5t10.5 -6.5t9 -4.5t0.5 -1.5q-135 -9 -270 0q-3 0 0.5 1.5t9 4.5t10.5 6.5t5 8.5q0 4 -5 7.5t-10.5 6.5t-9 5t-0.5 2q135 9 270 0q3 0 -1 -2t-9.5 -5t-10 -6.5t-4.5 -7.5z" />
    <glyph glyph-name="endash" unicode="&#xe938;" horiz-adv-x="332" 
d="M276 302q0 -5 5 -8.5t10.5 -6.5t9 -4.5t0.5 -1.5q-135 -9 -270 0q-3 0 0.5 1.5t9 4.5t10.5 6.5t5 8.5q0 4 -5 7.5t-10.5 6.5t-9 5t-0.5 2q135 9 270 0q3 0 -1 -2t-9.5 -5t-10 -6.5t-4.5 -7.5z" />
    <glyph glyph-name="hyphen" unicode="-" horiz-adv-x="287" 
d="M237 303q0 -5 4 -8.5t8.5 -6.5t7 -4.5t-0.5 -1.5q-112 -9 -223 0q-3 0 -1 1.5t6.5 4.5t8.5 6.5t4 8.5q0 4 -3.5 7.5t-8 6.5t-7 5t0.5 2q111 9 223 0q3 0 0 -2l-7.5 -5t-8 -6.5t-3.5 -7.5z" />
    <glyph glyph-name="hyphen" unicode="&#xe922;" horiz-adv-x="287" 
d="M237 303q0 -5 4 -8.5t8.5 -6.5t7 -4.5t-0.5 -1.5q-112 -9 -223 0q-3 0 -1 1.5t6.5 4.5t8.5 6.5t4 8.5q0 4 -3.5 7.5t-8 6.5t-7 5t0.5 2q111 9 223 0q3 0 0 -2l-7.5 -5t-8 -6.5t-3.5 -7.5z" />
    <glyph glyph-name="minus" unicode="&#x2212;" horiz-adv-x="287" 
d="M237 303q0 -5 4 -8.5t8.5 -6.5t7 -4.5t-0.5 -1.5q-112 -9 -223 0q-3 0 -1 1.5t6.5 4.5t8.5 6.5t4 8.5q0 4 -3.5 7.5t-8 6.5t-7 5t0.5 2q111 9 223 0q3 0 0 -2l-7.5 -5t-8 -6.5t-3.5 -7.5z" />
    <glyph glyph-name="Agrave" unicode="&#xc0;" horiz-adv-x="421" 
d="M237 323q-26 0 -52 0.5t-52 1.5q-15 -75 -37.5 -143t-60.5 -125q-6 -7 -14 -1q-14 9 -9 24l2 4t5 6q40 55 63 124t37 146.5t24 161t24 169.5q3 13 11 14q5 0 12.5 -2t15.5 -7q8 -4 16 -7.5t15 -4.5q11 0 18 8q4 6 8 4q7 -1 10 -20q10 -85 18.5 -168t22 -159t36 -144
t62.5 -123q1 -1 1 -2q0 -4 -4.5 -10.5t-12 -13.5t-17 -14t-18.5 -11q-20 -10 -34.5 -10t-18.5 10q-26 69 -42 142t-29 150zM182 631q-12 -71 -21.5 -140t-21.5 -135h93q-11 69 -22.5 138t-27.5 137zM247 765q2 -6 -3 -12.5t-13 -11.5q-11 -5 -23 -2t-15 13q-9 21 -15.5 43.5
t-13 43.5t-15.5 39.5t-23 30.5q0 1 -1 2q-1 3 1 8t5 7q5 2 9 -2q9 -6 14 -4q6 2 11.5 6t10.5 9q13 11 22 10q5 -1 6.5 -5.5t3.5 -15.5q3 -26 6.5 -56t10.5 -53q6 -23 14 -36t8 -14z" />
    <glyph glyph-name="Aacute" unicode="&#xc1;" horiz-adv-x="423" 
d="M234 323q-26 0 -52 0.5t-52 1.5q-15 -75 -37.5 -143t-60.5 -125q-6 -7 -14 -1q-14 9 -9 24l2 4t5 6q40 55 63 124t37 146.5t24 161t24 169.5q3 13 11 14q5 0 12.5 -2t15.5 -7q8 -4 16 -7.5t15 -4.5q11 0 18 8q4 6 8 4q7 -1 10 -20q10 -85 18.5 -168t22 -159t36 -144
t62.5 -123q1 -1 1 -2q0 -4 -4.5 -10.5t-12 -13.5t-17 -14t-18.5 -11q-20 -10 -34.5 -10t-18.5 10q-26 69 -42 142t-29 150zM179 631q-12 -71 -21.5 -140t-21.5 -135h93q-11 69 -22.5 138t-27.5 137zM300 926q3 -2 4.5 -7t0.5 -8q-14 -13 -23 -31.5t-16 -39.5t-13 -44
t-15 -44q-4 -10 -15.5 -13t-22.5 2q-9 5 -13.5 11.5t-2.5 12.5q0 1 8 14t14 36q7 23 10 53t7 56q1 20 9 21q10 1 22 -10q6 -5 11.5 -9t10.5 -6t14 4q5 4 10 2z" />
    <glyph glyph-name="Acircumflex" unicode="&#xc2;" horiz-adv-x="427" 
d="M236 323q-26 0 -52 0.5t-52 1.5q-15 -75 -37.5 -143t-60.5 -125q-6 -7 -14 -1q-14 9 -9 24l2 4t5 6q40 55 63 124t37 146.5t24 161t24 169.5q3 13 11 14q5 0 12.5 -2t15.5 -7q8 -4 16 -7.5t15 -4.5q11 0 18 8q4 6 8 4q7 -1 10 -20q10 -85 18.5 -168t22 -159t36 -144
t62.5 -123q1 -1 1 -2q0 -4 -4.5 -10.5t-12 -13.5t-17 -14t-18.5 -11q-20 -10 -34.5 -10t-18.5 10q-26 69 -42 142t-29 150zM326 758q4 -6 0 -11.5t-13 -8.5q-11 -4 -23.5 -1t-17.5 11q-20 32 -29.5 66.5t-22.5 69.5q-7 -19 -13 -38t-13.5 -37.5t-17 -35t-24.5 -31.5
q-7 -6 -13 -4q-5 2 -9 8t-1 12l8 8q16 15 26.5 33t17 38.5t12 42.5t12.5 45q4 9 7 9q4 0 9 -6q6 -10 12 -10t11.5 2.5t12.5 6.5q14 8 24 7q5 -2 6 -6t0 -15q-1 -25 1 -53t10 -51q7 -23 17.5 -36.5t10.5 -14.5zM181 631q-12 -71 -21.5 -140t-21.5 -135h93q-11 69 -22.5 138
t-27.5 137z" />
    <glyph glyph-name="Adieresis" unicode="&#xc4;" horiz-adv-x="424" 
d="M237 323q-26 0 -52 0.5t-52 1.5q-15 -75 -37.5 -143t-60.5 -125q-6 -7 -14 -1q-14 9 -9 24l2 4t5 6q40 55 63 124t37 146.5t24 161t24 169.5q3 13 11 14q5 0 12.5 -2t15.5 -7q8 -4 16 -7.5t15 -4.5q11 0 18 8q4 6 8 4q7 -1 10 -20q10 -85 18.5 -168t22 -159t36 -144
t62.5 -123q1 -1 1 -2q0 -4 -4.5 -10.5t-12 -13.5t-17 -14t-18.5 -11q-20 -10 -34.5 -10t-18.5 10q-26 69 -42 142t-29 150zM182 631q-12 -71 -21.5 -140t-21.5 -135h93q-11 69 -22.5 138t-27.5 137zM182 816q13 -12 15 -33q0 -21 -15 -34q-16 -13 -36 -11q-10 1 -14 5.5
t-4 10.5t2 13.5t1 15.5q1 8 -1.5 15t-1.5 13q0 13 18 16q20 2 36 -11zM304 783q-1 -8 1 -15.5t2 -13.5q-2 -15 -19 -16q-19 -2 -35 11q-15 13 -15 34q2 21 15 33q16 13 35 11q10 -1 14 -5.5t5 -10.5t-1.5 -13t-1.5 -15z" />
    <glyph glyph-name="Amacron" unicode="&#x100;" horiz-adv-x="424" 
d="M237 323q-26 0 -52 0.5t-52 1.5q-15 -75 -37.5 -143t-60.5 -125q-6 -7 -14 -1q-14 9 -9 24l2 4t5 6q40 55 63 124t37 146.5t24 161t24 169.5q3 13 11 14q5 0 12.5 -2t15.5 -7q8 -4 16 -7.5t15 -4.5q11 0 18 8q4 6 8 4q7 -1 10 -20q10 -85 18.5 -168t22 -159t36 -144
t62.5 -123q1 -1 1 -2q0 -4 -4.5 -10.5t-12 -13.5t-17 -14t-18.5 -11q-20 -10 -34.5 -10t-18.5 10q-26 69 -42 142t-29 150zM182 631q-12 -71 -21.5 -140t-21.5 -135h93q-11 69 -22.5 138t-27.5 137zM315 758q0 -3 4 -6t8.5 -5.5t7.5 -4t0 -1.5q-118 -6 -236 0q-3 0 -0.5 1.5
t7 4t9 5.5t4.5 6t-4 6t-8.5 5.5t-7.5 4t0 1.5q118 6 236 0q3 0 0 -1.5t-7.5 -4t-8.5 -5.5t-4 -6z" />
    <glyph glyph-name="Atilde" unicode="&#xc3;" horiz-adv-x="433" 
d="M241 323q-26 0 -52 0.5t-52 1.5q-15 -75 -37.5 -143t-60.5 -125q-6 -7 -14 -1q-14 9 -9 24l2 4t5 6q40 55 63 124t37 146.5t24 161t24 169.5q3 13 11 14q5 0 12.5 -2t15.5 -7q8 -4 16 -7.5t15 -4.5q11 0 18 8q4 6 8 4q7 -1 10 -20q10 -85 18.5 -168t22 -159t36 -144
t62.5 -123q1 -1 1 -2q0 -4 -4.5 -10.5t-12 -13.5t-17 -14t-18.5 -11q-20 -10 -34.5 -10t-18.5 10q-26 69 -42 142t-29 150zM376 866q5 -2 4 -5.5t-5 -7.5q-23 -22 -30 -38.5t-14 -30.5q-6 -13 -16 -21.5t-28 -9.5q-11 -1 -25.5 1.5t-40.5 10.5q-15 5 -29.5 8t-29.5 4
t-28.5 -10.5t-27.5 -28.5q-3 -4 -10 -7t-12 -2q-6 1 -5 5t5 8q13 13 20.5 24.5t11.5 22t6 19.5t5 17q5 17 17 27t36 12q14 1 33 -1.5t47 -10.5q15 -5 28 -8t24 -4q26 -2 41 17q3 4 10 7t13 2zM186 631q-12 -71 -21.5 -140t-21.5 -135h93q-11 69 -22.5 138t-27.5 137z" />
    <glyph glyph-name="Abreve" unicode="&#x102;" horiz-adv-x="432" 
d="M240 323q-26 0 -52 0.5t-52 1.5q-15 -75 -37.5 -143t-60.5 -125q-6 -7 -14 -1q-14 9 -9 24l2 4t5 6q40 55 63 124t37 146.5t24 161t24 169.5q3 13 11 14q5 0 12.5 -2t15.5 -7q8 -4 16 -7.5t15 -4.5q11 0 18 8q4 6 8 4q7 -1 10 -20q10 -85 18.5 -168t22 -159t36 -144
t62.5 -123q1 -1 1 -2q0 -4 -4.5 -10.5t-12 -13.5t-17 -14t-18.5 -11q-20 -10 -34.5 -10t-18.5 10q-26 69 -42 142t-29 150zM335 894q5 -1 6.5 -4.5t-0.5 -5.5q-23 -25 -32 -48t-16 -45q-5 -11 -10 -20t-14 -17q-9 -7 -21.5 -11.5t-27.5 -4.5q-31 0 -54 15q-11 8 -17.5 17.5
t-11.5 20.5q-9 23 -19 45.5t-33 47.5q-2 2 -1.5 5t5.5 5q6 2 11.5 -0.5t7.5 -4.5q19 -28 41.5 -41t62.5 -14q42 1 64.5 14t41.5 41q2 2 7 4.5t10 0.5zM185 631q-12 -71 -21.5 -140t-21.5 -135h93q-11 69 -22.5 138t-27.5 137z" />
    <glyph glyph-name="Aring" unicode="&#xc5;" horiz-adv-x="428" 
d="M238 323q-26 0 -52 0.5t-52 1.5q-15 -75 -37.5 -143t-60.5 -125q-6 -7 -14 -1q-14 9 -9 24l2 4t5 6q40 55 63 124t37 146.5t24 161t24 169.5q3 13 11 14q5 0 12.5 -2t15.5 -7q8 -4 16 -7.5t15 -4.5q11 0 18 8q4 6 8 4q7 -1 10 -20q10 -85 18.5 -168t22 -159t36 -144
t62.5 -123q1 -1 1 -2q0 -4 -4.5 -10.5t-12 -13.5t-17 -14t-18.5 -11q-20 -10 -34.5 -10t-18.5 10q-26 69 -42 142t-29 150zM283 921q9 -17 11 -34t2 -34q-2 -18 -4 -36.5t-13 -36.5q-10 -17 -28.5 -30t-42.5 -11q-21 0 -37 11.5t-24 27.5t-10 33t-2 34q2 18 4 37t12 36
t27.5 30t41.5 12q22 0 38.5 -12t24.5 -27zM183 631q-12 -71 -21.5 -140t-21.5 -135h93q-11 69 -22.5 138t-27.5 137zM217 769q13 0 17.5 17.5t3.5 62.5q1 45 -3.5 62.5t-17.5 17.5q-17 0 -21 -22.5t-4 -57.5t4 -57.5t21 -22.5z" />
    <glyph glyph-name="Aogonek" unicode="&#x104;" horiz-adv-x="424" 
d="M383 -162q8 2 15 -4.5t9 -14.5q5 -19 -15 -45q-10 -12 -24.5 -22t-33.5 -12q-27 -2 -46 11t-30 30q-11 18 -13 36.5t1 38.5t11 40t20 48q8 17 18.5 37t25.5 40q-15 0 -18 10q-26 69 -42 142t-29 150q-26 0 -52 0.5t-52 1.5q-15 -75 -37.5 -143t-60.5 -125q-6 -7 -14 -1
q-14 9 -9 24l2 4t5 6q40 55 63 124t37 146.5t24 161t24 169.5q3 13 11 14q5 0 12.5 -2t15.5 -7q8 -4 16 -7.5t15 -4.5q11 0 18 8q4 6 8 4q7 -1 10 -20q10 -85 18.5 -168t22 -159t36 -144t62.5 -123q1 -1 1 -2q0 -8 -12.5 -20.5t-28.5 -22.5q-23 -25 -33 -52t-16 -52
q-6 -29 -8.5 -52t-3.5 -44q-1 -32 6 -50t24 -16q12 1 18 10t9 22q4 12 8 22.5t12 12.5zM177 631q-12 -71 -21.5 -140t-21.5 -135h93q-11 69 -22.5 138t-27.5 137z" />
    <glyph glyph-name="Cacute" unicode="&#x106;" horiz-adv-x="352" 
d="M189 -10q-27 -3 -50 5.5t-42 24.5t-33.5 38t-23.5 46q-20 51 -23 106.5t-1 116.5q1 34 2.5 65.5t6.5 63.5q4 32 11.5 63.5t19.5 60.5q11 29 28.5 54.5t39 43t47.5 25t55 1.5q26 -5 45.5 -20t30.5 -32q24 -35 16 -70q-4 -20 -15.5 -29.5t-22.5 -5.5q-15 5 -23.5 27
t-16.5 46q-7 20 -18 35.5t-28 17.5q-24 2 -42 -24t-29 -71t-14.5 -104t-3.5 -128q0 -73 3 -131.5t14 -101.5t31.5 -66.5t47.5 -20.5q19 2 37 15.5t33 35t26 48.5t16 55q1 7 4 10t6 5q4 2 8 -1.5t6 -8.5v-4.5t-2 -10.5q-7 -34 -18.5 -65t-30.5 -57q-18 -25 -43 -40.5
t-54 -17.5zM280 925q3 -2 4.5 -7t0.5 -8q-14 -13 -23 -31.5t-16 -39.5t-13 -44t-15 -44q-4 -10 -15.5 -13t-22.5 2q-9 5 -13.5 11.5t-2.5 12.5q0 1 8 14t14 36q7 23 10 53t7 56q1 20 9 21q10 1 22 -10q6 -5 11.5 -9t10.5 -6t14 4q5 4 10 2z" />
    <glyph glyph-name="Ccircumflex" unicode="&#x108;" horiz-adv-x="357" 
d="M192 -10q-27 -3 -50 5.5t-42 24.5t-33.5 38t-23.5 46q-20 51 -23 106.5t-1 116.5q1 34 2.5 65.5t6.5 63.5q4 32 11.5 63.5t19.5 60.5q11 29 28.5 54.5t39 43t47.5 25t55 1.5q26 -5 45.5 -20t30.5 -32q24 -35 16 -70q-4 -20 -15.5 -29.5t-22.5 -5.5q-15 5 -23.5 27
t-16.5 46q-7 20 -18 35.5t-28 17.5q-24 2 -42 -24t-29 -71t-14.5 -104t-3.5 -128q0 -73 3 -131.5t14 -101.5t31.5 -66.5t47.5 -20.5q19 2 37 15.5t33 35t26 48.5t16 55q1 7 4 10t6 5q4 2 8 -1.5t6 -8.5v-4.5t-2 -10.5q-7 -34 -18.5 -65t-30.5 -57q-18 -25 -43 -40.5
t-54 -17.5zM307 757q4 -6 0 -11.5t-13 -8.5q-11 -4 -23.5 -1t-17.5 11q-20 32 -29.5 66.5t-22.5 69.5q-7 -19 -13 -38t-13.5 -37.5t-17 -35t-24.5 -31.5q-7 -6 -13 -4q-5 2 -9 8t-1 12l8 8q16 15 26.5 33t17 38.5t12 42.5t12.5 45q4 9 7 9q4 0 9 -6q6 -10 12 -10t11.5 2.5
t12.5 6.5q14 8 24 7q5 -2 6 -6t0 -15q-1 -25 1 -53t10 -51q7 -23 17.5 -36.5t10.5 -14.5z" />
    <glyph glyph-name="Ccaron" unicode="&#x10c;" horiz-adv-x="358" 
d="M193 -10q-27 -3 -50 5.5t-42 24.5t-33.5 38t-23.5 46q-20 51 -23 106.5t-1 116.5q1 34 2.5 65.5t6.5 63.5q4 32 11.5 63.5t19.5 60.5q11 29 28.5 54.5t39 43t47.5 25t55 1.5q26 -5 45.5 -20t30.5 -32q24 -35 16 -70q-4 -20 -15.5 -29.5t-22.5 -5.5q-15 5 -23.5 27
t-16.5 46q-7 20 -18 35.5t-28 17.5q-24 2 -42 -24t-29 -71t-14.5 -104t-3.5 -128q0 -73 3 -131.5t14 -101.5t31.5 -66.5t47.5 -20.5q19 2 37 15.5t33 35t26 48.5t16 55q1 7 4 10t6 5q4 2 8 -1.5t6 -8.5v-4.5t-2 -10.5q-7 -34 -18.5 -65t-30.5 -57q-18 -25 -43 -40.5
t-54 -17.5zM301 932q5 -2 9 -8t0 -12q-1 -2 -7 -8q-17 -15 -27 -33t-16.5 -38.5t-12.5 -43t-13 -44.5q-2 -8 -7 -8q-3 -2 -8 5l-6 7.5t-7 2.5q-9 0 -23 -9q-14 -8 -24 -7q-5 2 -6 6t0 15q1 26 -1 54t-10 51q-7 23 -17.5 36t-11.5 14q-3 6 1 11.5t13 8.5q11 4 23.5 1
t17.5 -11q20 -32 29.5 -66.5t22.5 -69.5q13 38 26 75.5t42 66.5q7 6 13 4z" />
    <glyph glyph-name="Cdotaccent" unicode="&#x10a;" horiz-adv-x="352" 
d="M193 -10q-27 -3 -50 5.5t-42 24.5t-33.5 38t-23.5 46q-20 51 -23 106.5t-1 116.5q1 34 2.5 65.5t6.5 63.5q4 32 11.5 63.5t19.5 60.5q11 29 28.5 54.5t39 43t47.5 25t55 1.5q26 -5 45.5 -20t30.5 -32q24 -35 16 -70q-4 -20 -15.5 -29.5t-22.5 -5.5q-15 5 -23.5 27
t-16.5 46q-7 20 -18 35.5t-28 17.5q-24 2 -42 -24t-29 -71t-14.5 -104t-3.5 -128q0 -73 3 -131.5t14 -101.5t31.5 -66.5t47.5 -20.5q19 2 37 15.5t33 35t26 48.5t16 55q1 7 4 10t6 5q4 2 8 -1.5t6 -8.5v-4.5t-2 -10.5q-7 -34 -18.5 -65t-30.5 -57q-18 -25 -43 -40.5
t-54 -17.5zM226 816q4 -7 5 -14.5t1 -15.5t-1 -16t-5 -15q-4 -8 -10.5 -13t-16.5 -5q-9 0 -15.5 5t-10.5 13q-4 7 -5 15t-1 16t1 15.5t5 14.5t10.5 12.5t15.5 5.5q10 0 16.5 -5.5t10.5 -12.5z" />
    <glyph glyph-name="Ccedilla" unicode="&#xc7;" horiz-adv-x="355" 
d="M255 -102q17 -25 23 -60q2 -14 0 -29.5t-11 -32.5q-8 -15 -24.5 -27.5t-39.5 -13.5q-29 0 -50 20t-27 45q-3 7 -1 16q3 12 11 9q6 -1 10 -13q4 -19 14.5 -31t22.5 -14q10 -1 16.5 5t10.5 16t5.5 23t1.5 26q0 14 -2.5 28t-7 25.5t-12 18t-19.5 5.5q-1 20 -1.5 38.5
t-2.5 37.5q-23 1 -43.5 11t-37 25.5t-29 35.5t-21.5 42q-20 51 -23 106.5t-1 116.5q1 34 2.5 65.5t6.5 63.5q4 32 11.5 63.5t19.5 60.5q11 29 28.5 54.5t39 43t47.5 25t55 1.5q26 -5 45.5 -20t30.5 -32q24 -35 16 -70q-4 -20 -15.5 -29.5t-22.5 -5.5q-15 5 -23.5 27
t-16.5 46q-7 20 -18 35.5t-28 17.5q-24 2 -42 -24t-29 -71t-14.5 -104t-3.5 -128q0 -73 3 -131.5t14 -101.5t31.5 -66.5t47.5 -20.5q19 2 37 15.5t33 35t26 48.5t16 55q1 7 4 10t6 5q4 2 8 -1.5t6 -8.5v-4.5t-2 -10.5q-7 -34 -18.5 -65t-30.5 -57q-17 -24 -41 -39.5
t-52 -18.5v-27t1 -27q21 1 35.5 -11t24.5 -27z" />
    <glyph glyph-name="Dcaron" unicode="&#x10e;" horiz-adv-x="465" 
d="M415 123q-9 -27 -23 -51t-33 -42.5t-43.5 -29.5t-54.5 -11q-44 -1 -79 21t-52 51l-4 -25q-2 -10 -21 -9t-40 11q-20 9 -34.5 22.5t-10.5 21.5q105 269 -1 536q-5 16 5 22q5 2 13 4t16 2q11 0 20.5 1t18.5 4q11 5 15 16q2 6 7 8q4 1 7 -2.5t4 -7.5q4 -21 7.5 -41.5
t6.5 -41.5q9 39 24 64t33 39.5t38.5 19.5t41.5 4q26 -1 48 -11t40 -26.5t31.5 -38.5t22.5 -46q18 -49 20 -103.5t1 -114.5q-3 -68 -4.5 -129.5t-19.5 -116.5zM334 121q14 45 16.5 103t2.5 127t-2.5 126t-14.5 101q-11 44 -32.5 70.5t-50.5 25.5q-20 0 -38.5 -14t-32.5 -38
q-14 -25 -22 -57.5t-12 -70.5q17 -187 -9 -373q11 -41 37 -67.5t61 -28.5t60 24.5t37 71.5zM379 934q5 -2 9 -8t0 -12q-1 -2 -7 -8q-17 -15 -27 -33t-16.5 -38.5t-12.5 -43t-13 -44.5q-2 -8 -7 -8q-3 -2 -8 5l-6 7.5t-7 2.5q-9 0 -23 -9q-14 -8 -24 -7q-5 2 -6 6t0 15
q1 26 -1 54t-10 51q-7 23 -17.5 36t-11.5 14q-3 6 1 11.5t13 8.5q11 4 23.5 1t17.5 -11q20 -32 29.5 -66.5t22.5 -69.5q13 38 26 75.5t42 66.5q7 6 13 4z" />
    <glyph glyph-name="Eth" unicode="&#xd0;" horiz-adv-x="495" 
d="M442 123q-9 -27 -23 -51t-33 -42.5t-43.5 -29.5t-54.5 -11q-44 -1 -79 21t-52 51l-4 -25q-2 -10 -21 -9t-40 11q-20 9 -34.5 22.5t-10.5 21.5q38 98 48 196q-17 0 -33.5 1t-33.5 3q-3 0 -1 1.5t6.5 4.5t8.5 6.5t4 8.5q0 4 -3.5 7.5t-8 6.5t-7 5t0.5 2q17 2 35 2.5t36 1.5
q4 143 -53 290q-5 16 5 22q5 2 13 4t16 2q11 0 20.5 1t18.5 4q11 5 15 16q2 6 7 8q4 1 7 -2.5t4 -7.5q4 -21 7.5 -41.5t6.5 -41.5q9 39 24 64t33 39.5t38.5 19.5t41.5 4q26 -1 48 -11t40 -26.5t31.5 -38.5t22.5 -46q18 -49 20 -103.5t1 -114.5q-3 -68 -4.5 -129.5
t-19.5 -116.5zM232 303q0 -5 4 -8.5t8.5 -6.5t7 -4.5t-0.5 -1.5q-18 -2 -36 -3t-35 -1q-2 -40 -5.5 -79t-8.5 -78q11 -41 37 -67.5t61 -28.5t60 24.5t37 71.5q14 45 16.5 103t2.5 127t-2.5 126t-14.5 101q-11 44 -32.5 70.5t-50.5 25.5q-20 0 -38.5 -14t-32.5 -38
q-14 -25 -22 -57.5t-12 -70.5q8 -83 6 -166q17 -1 35 -1.5t35 -2.5q3 0 0 -2l-7.5 -5t-8 -6.5t-3.5 -7.5z" />
    <glyph glyph-name="Dcroat" unicode="&#x110;" horiz-adv-x="542" 
 />
    <glyph glyph-name="Egrave" unicode="&#xc8;" 
d="M330 84q2 -6 -0.5 -13.5t-7.5 -11.5q-147 -120 -293 0q-4 3 -7.5 10t-1.5 12q73 268 0 537q-1 5 2 11.5t7 10.5q141 114 280 10q5 -4 8 -11t1 -13q-4 -14 -15 -6q-88 60 -174 38q5 -66 7 -131.5t3 -131.5q28 1 55.5 0.5t56.5 -3.5q10 -2 8 -17q0 -16 -9 -16
q-28 1 -55.5 1h-55.5q0 -81 -2.5 -160t-7.5 -159q94 -24 186 47q11 9 15 -4zM207 766q2 -6 -3 -12.5t-13 -11.5q-11 -5 -23 -2t-15 13q-9 21 -15.5 43.5t-13 43.5t-15.5 39.5t-23 30.5q0 1 -1 2q-1 3 1 8t5 7q5 2 9 -2q9 -6 14 -4q6 2 11.5 6t10.5 9q13 11 22 10
q5 -1 6.5 -5.5t3.5 -15.5q3 -26 6.5 -56t10.5 -53q6 -23 14 -36t8 -14z" />
    <glyph glyph-name="Eacute" unicode="&#xc9;" 
d="M326 84q2 -6 -0.5 -13.5t-7.5 -11.5q-147 -120 -293 0q-4 3 -7.5 10t-1.5 12q73 268 0 537q-1 5 2 11.5t7 10.5q141 114 280 10q5 -4 8 -11t1 -13q-4 -14 -15 -6q-88 60 -174 38q5 -66 7 -131.5t3 -131.5q28 1 55.5 0.5t56.5 -3.5q10 -2 8 -17q0 -16 -9 -16
q-28 1 -55.5 1h-55.5q0 -81 -2.5 -160t-7.5 -159q94 -24 186 47q11 9 15 -4zM259 927q3 -2 4.5 -7t0.5 -8q-14 -13 -23 -31.5t-16 -39.5t-13 -44t-15 -44q-4 -10 -15.5 -13t-22.5 2q-9 5 -13.5 11.5t-2.5 12.5q0 1 8 14t14 36q7 23 10 53t7 56q1 20 9 21q10 1 22 -10
q6 -5 11.5 -9t10.5 -6t14 4q5 4 10 2z" />
    <glyph glyph-name="Ecircumflex" unicode="&#xca;" horiz-adv-x="339" 
d="M328 84q2 -6 -0.5 -13.5t-7.5 -11.5q-147 -120 -293 0q-4 3 -7.5 10t-1.5 12q73 268 0 537q-1 5 2 11.5t7 10.5q141 114 280 10q5 -4 8 -11t1 -13q-4 -14 -15 -6q-88 60 -174 38q5 -66 7 -131.5t3 -131.5q28 1 55.5 0.5t56.5 -3.5q10 -2 8 -17q0 -16 -9 -16
q-28 1 -55.5 1h-55.5q0 -81 -2.5 -160t-7.5 -159q94 -24 186 47q11 9 15 -4zM285 759q4 -6 0 -11.5t-13 -8.5q-11 -4 -23.5 -1t-17.5 11q-20 32 -29.5 66.5t-22.5 69.5q-7 -19 -13 -38t-13.5 -37.5t-17 -35t-24.5 -31.5q-7 -6 -13 -4q-5 2 -9 8t-1 12l8 8q16 15 26.5 33
t17 38.5t12 42.5t12.5 45q4 9 7 9q4 0 9 -6q6 -10 12 -10t11.5 2.5t12.5 6.5q14 8 24 7q5 -2 6 -6t0 -15q-1 -25 1 -53t10 -51q7 -23 17.5 -36.5t10.5 -14.5z" />
    <glyph glyph-name="Ecaron" unicode="&#x11a;" horiz-adv-x="341" 
d="M330 84q2 -6 -0.5 -13.5t-7.5 -11.5q-147 -120 -293 0q-4 3 -7.5 10t-1.5 12q73 268 0 537q-1 5 2 11.5t7 10.5q141 114 280 10q5 -4 8 -11t1 -13q-4 -14 -15 -6q-88 60 -174 38q5 -66 7 -131.5t3 -131.5q28 1 55.5 0.5t56.5 -3.5q10 -2 8 -17q0 -16 -9 -16
q-28 1 -55.5 1h-55.5q0 -81 -2.5 -160t-7.5 -159q94 -24 186 47q11 9 15 -4zM280 934q5 -2 9 -8t0 -12q-1 -2 -7 -8q-17 -15 -27 -33t-16.5 -38.5t-12.5 -43t-13 -44.5q-2 -8 -7 -8q-3 -2 -8 5l-6 7.5t-7 2.5q-9 0 -23 -9q-14 -8 -24 -7q-5 2 -6 6t0 15q1 26 -1 54t-10 51
q-7 23 -17.5 36t-11.5 14q-3 6 1 11.5t13 8.5q11 4 23.5 1t17.5 -11q20 -32 29.5 -66.5t22.5 -69.5q13 38 26 75.5t42 66.5q7 6 13 4z" />
    <glyph glyph-name="Edieresis" unicode="&#xcb;" horiz-adv-x="339" 
d="M331 84q2 -6 -0.5 -13.5t-7.5 -11.5q-147 -120 -293 0q-4 3 -7.5 10t-1.5 12q73 268 0 537q-1 5 2 11.5t7 10.5q141 114 280 10q5 -4 8 -11t1 -13q-4 -14 -15 -6q-88 60 -174 38q5 -66 7 -131.5t3 -131.5q28 1 55.5 0.5t56.5 -3.5q10 -2 8 -17q0 -16 -9 -16
q-28 1 -55.5 1h-55.5q0 -81 -2.5 -160t-7.5 -159q94 -24 186 47q11 9 15 -4zM143 817q13 -12 15 -33q0 -21 -15 -34q-16 -13 -36 -11q-10 1 -14 5.5t-4 10.5t2 13.5t1 15.5q1 8 -1.5 15t-1.5 13q0 13 18 16q20 2 36 -11zM265 784q-1 -8 1 -15.5t2 -13.5q-2 -15 -19 -16
q-19 -2 -35 11q-15 13 -15 34q2 21 15 33q16 13 35 11q10 -1 14 -5.5t5 -10.5t-1.5 -13t-1.5 -15z" />
    <glyph glyph-name="Edotaccent" unicode="&#x116;" 
d="M329 84q2 -6 -0.5 -13.5t-7.5 -11.5q-147 -120 -293 0q-4 3 -7.5 10t-1.5 12q73 268 0 537q-1 5 2 11.5t7 10.5q141 114 280 10q5 -4 8 -11t1 -13q-4 -14 -15 -6q-88 60 -174 38q5 -66 7 -131.5t3 -131.5q28 1 55.5 0.5t56.5 -3.5q10 -2 8 -17q0 -16 -9 -16
q-28 1 -55.5 1h-55.5q0 -81 -2.5 -160t-7.5 -159q94 -24 186 47q11 9 15 -4zM204 818q4 -7 5 -14.5t1 -15.5t-1 -16t-5 -15q-4 -8 -10.5 -13t-16.5 -5q-9 0 -15.5 5t-10.5 13q-4 7 -5 15t-1 16t1 15.5t5 14.5t10.5 12.5t15.5 5.5q10 0 16.5 -5.5t10.5 -12.5z" />
    <glyph glyph-name="Emacron" unicode="&#x112;" horiz-adv-x="341" 
d="M332 84q2 -6 -0.5 -13.5t-7.5 -11.5q-147 -120 -293 0q-4 3 -7.5 10t-1.5 12q73 268 0 537q-1 5 2 11.5t7 10.5q141 114 280 10q5 -4 8 -11t1 -13q-4 -14 -15 -6q-88 60 -174 38q5 -66 7 -131.5t3 -131.5q28 1 55.5 0.5t56.5 -3.5q10 -2 8 -17q0 -16 -9 -16
q-28 1 -55.5 1h-55.5q0 -81 -2.5 -160t-7.5 -159q94 -24 186 47q11 9 15 -4zM277 759q0 -3 4 -6t8.5 -5.5t7.5 -4t0 -1.5q-118 -6 -236 0q-3 0 -0.5 1.5t7 4t9 5.5t4.5 6t-4 6t-8.5 5.5t-7.5 4t0 1.5q118 6 236 0q3 0 0 -1.5t-7.5 -4t-8.5 -5.5t-4 -6z" />
    <glyph glyph-name="Ebreve" unicode="&#x114;" horiz-adv-x="345" 
d="M333 84q2 -6 -0.5 -13.5t-7.5 -11.5q-147 -120 -293 0q-4 3 -7.5 10t-1.5 12q73 268 0 537q-1 5 2 11.5t7 10.5q141 114 280 10q5 -4 8 -11t1 -13q-4 -14 -15 -6q-88 60 -174 38q5 -66 7 -131.5t3 -131.5q28 1 55.5 0.5t56.5 -3.5q10 -2 8 -17q0 -16 -9 -16
q-28 1 -55.5 1h-55.5q0 -81 -2.5 -160t-7.5 -159q94 -24 186 47q11 9 15 -4zM295 895q5 -1 6.5 -4.5t-0.5 -5.5q-23 -25 -32 -48t-16 -45q-5 -11 -10 -20t-14 -17q-9 -7 -21.5 -11.5t-27.5 -4.5q-31 0 -54 15q-11 8 -17.5 17.5t-11.5 20.5q-9 23 -19 45.5t-33 47.5
q-2 2 -1.5 5t5.5 5q6 2 11.5 -0.5t7.5 -4.5q19 -28 41.5 -41t62.5 -14q42 1 64.5 14t41.5 41q2 2 7 4.5t10 0.5z" />
    <glyph glyph-name="Eogonek" unicode="&#x118;" horiz-adv-x="342" 
d="M305 -162q8 2 15 -4.5t9 -14.5q5 -19 -15 -45q-10 -12 -24.5 -22t-33.5 -12q-27 -2 -46 11t-30 30q-11 18 -13 36.5t1 38.5t11 40t20 48q8 15 16.5 32t19.5 34q-106 -38 -211 49q-4 3 -7.5 10t-1.5 12q73 268 0 537q-1 5 2 11.5t7 10.5q141 114 280 10q5 -4 8 -11t1 -13
q-4 -14 -15 -6q-88 60 -174 38q5 -66 7 -131.5t3 -131.5q28 1 55.5 0.5t56.5 -3.5q10 -2 8 -17q0 -16 -9 -16q-28 1 -55.5 1h-55.5q0 -81 -2.5 -160t-7.5 -159q94 -24 186 47q11 9 15 -4q2 -6 -0.5 -13.5t-7.5 -11.5l-22 -17q-26 -26 -37.5 -54.5t-17.5 -54.5
q-6 -29 -8.5 -52t-3.5 -44q-1 -32 6 -50t24 -16q12 1 18 10t9 22q4 12 8 22.5t12 12.5z" />
    <glyph glyph-name="Gcircumflex" unicode="&#x11c;" horiz-adv-x="361" 
d="M336 310q2 -56 1 -106.5t-17 -97.5q-8 -23 -20 -43.5t-28.5 -36.5t-37 -26t-44.5 -11q-27 -2 -50 7t-41.5 25.5t-33 38t-23.5 45.5q-20 51 -22.5 106t-0.5 116q1 34 2.5 65.5t6.5 63.5q4 32 11 63t19 60q11 29 28 54t38.5 43t47.5 26.5t55 3.5q49 -8 77 -48
q24 -35 16 -70q-4 -20 -15 -30.5t-23 -6.5q-14 4 -23.5 26t-16.5 45q-7 20 -18.5 35t-28.5 17q-24 2 -42 -24.5t-28 -71.5q-11 -45 -14 -104t-3 -128q0 -72 3 -130.5t14 -102.5q11 -42 30.5 -66t47.5 -22q26 2 43 25.5t25 59.5q9 37 10 83.5t-1 100.5q-18 -2 -35.5 -3
t-35.5 -1q-10 -2 -10 17q0 8 2.5 13t6.5 5q30 0 59.5 1t59.5 3q3 0 6 -4t3 -10v-5zM309 759q4 -6 0 -11.5t-13 -8.5q-11 -4 -23.5 -1t-17.5 11q-20 32 -29.5 66.5t-22.5 69.5q-7 -19 -13 -38t-13.5 -37.5t-17 -35t-24.5 -31.5q-7 -6 -13 -4q-5 2 -9 8t-1 12l8 8
q16 15 26.5 33t17 38.5t12 42.5t12.5 45q4 9 7 9q4 0 9 -6q6 -10 12 -10t11.5 2.5t12.5 6.5q14 8 24 7q5 -2 6 -6t0 -15q-1 -25 1 -53t10 -51q7 -23 17.5 -36.5t10.5 -14.5z" />
    <glyph glyph-name="Gdotaccent" unicode="&#x120;" horiz-adv-x="356" 
d="M337 310q2 -56 1 -106.5t-17 -97.5q-8 -23 -20 -43.5t-28.5 -36.5t-37 -26t-44.5 -11q-27 -2 -50 7t-41.5 25.5t-33 38t-23.5 45.5q-20 51 -22.5 106t-0.5 116q1 34 2.5 65.5t6.5 63.5q4 32 11 63t19 60q11 29 28 54t38.5 43t47.5 26.5t55 3.5q49 -8 77 -48
q24 -35 16 -70q-4 -20 -15 -30.5t-23 -6.5q-14 4 -23.5 26t-16.5 45q-7 20 -18.5 35t-28.5 17q-24 2 -42 -24.5t-28 -71.5q-11 -45 -14 -104t-3 -128q0 -72 3 -130.5t14 -102.5q11 -42 30.5 -66t47.5 -22q26 2 43 25.5t25 59.5q9 37 10 83.5t-1 100.5q-18 -2 -35.5 -3
t-35.5 -1q-10 -2 -10 17q0 8 2.5 13t6.5 5q30 0 59.5 1t59.5 3q3 0 6 -4t3 -10v-5zM228 818q4 -7 5 -14.5t1 -15.5t-1 -16t-5 -15q-4 -8 -10.5 -13t-16.5 -5q-9 0 -15.5 5t-10.5 13q-4 7 -5 15t-1 16t1 15.5t5 14.5t10.5 12.5t15.5 5.5q10 0 16.5 -5.5t10.5 -12.5z" />
    <glyph glyph-name="Gbreve" unicode="&#x11e;" horiz-adv-x="365" 
d="M340 310q2 -56 1 -106.5t-17 -97.5q-8 -23 -20 -43.5t-28.5 -36.5t-37 -26t-44.5 -11q-27 -2 -50 7t-41.5 25.5t-33 38t-23.5 45.5q-20 51 -22.5 106t-0.5 116q1 34 2.5 65.5t6.5 63.5q4 32 11 63t19 60q11 29 28 54t38.5 43t47.5 26.5t55 3.5q49 -8 77 -48
q24 -35 16 -70q-4 -20 -15 -30.5t-23 -6.5q-14 4 -23.5 26t-16.5 45q-7 20 -18.5 35t-28.5 17q-24 2 -42 -24.5t-28 -71.5q-11 -45 -14 -104t-3 -128q0 -72 3 -130.5t14 -102.5q11 -42 30.5 -66t47.5 -22q26 2 43 25.5t25 59.5q9 37 10 83.5t-1 100.5q-18 -2 -35.5 -3
t-35.5 -1q-10 -2 -10 17q0 8 2.5 13t6.5 5q30 0 59.5 1t59.5 3q3 0 6 -4t3 -10v-5zM318 895q5 -1 6.5 -4.5t-0.5 -5.5q-23 -25 -32 -48t-16 -45q-5 -11 -10 -20t-14 -17q-9 -7 -21.5 -11.5t-27.5 -4.5q-31 0 -54 15q-11 8 -17.5 17.5t-11.5 20.5q-9 23 -19 45.5t-33 47.5
q-2 2 -1.5 5t5.5 5q6 2 11.5 -0.5t7.5 -4.5q19 -28 41.5 -41t62.5 -14q42 1 64.5 14t41.5 41q2 2 7 4.5t10 0.5z" />
    <glyph glyph-name="Hcircumflex" unicode="&#x124;" horiz-adv-x="451" 
d="M322 31q-11 82 -16.5 164t-5.5 165h-150q0 -83 -5.5 -165t-16.5 -164q-2 -10 -20.5 -9t-40.5 12q-20 11 -34.5 25.5t-11.5 22.5q93 269 0 536q-6 17 6 23q4 3 12 5t16 3q22 0 39 7q10 4 16 16q1 6 7 8q4 2 7 -2t4 -8q9 -69 14.5 -138t7.5 -139q75 4 151 0q1 70 6.5 139
t15.5 138q1 11 4.5 14t9.5 1q4 -2 10.5 -7t13.5 -12q18 -20 34 -29q10 -5 20 -1q4 1 9 -1q4 -2 5.5 -8t-0.5 -9q-93 -267 0 -536q3 -8 -13.5 -24t-38.5 -27q-20 -10 -36.5 -10.5t-18.5 10.5zM334 755q4 -6 0 -11.5t-13 -8.5q-11 -4 -23.5 -1t-17.5 11q-20 32 -29.5 66.5
t-22.5 69.5q-7 -19 -13 -38t-13.5 -37.5t-17 -35t-24.5 -31.5q-7 -6 -13 -4q-5 2 -9 8t-1 12l8 8q16 15 26.5 33t17 38.5t12 42.5t12.5 45q4 9 7 9q4 0 9 -6q6 -10 12 -10t11.5 2.5t12.5 6.5q14 8 24 7q5 -2 6 -6t0 -15q-1 -25 1 -53t10 -51q7 -23 17.5 -36.5t10.5 -14.5z
" />
    <glyph glyph-name="Igrave" unicode="&#xcc;" horiz-adv-x="338" 
d="M331 84q2 -6 -0.5 -13t-7.5 -12q-152 -120 -304 0q-5 4 -7.5 11.5t-0.5 13.5q4 13 15 5q48 -35 93 -47q22 307 0 615q-45 -12 -93 -47q-5 -3 -9 -1.5t-6 7.5q-2 5 0.5 12.5t7.5 11.5q152 120 304 0q5 -5 7.5 -12t0.5 -12q-4 -14 -15 -6q-48 35 -93 47q-23 -308 0 -615
q45 12 93 47q11 8 15 -5zM203 767q2 -6 -3 -12.5t-13 -11.5q-11 -5 -23 -2t-15 13q-9 21 -15.5 43.5t-13 43.5t-15.5 39.5t-23 30.5q0 1 -1 2q-1 3 1 8t5 7q5 2 9 -2q9 -6 14 -4q6 2 11.5 6t10.5 9q13 11 22 10q5 -1 6.5 -5.5t3.5 -15.5q3 -26 6.5 -56t10.5 -53
q6 -23 14 -36t8 -14z" />
    <glyph glyph-name="Iacute" unicode="&#xcd;" horiz-adv-x="338" 
d="M327 84q2 -6 -0.5 -13t-7.5 -12q-152 -120 -304 0q-5 4 -7.5 11.5t-0.5 13.5q4 13 15 5q48 -35 93 -47q22 307 0 615q-45 -12 -93 -47q-5 -3 -9 -1.5t-6 7.5q-2 5 0.5 12.5t7.5 11.5q152 120 304 0q5 -5 7.5 -12t0.5 -12q-4 -14 -15 -6q-48 35 -93 47q-23 -308 0 -615
q45 12 93 47q11 8 15 -5zM255 928q3 -2 4.5 -7t0.5 -8q-14 -13 -23 -31.5t-16 -39.5t-13 -44t-15 -44q-4 -10 -15.5 -13t-22.5 2q-9 5 -13.5 11.5t-2.5 12.5q0 1 8 14t14 36q7 23 10 53t7 56q1 20 9 21q10 1 22 -10q6 -5 11.5 -9t10.5 -6t14 4q5 4 10 2z" />
    <glyph glyph-name="Icircumflex" unicode="&#xce;" horiz-adv-x="342" 
d="M329 84q2 -6 -0.5 -13t-7.5 -12q-152 -120 -304 0q-5 4 -7.5 11.5t-0.5 13.5q4 13 15 5q48 -35 93 -47q22 307 0 615q-45 -12 -93 -47q-5 -3 -9 -1.5t-6 7.5q-2 5 0.5 12.5t7.5 11.5q152 120 304 0q5 -5 7.5 -12t0.5 -12q-4 -14 -15 -6q-48 35 -93 47q-23 -308 0 -615
q45 12 93 47q11 8 15 -5zM281 760q4 -6 0 -11.5t-13 -8.5q-11 -4 -23.5 -1t-17.5 11q-20 32 -29.5 66.5t-22.5 69.5q-7 -19 -13 -38t-13.5 -37.5t-17 -35t-24.5 -31.5q-7 -6 -13 -4q-5 2 -9 8t-1 12l8 8q16 15 26.5 33t17 38.5t12 42.5t12.5 45q4 9 7 9q4 0 9 -6
q6 -10 12 -10t11.5 2.5t12.5 6.5q14 8 24 7q5 -2 6 -6t0 -15q-1 -25 1 -53t10 -51q7 -23 17.5 -36.5t10.5 -14.5z" />
    <glyph glyph-name="Idieresis" unicode="&#xcf;" horiz-adv-x="338" 
d="M329 84q2 -6 -0.5 -13t-7.5 -12q-152 -120 -304 0q-5 4 -7.5 11.5t-0.5 13.5q4 13 15 5q48 -35 93 -47q22 307 0 615q-45 -12 -93 -47q-5 -3 -9 -1.5t-6 7.5q-2 5 0.5 12.5t7.5 11.5q152 120 304 0q5 -5 7.5 -12t0.5 -12q-4 -14 -15 -6q-48 35 -93 47q-23 -308 0 -615
q45 12 93 47q11 8 15 -5zM136 818q13 -12 15 -33q0 -21 -15 -34q-16 -13 -36 -11q-10 1 -14 5.5t-4 10.5t2 13.5t1 15.5q1 8 -1.5 15t-1.5 13q0 13 18 16q20 2 36 -11zM258 785q-1 -8 1 -15.5t2 -13.5q-2 -15 -19 -16q-19 -2 -35 11q-15 13 -15 34q2 21 15 33q16 13 35 11
q10 -1 14 -5.5t5 -10.5t-1.5 -13t-1.5 -15z" />
    <glyph glyph-name="Idotaccent" unicode="&#x130;" 
d="M327 84q2 -6 -0.5 -13t-7.5 -12q-152 -120 -304 0q-5 4 -7.5 11.5t-0.5 13.5q4 13 15 5q48 -35 93 -47q22 307 0 615q-45 -12 -93 -47q-5 -3 -9 -1.5t-6 7.5q-2 5 0.5 12.5t7.5 11.5q152 120 304 0q5 -5 7.5 -12t0.5 -12q-4 -14 -15 -6q-48 35 -93 47q-23 -308 0 -615
q45 12 93 47q11 8 15 -5zM197 819q4 -7 5 -14.5t1 -15.5t-1 -16t-5 -15q-4 -8 -10.5 -13t-16.5 -5q-9 0 -15.5 5t-10.5 13q-4 7 -5 15t-1 16t1 15.5t5 14.5t10.5 12.5t15.5 5.5q10 0 16.5 -5.5t10.5 -12.5z" />
    <glyph glyph-name="Imacron" unicode="&#x12a;" horiz-adv-x="340" 
d="M330 84q2 -6 -0.5 -13t-7.5 -12q-152 -120 -304 0q-5 4 -7.5 11.5t-0.5 13.5q4 13 15 5q48 -35 93 -47q22 307 0 615q-45 -12 -93 -47q-5 -3 -9 -1.5t-6 7.5q-2 5 0.5 12.5t7.5 11.5q152 120 304 0q5 -5 7.5 -12t0.5 -12q-4 -14 -15 -6q-48 35 -93 47q-23 -308 0 -615
q45 12 93 47q11 8 15 -5zM270 760q0 -3 4 -6t8.5 -5.5t7.5 -4t0 -1.5q-118 -6 -236 0q-3 0 -0.5 1.5t7 4t9 5.5t4.5 6t-4 6t-8.5 5.5t-7.5 4t0 1.5q118 6 236 0q3 0 0 -1.5t-7.5 -4t-8.5 -5.5t-4 -6z" />
    <glyph glyph-name="Itilde" unicode="&#x128;" horiz-adv-x="349" 
d="M334 84q2 -6 -0.5 -13t-7.5 -12q-152 -120 -304 0q-5 4 -7.5 11.5t-0.5 13.5q4 13 15 5q48 -35 93 -47q22 307 0 615q-45 -12 -93 -47q-5 -3 -9 -1.5t-6 7.5q-2 5 0.5 12.5t7.5 11.5q152 120 304 0q5 -5 7.5 -12t0.5 -12q-4 -14 -15 -6q-48 35 -93 47q-23 -308 0 -615
q45 12 93 47q11 8 15 -5zM331 868q5 -2 4 -5.5t-5 -7.5q-23 -22 -30 -38.5t-14 -30.5q-6 -13 -16 -21.5t-28 -9.5q-11 -1 -25.5 1.5t-40.5 10.5q-15 5 -29.5 8t-29.5 4t-28.5 -10.5t-27.5 -28.5q-3 -4 -10 -7t-12 -2q-6 1 -5 5t5 8q13 13 20.5 24.5t11.5 22t6 19.5t5 17
q5 17 17 27t36 12q14 1 33 -1.5t47 -10.5q15 -5 28 -8t24 -4q26 -2 41 17q3 4 10 7t13 2z" />
    <glyph glyph-name="Ibreve" unicode="&#x12c;" horiz-adv-x="347" 
d="M334 84q2 -6 -0.5 -13t-7.5 -12q-152 -120 -304 0q-5 4 -7.5 11.5t-0.5 13.5q4 13 15 5q48 -35 93 -47q22 307 0 615q-45 -12 -93 -47q-5 -3 -9 -1.5t-6 7.5q-2 5 0.5 12.5t7.5 11.5q152 120 304 0q5 -5 7.5 -12t0.5 -12q-4 -14 -15 -6q-48 35 -93 47q-23 -308 0 -615
q45 12 93 47q11 8 15 -5zM291 896q5 -1 6.5 -4.5t-0.5 -5.5q-23 -25 -32 -48t-16 -45q-5 -11 -10 -20t-14 -17q-9 -7 -21.5 -11.5t-27.5 -4.5q-31 0 -54 15q-11 8 -17.5 17.5t-11.5 20.5q-9 23 -19 45.5t-33 47.5q-2 2 -1.5 5t5.5 5q6 2 11.5 -0.5t7.5 -4.5q19 -28 41.5 -41
t62.5 -14q42 1 64.5 14t41.5 41q2 2 7 4.5t10 0.5z" />
    <glyph glyph-name="Iogonek" unicode="&#x12e;" horiz-adv-x="343" 
d="M302 -162q8 2 15 -4.5t9 -14.5q5 -19 -15 -45q-10 -12 -24.5 -22t-33.5 -12q-27 -2 -46 11t-30 30q-11 18 -13 36.5t1 38.5t11 40t20 48q7 15 16 32t20 34q-110 -38 -218 49q-5 4 -7.5 11.5t-0.5 13.5q4 13 15 5q48 -35 93 -47q22 307 0 615q-45 -12 -93 -47
q-5 -3 -9 -1.5t-6 7.5q-2 5 0.5 12.5t7.5 11.5q152 120 304 0q5 -5 7.5 -12t0.5 -12q-4 -14 -15 -6q-48 35 -93 47q-23 -308 0 -615q45 12 93 47q11 8 15 -5q2 -6 -0.5 -13t-7.5 -12q-8 -7 -16 -12.5t-16 -10.5q-23 -24 -33 -51t-16 -52q-6 -29 -8.5 -52t-3.5 -44
q-1 -32 6 -50t24 -16q12 1 18 10t9 22q4 12 8 22.5t12 12.5z" />
    <glyph glyph-name="Jcircumflex" unicode="&#x134;" horiz-adv-x="351" 
d="M335 639q5 -4 7.5 -11t0.5 -12q-5 -14 -16 -6q-45 32 -93 46q-10 -120 -12.5 -239t3.5 -240q2 -39 -4.5 -74t-22.5 -61q-17 -26 -42 -38.5t-57 -1.5q-23 8 -40.5 24.5t-28.5 36.5q-21 39 -13 76q6 26 20 33.5t27 2.5q10 -4 17 -15.5t5 -30.5q-3 -16 -11 -28
q-4 -5 -6.5 -10.5t-4.5 -13.5q-2 -10 3.5 -19.5t16.5 -14.5q22 -8 35.5 17t15.5 72q5 133 4 264.5t-9 264.5q-48 -9 -93 -37q-5 -3 -9 -1t-6 9q-2 5 0.5 12t7.5 11q153 99 305 -16zM289 758q4 -6 0 -11.5t-13 -8.5q-11 -4 -23.5 -1t-17.5 11q-20 32 -29.5 66.5t-22.5 69.5
q-7 -19 -13 -38t-13.5 -37.5t-17 -35t-24.5 -31.5q-7 -6 -13 -4q-5 2 -9 8t-1 12l8 8q16 15 26.5 33t17 38.5t12 42.5t12.5 45q4 9 7 9q4 0 9 -6q6 -10 12 -10t11.5 2.5t12.5 6.5q14 8 24 7q5 -2 6 -6t0 -15q-1 -25 1 -53t10 -51q7 -23 17.5 -36.5t10.5 -14.5z" />
    <glyph glyph-name="Lacute" unicode="&#x139;" horiz-adv-x="320" 
d="M317 84q2 -6 -0.5 -13.5t-7.5 -12.5q-139 -119 -277 0q-4 4 -7 11.5t-1 13.5q68 267 0 535q-4 16 7 26q11 9 28 12q22 3 38 10q10 4 16 17q3 6 8 8q4 1 6.5 -3t3.5 -8q9 -161 9 -320.5t-8 -320.5q85 -21 170 49q11 9 15 -4zM157 926q3 -2 4.5 -7t0.5 -8
q-14 -13 -23 -31.5t-16 -39.5t-13 -44t-15 -44q-4 -10 -15.5 -13t-22.5 2q-9 5 -13.5 11.5t-2.5 12.5q0 1 8 14t14 36q7 23 10 53t7 56q1 20 9 21q10 1 22 -10q6 -5 11.5 -9t10.5 -6t14 4q5 4 10 2z" />
    <glyph glyph-name="Ldot" unicode="&#x13f;" horiz-adv-x="324" 
d="M319 84q2 -6 -0.5 -13.5t-7.5 -12.5q-139 -119 -277 0q-4 4 -7 11.5t-1 13.5q68 267 0 535q-4 16 7 26q11 9 28 12q22 3 38 10q10 4 16 17q3 6 8 8q4 1 6.5 -3t3.5 -8q9 -161 9 -320.5t-8 -320.5q85 -21 170 49q11 9 15 -4zM276 396q5 -8 5.5 -17t1.5 -18q-1 -9 -1.5 -18
t-5.5 -17q-4 -8 -12 -14t-19 -6q-10 0 -17.5 6t-12.5 14q-4 8 -5 17t-1 18t1 18t5 17q5 8 12.5 14t17.5 6q11 0 19 -6t12 -14z" />
    <glyph glyph-name="Nacute" unicode="&#x143;" horiz-adv-x="439" 
d="M407 647q6 -4 9 -10t1 -11q-93 -272 -2 -542q2 -5 -4 -12.5t-15 -15.5t-19 -14.5t-16 -9.5q-20 -10 -35.5 -9t-20.5 9q-41 63 -68 139.5t-51.5 152.5t-53 145t-73.5 119q58 -262 -14 -524q-2 -5 -7.5 -6t-11.5 4q-12 7 -9 19q93 273 0 545q-3 8 1.5 13t7.5 7
q5 4 12.5 5.5t16.5 3.5q11 2 21 2.5t18 4.5q12 5 16 16q4 6 7 8q5 1 13 -13q27 -42 47.5 -90.5t38 -98.5t33.5 -101t34 -98t40 -89t51 -75q-57 261 15 522q4 13 18 4zM323 928q3 -2 4.5 -7t0.5 -8q-14 -13 -23 -31.5t-16 -39.5t-13 -44t-15 -44q-4 -10 -15.5 -13t-22.5 2
q-9 5 -13.5 11.5t-2.5 12.5q0 1 8 14t14 36q7 23 10 53t7 56q1 20 9 21q10 1 22 -10q6 -5 11.5 -9t10.5 -6t14 4q5 4 10 2z" />
    <glyph glyph-name="Ncaron" unicode="&#x147;" horiz-adv-x="443" 
d="M410 647q6 -4 9 -10t1 -11q-93 -272 -2 -542q2 -5 -4 -12.5t-15 -15.5t-19 -14.5t-16 -9.5q-20 -10 -35.5 -9t-20.5 9q-41 63 -68 139.5t-51.5 152.5t-53 145t-73.5 119q58 -262 -14 -524q-2 -5 -7.5 -6t-11.5 4q-12 7 -9 19q93 273 0 545q-3 8 1.5 13t7.5 7
q5 4 12.5 5.5t16.5 3.5q11 2 21 2.5t18 4.5q12 5 16 16q4 6 7 8q5 1 13 -13q27 -42 47.5 -90.5t38 -98.5t33.5 -101t34 -98t40 -89t51 -75q-57 261 15 522q4 13 18 4zM343 935q5 -2 9 -8t0 -12q-1 -2 -7 -8q-17 -15 -27 -33t-16.5 -38.5t-12.5 -43t-13 -44.5q-2 -8 -7 -8
q-3 -2 -8 5l-6 7.5t-7 2.5q-9 0 -23 -9q-14 -8 -24 -7q-5 2 -6 6t0 15q1 26 -1 54t-10 51q-7 23 -17.5 36t-11.5 14q-3 6 1 11.5t13 8.5q11 4 23.5 1t17.5 -11q20 -32 29.5 -66.5t22.5 -69.5q13 38 26 75.5t42 66.5q7 6 13 4z" />
    <glyph glyph-name="Ntilde" unicode="&#xd1;" horiz-adv-x="448" 
d="M413 647q6 -4 9 -10t1 -11q-93 -272 -2 -542q2 -5 -4 -12.5t-15 -15.5t-19 -14.5t-16 -9.5q-20 -10 -35.5 -9t-20.5 9q-41 63 -68 139.5t-51.5 152.5t-53 145t-73.5 119q58 -262 -14 -524q-2 -5 -7.5 -6t-11.5 4q-12 7 -9 19q93 273 0 545q-3 8 1.5 13t7.5 7
q5 4 12.5 5.5t16.5 3.5q11 2 21 2.5t18 4.5q12 5 16 16q4 6 7 8q5 1 13 -13q27 -42 47.5 -90.5t38 -98.5t33.5 -101t34 -98t40 -89t51 -75q-57 261 15 522q4 13 18 4zM398 868q5 -2 4 -5.5t-5 -7.5q-23 -22 -30 -38.5t-14 -30.5q-6 -13 -16 -21.5t-28 -9.5q-11 -1 -25.5 1.5
t-40.5 10.5q-15 5 -29.5 8t-29.5 4t-28.5 -10.5t-27.5 -28.5q-3 -4 -10 -7t-12 -2q-6 1 -5 5t5 8q13 13 20.5 24.5t11.5 22t6 19.5t5 17q5 17 17 27t36 12q14 1 33 -1.5t47 -10.5q15 -5 28 -8t24 -4q26 -2 41 17q3 4 10 7t13 2z" />
    <glyph glyph-name="Ograve" unicode="&#xd2;" horiz-adv-x="399" 
d="M217 714q26 -1 48.5 -11t40.5 -27t31.5 -39t22.5 -46q18 -50 19.5 -104t0.5 -114q-2 -35 -3 -67.5t-5 -64.5t-11 -62t-18 -58t-27.5 -52t-37.5 -41.5t-46 -27t-52 -7.5q-26 1 -48 11.5t-39 27.5t-30 39t-21 46q-17 49 -18.5 103.5t-0.5 113.5q1 36 2 68.5t5 64.5
q4 31 10 61t17 58q10 28 26.5 52t37 41t45 26.5t51.5 8.5zM275 127q11 45 13.5 103t2.5 125q0 66 -2.5 123t-13.5 102q-10 45 -29 72t-45 26q-27 1 -45.5 -26t-28.5 -71q-11 -45 -13 -102.5t-3 -123.5q1 -67 3 -125t13 -103q10 -45 29 -72t45 -27t45 27t29 72zM236 769
q2 -6 -3 -12.5t-13 -11.5q-11 -5 -23 -2t-15 13q-9 21 -15.5 43.5t-13 43.5t-15.5 39.5t-23 30.5q0 1 -1 2q-1 3 1 8t5 7q5 2 9 -2q9 -6 14 -4q6 2 11.5 6t10.5 9q13 11 22 10q5 -1 6.5 -5.5t3.5 -15.5q3 -26 6.5 -56t10.5 -53q6 -23 14 -36t8 -14z" />
    <glyph glyph-name="Oacute" unicode="&#xd3;" horiz-adv-x="399" 
d="M213 714q26 -1 48.5 -11t40.5 -27t31.5 -39t22.5 -46q18 -50 19.5 -104t0.5 -114q-2 -35 -3 -67.5t-5 -64.5t-11 -62t-18 -58t-27.5 -52t-37.5 -41.5t-46 -27t-52 -7.5q-26 1 -48 11.5t-39 27.5t-30 39t-21 46q-17 49 -18.5 103.5t-0.5 113.5q1 36 2 68.5t5 64.5
q4 31 10 61t17 58q10 28 26.5 52t37 41t45 26.5t51.5 8.5zM271 127q11 45 13.5 103t2.5 125q0 66 -2.5 123t-13.5 102q-10 45 -29 72t-45 26q-27 1 -45.5 -26t-28.5 -71q-11 -45 -13 -102.5t-3 -123.5q1 -67 3 -125t13 -103q10 -45 29 -72t45 -27t45 27t29 72zM288 930
q3 -2 4.5 -7t0.5 -8q-14 -13 -23 -31.5t-16 -39.5t-13 -44t-15 -44q-4 -10 -15.5 -13t-22.5 2q-9 5 -13.5 11.5t-2.5 12.5q0 1 8 14t14 36q7 23 10 53t7 56q1 20 9 21q10 1 22 -10q6 -5 11.5 -9t10.5 -6t14 4q5 4 10 2z" />
    <glyph glyph-name="Ohungarumlaut" unicode="&#x150;" horiz-adv-x="404" 
d="M216 714q26 -1 48.5 -11t40.5 -27t31.5 -39t22.5 -46q18 -50 19.5 -104t0.5 -114q-2 -35 -3 -67.5t-5 -64.5t-11 -62t-18 -58t-27.5 -52t-37.5 -41.5t-46 -27t-52 -7.5q-26 1 -48 11.5t-39 27.5t-30 39t-21 46q-17 49 -18.5 103.5t-0.5 113.5q1 36 2 68.5t5 64.5
q4 31 10 61t17 58q10 28 26.5 52t37 41t45 26.5t51.5 8.5zM274 127q11 45 13.5 103t2.5 125q0 66 -2.5 123t-13.5 102q-10 45 -29 72t-45 26q-27 1 -45.5 -26t-28.5 -71q-11 -45 -13 -102.5t-3 -123.5q1 -67 3 -125t13 -103q10 -45 29 -72t45 -27t45 27t29 72zM346 924
q3 -1 3.5 -5t-1.5 -7q-18 -15 -29.5 -33t-18.5 -38t-11.5 -42t-8.5 -44q-2 -10 -12 -16.5t-21 -6.5q-20 0 -20 15q1 1 5 19.5t9 45.5q5 28 10.5 58.5t13.5 56.5q7 18 14 17q10 -1 20 -13q5 -5 9.5 -9t9.5 -6q5 -1 8 0.5t9 5.5q7 3 11 2zM243 942q3 0 5.5 -4.5t2.5 -8.5
q-10 -22 -16.5 -44t-13.5 -44t-15.5 -43.5t-21.5 -40.5q-5 -8 -18.5 -11t-24.5 1q-8 2 -12 7.5t0 11.5q0 1 11.5 14t19.5 36t9.5 51t-0.5 53q-3 19 5 20q10 3 24 -6q7 -4 13 -6.5t11 -2.5t7 3t6 8q3 6 8 6z" />
    <glyph glyph-name="Ocircumflex" unicode="&#xd4;" horiz-adv-x="403" 
d="M216 714q26 -1 48.5 -11t40.5 -27t31.5 -39t22.5 -46q18 -50 19.5 -104t0.5 -114q-2 -35 -3 -67.5t-5 -64.5t-11 -62t-18 -58t-27.5 -52t-37.5 -41.5t-46 -27t-52 -7.5q-26 1 -48 11.5t-39 27.5t-30 39t-21 46q-17 49 -18.5 103.5t-0.5 113.5q1 36 2 68.5t5 64.5
q4 31 10 61t17 58q10 28 26.5 52t37 41t45 26.5t51.5 8.5zM274 127q11 45 13.5 103t2.5 125q0 66 -2.5 123t-13.5 102q-10 45 -29 72t-45 26q-27 1 -45.5 -26t-28.5 -71q-11 -45 -13 -102.5t-3 -123.5q1 -67 3 -125t13 -103q10 -45 29 -72t45 -27t45 27t29 72zM315 762
q4 -6 0 -11.5t-13 -8.5q-11 -4 -23.5 -1t-17.5 11q-20 32 -29.5 66.5t-22.5 69.5q-7 -19 -13 -38t-13.5 -37.5t-17 -35t-24.5 -31.5q-7 -6 -13 -4q-5 2 -9 8t-1 12l8 8q16 15 26.5 33t17 38.5t12 42.5t12.5 45q4 9 7 9q4 0 9 -6q6 -10 12 -10t11.5 2.5t12.5 6.5q14 8 24 7
q5 -2 6 -6t0 -15q-1 -25 1 -53t10 -51q7 -23 17.5 -36.5t10.5 -14.5z" />
    <glyph glyph-name="Odieresis" unicode="&#xd6;" horiz-adv-x="407" 
d="M219 714q26 -1 48.5 -11t40.5 -27t31.5 -39t22.5 -46q18 -50 19.5 -104t0.5 -114q-2 -35 -3 -67.5t-5 -64.5t-11 -62t-18 -58t-27.5 -52t-37.5 -41.5t-46 -27t-52 -7.5q-26 1 -48 11.5t-39 27.5t-30 39t-21 46q-17 49 -18.5 103.5t-0.5 113.5q1 36 2 68.5t5 64.5
q4 31 10 61t17 58q10 28 26.5 52t37 41t45 26.5t51.5 8.5zM277 127q11 45 13.5 103t2.5 125q0 66 -2.5 123t-13.5 102q-10 45 -29 72t-45 26q-27 1 -45.5 -26t-28.5 -71q-11 -45 -13 -102.5t-3 -123.5q1 -67 3 -125t13 -103q10 -45 29 -72t45 -27t45 27t29 72zM173 820
q13 -12 15 -33q0 -21 -15 -34q-16 -13 -36 -11q-10 1 -14 5.5t-4 10.5t2 13.5t1 15.5q1 8 -1.5 15t-1.5 13q0 13 18 16q20 2 36 -11zM295 787q-1 -8 1 -15.5t2 -13.5q-2 -15 -19 -16q-19 -2 -35 11q-15 13 -15 34q2 21 15 33q16 13 35 11q10 -1 14 -5.5t5 -10.5t-1.5 -13
t-1.5 -15z" />
    <glyph glyph-name="Omacron" unicode="&#x14c;" horiz-adv-x="409" 
d="M220 714q26 -1 48.5 -11t40.5 -27t31.5 -39t22.5 -46q18 -50 19.5 -104t0.5 -114q-2 -35 -3 -67.5t-5 -64.5t-11 -62t-18 -58t-27.5 -52t-37.5 -41.5t-46 -27t-52 -7.5q-26 1 -48 11.5t-39 27.5t-30 39t-21 46q-17 49 -18.5 103.5t-0.5 113.5q1 36 2 68.5t5 64.5
q4 31 10 61t17 58q10 28 26.5 52t37 41t45 26.5t51.5 8.5zM278 127q11 45 13.5 103t2.5 125q0 66 -2.5 123t-13.5 102q-10 45 -29 72t-45 26q-27 1 -45.5 -26t-28.5 -71q-11 -45 -13 -102.5t-3 -123.5q1 -67 3 -125t13 -103q10 -45 29 -72t45 -27t45 27t29 72zM307 762
q0 -3 4 -6t8.5 -5.5t7.5 -4t0 -1.5q-118 -6 -236 0q-3 0 -0.5 1.5t7 4t9 5.5t4.5 6t-4 6t-8.5 5.5t-7.5 4t0 1.5q118 6 236 0q3 0 0 -1.5t-7.5 -4t-8.5 -5.5t-4 -6z" />
    <glyph glyph-name="Otilde" unicode="&#xd5;" horiz-adv-x="409" 
d="M220 714q26 -1 48.5 -11t40.5 -27t31.5 -39t22.5 -46q18 -50 19.5 -104t0.5 -114q-2 -35 -3 -67.5t-5 -64.5t-11 -62t-18 -58t-27.5 -52t-37.5 -41.5t-46 -27t-52 -7.5q-26 1 -48 11.5t-39 27.5t-30 39t-21 46q-17 49 -18.5 103.5t-0.5 113.5q1 36 2 68.5t5 64.5
q4 31 10 61t17 58q10 28 26.5 52t37 41t45 26.5t51.5 8.5zM278 127q11 45 13.5 103t2.5 125q0 66 -2.5 123t-13.5 102q-10 45 -29 72t-45 26q-27 1 -45.5 -26t-28.5 -71q-11 -45 -13 -102.5t-3 -123.5q1 -67 3 -125t13 -103q10 -45 29 -72t45 -27t45 27t29 72zM364 870
q5 -2 4 -5.5t-5 -7.5q-23 -22 -30 -38.5t-14 -30.5q-6 -13 -16 -21.5t-28 -9.5q-11 -1 -25.5 1.5t-40.5 10.5q-15 5 -29.5 8t-29.5 4t-28.5 -10.5t-27.5 -28.5q-3 -4 -10 -7t-12 -2q-6 1 -5 5t5 8q13 13 20.5 24.5t11.5 22t6 19.5t5 17q5 17 17 27t36 12q14 1 33 -1.5
t47 -10.5q15 -5 28 -8t24 -4q26 -2 41 17q3 4 10 7t13 2z" />
    <glyph glyph-name="Obreve" unicode="&#x14e;" horiz-adv-x="407" 
d="M219 714q26 -1 48.5 -11t40.5 -27t31.5 -39t22.5 -46q18 -50 19.5 -104t0.5 -114q-2 -35 -3 -67.5t-5 -64.5t-11 -62t-18 -58t-27.5 -52t-37.5 -41.5t-46 -27t-52 -7.5q-26 1 -48 11.5t-39 27.5t-30 39t-21 46q-17 49 -18.5 103.5t-0.5 113.5q1 36 2 68.5t5 64.5
q4 31 10 61t17 58q10 28 26.5 52t37 41t45 26.5t51.5 8.5zM277 127q11 45 13.5 103t2.5 125q0 66 -2.5 123t-13.5 102q-10 45 -29 72t-45 26q-27 1 -45.5 -26t-28.5 -71q-11 -45 -13 -102.5t-3 -123.5q1 -67 3 -125t13 -103q10 -45 29 -72t45 -27t45 27t29 72zM323 898
q5 -1 6.5 -4.5t-0.5 -5.5q-23 -25 -32 -48t-16 -45q-5 -11 -10 -20t-14 -17q-9 -7 -21.5 -11.5t-27.5 -4.5q-31 0 -54 15q-11 8 -17.5 17.5t-11.5 20.5q-9 23 -19 45.5t-33 47.5q-2 2 -1.5 5t5.5 5q6 2 11.5 -0.5t7.5 -4.5q19 -28 41.5 -41t62.5 -14q42 1 64.5 14t41.5 41
q2 2 7 4.5t10 0.5z" />
    <glyph glyph-name="Racute" unicode="&#x154;" horiz-adv-x="504" 
d="M482 87q4 -2 3 -2q0 -1 1 -1q1 -3 -3 -8.5t-12 -12.5t-19 -14.5t-23 -12.5q-25 -11 -42 -10t-25 8q-53 50 -90 114t-70 129q-11 1 -24 5t-26 9q-3 -64 -10 -126.5t-18 -125.5q-2 -10 -21 -9t-41 12q-20 9 -34 22.5t-11 21.5q106 268 1 536q-5 16 5 22q5 2 13 4t16 2
q11 0 20.5 1t18.5 4q11 5 15 16q2 6 7 8q4 1 7 -2.5t4 -7.5q4 -22 7.5 -43.5t6.5 -43.5q17 63 56 99t98 30q44 -4 76 -29t49 -57q17 -33 20.5 -69.5t-3.5 -73.5q-12 -71 -45 -120q-17 -25 -40 -46t-55 -32q18 -32 37.5 -61.5t42 -55t49.5 -46t59 -34.5zM214 309q27 -1 49 13
t38 40q31 51 39 145q3 37 0.5 67t-11.5 53q-19 49 -61 52q-24 1 -45 -13.5t-37 -39.5q-17 -26 -26 -59t-13 -70q4 -43 5.5 -86t-0.5 -86q33 -16 62 -16zM378 927q3 -2 4.5 -7t0.5 -8q-14 -13 -23 -31.5t-16 -39.5t-13 -44t-15 -44q-4 -10 -15.5 -13t-22.5 2q-9 5 -13.5 11.5
t-2.5 12.5q0 1 8 14t14 36q7 23 10 53t7 56q1 20 9 21q10 1 22 -10q6 -5 11.5 -9t10.5 -6t14 4q5 4 10 2z" />
    <glyph glyph-name="Rcaron" unicode="&#x158;" horiz-adv-x="507" 
d="M484 87q4 -2 3 -2q0 -1 1 -1q1 -3 -3 -8.5t-12 -12.5t-19 -14.5t-23 -12.5q-25 -11 -42 -10t-25 8q-53 50 -90 114t-70 129q-11 1 -24 5t-26 9q-3 -64 -10 -126.5t-18 -125.5q-2 -10 -21 -9t-41 12q-20 9 -34 22.5t-11 21.5q106 268 1 536q-5 16 5 22q5 2 13 4t16 2
q11 0 20.5 1t18.5 4q11 5 15 16q2 6 7 8q4 1 7 -2.5t4 -7.5q4 -22 7.5 -43.5t6.5 -43.5q17 63 56 99t98 30q44 -4 76 -29t49 -57q17 -33 20.5 -69.5t-3.5 -73.5q-12 -71 -45 -120q-17 -25 -40 -46t-55 -32q18 -32 37.5 -61.5t42 -55t49.5 -46t59 -34.5zM216 309q27 -1 49 13
t38 40q31 51 39 145q3 37 0.5 67t-11.5 53q-19 49 -61 52q-24 1 -45 -13.5t-37 -39.5q-17 -26 -26 -59t-13 -70q4 -43 5.5 -86t-0.5 -86q33 -16 62 -16zM397 934q5 -2 9 -8t0 -12q-1 -2 -7 -8q-17 -15 -27 -33t-16.5 -38.5t-12.5 -43t-13 -44.5q-2 -8 -7 -8q-3 -2 -8 5
l-6 7.5t-7 2.5q-9 0 -23 -9q-14 -8 -24 -7q-5 2 -6 6t0 15q1 26 -1 54t-10 51q-7 23 -17.5 36t-11.5 14q-3 6 1 11.5t13 8.5q11 4 23.5 1t17.5 -11q20 -32 29.5 -66.5t22.5 -69.5q13 38 26 75.5t42 66.5q7 6 13 4z" />
    <glyph glyph-name="Sacute" unicode="&#x15a;" horiz-adv-x="376" 
d="M309 341q15 -22 26 -46.5t16 -59.5q6 -37 0 -76.5t-29 -77.5q-23 -36 -61 -63t-87 -25q-35 2 -63.5 17.5t-48.5 41.5t-32.5 58.5t-19.5 69.5q-1 5 -1 7v4q4 13 14 10q3 -2 6 -5t5 -10q5 -28 15.5 -55t26 -48.5t36.5 -36t47 -17.5q27 -2 47.5 9.5t34.5 31.5q13 20 18 45
t3 53q-4 53 -26 87t-54 66q-19 18 -38.5 39t-36.5 45t-29.5 51.5t-17.5 65.5t3.5 73t31.5 63t59.5 43.5t81.5 7.5q31 -5 54.5 -20t37.5 -33q15 -19 20 -38t1 -36q-5 -20 -16.5 -29t-22.5 -5q-15 5 -23.5 27t-16.5 46q-6 20 -17 36.5t-33 18.5q-30 4 -48.5 -25t-16.5 -78
q1 -29 8.5 -51t19.5 -40t27 -34t32 -33t34.5 -35.5t32.5 -38.5zM291 929q3 -2 4.5 -7t0.5 -8q-14 -13 -23 -31.5t-16 -39.5t-13 -44t-15 -44q-4 -10 -15.5 -13t-22.5 2q-9 5 -13.5 11.5t-2.5 12.5q0 1 8 14t14 36q7 23 10 53t7 56q1 20 9 21q10 1 22 -10q6 -5 11.5 -9
t10.5 -6t14 4q5 4 10 2z" />
    <glyph glyph-name="Scircumflex" unicode="&#x15c;" horiz-adv-x="380" 
d="M311 341q15 -22 26 -46.5t16 -59.5q6 -37 0 -76.5t-29 -77.5q-23 -36 -61 -63t-87 -25q-35 2 -63.5 17.5t-48.5 41.5t-32.5 58.5t-19.5 69.5q-1 5 -1 7v4q4 13 14 10q3 -2 6 -5t5 -10q5 -28 15.5 -55t26 -48.5t36.5 -36t47 -17.5q27 -2 47.5 9.5t34.5 31.5q13 20 18 45
t3 53q-4 53 -26 87t-54 66q-19 18 -38.5 39t-36.5 45t-29.5 51.5t-17.5 65.5t3.5 73t31.5 63t59.5 43.5t81.5 7.5q31 -5 54.5 -20t37.5 -33q15 -19 20 -38t1 -36q-5 -20 -16.5 -29t-22.5 -5q-15 5 -23.5 27t-16.5 46q-6 20 -17 36.5t-33 18.5q-30 4 -48.5 -25t-16.5 -78
q1 -29 8.5 -51t19.5 -40t27 -34t32 -33t34.5 -35.5t32.5 -38.5zM317 761q4 -6 0 -11.5t-13 -8.5q-11 -4 -23.5 -1t-17.5 11q-20 32 -29.5 66.5t-22.5 69.5q-7 -19 -13 -38t-13.5 -37.5t-17 -35t-24.5 -31.5q-7 -6 -13 -4q-5 2 -9 8t-1 12l8 8q16 15 26.5 33t17 38.5t12 42.5
t12.5 45q4 9 7 9q4 0 9 -6q6 -10 12 -10t11.5 2.5t12.5 6.5q14 8 24 7q5 -2 6 -6t0 -15q-1 -25 1 -53t10 -51q7 -23 17.5 -36.5t10.5 -14.5z" />
    <glyph glyph-name="Scaron" unicode="&#x160;" horiz-adv-x="381" 
d="M312 341q15 -22 26 -46.5t16 -59.5q6 -37 0 -76.5t-29 -77.5q-23 -36 -61 -63t-87 -25q-35 2 -63.5 17.5t-48.5 41.5t-32.5 58.5t-19.5 69.5q-1 5 -1 7v4q4 13 14 10q3 -2 6 -5t5 -10q5 -28 15.5 -55t26 -48.5t36.5 -36t47 -17.5q27 -2 47.5 9.5t34.5 31.5q13 20 18 45
t3 53q-4 53 -26 87t-54 66q-19 18 -38.5 39t-36.5 45t-29.5 51.5t-17.5 65.5t3.5 73t31.5 63t59.5 43.5t81.5 7.5q31 -5 54.5 -20t37.5 -33q15 -19 20 -38t1 -36q-5 -20 -16.5 -29t-22.5 -5q-15 5 -23.5 27t-16.5 46q-6 20 -17 36.5t-33 18.5q-30 4 -48.5 -25t-16.5 -78
q1 -29 8.5 -51t19.5 -40t27 -34t32 -33t34.5 -35.5t32.5 -38.5zM311 936q5 -2 9 -8t0 -12q-1 -2 -7 -8q-17 -15 -27 -33t-16.5 -38.5t-12.5 -43t-13 -44.5q-2 -8 -7 -8q-3 -2 -8 5l-6 7.5t-7 2.5q-9 0 -23 -9q-14 -8 -24 -7q-5 2 -6 6t0 15q1 26 -1 54t-10 51
q-7 23 -17.5 36t-11.5 14q-3 6 1 11.5t13 8.5q11 4 23.5 1t17.5 -11q20 -32 29.5 -66.5t22.5 -69.5q13 38 26 75.5t42 66.5q7 6 13 4z" />
    <glyph glyph-name="Scedilla" unicode="&#x15e;" horiz-adv-x="377" 
d="M249 -104q17 -25 23 -60q2 -14 0 -29.5t-11 -32.5q-8 -15 -24.5 -27.5t-39.5 -13.5q-29 0 -50 20t-27 45q-3 7 -1 16q3 12 11 9q6 -1 10 -13q4 -19 14.5 -31t22.5 -14q10 -1 16.5 5t10.5 16t5.5 23t1.5 26q0 14 -2.5 28t-7 25.5t-12 18t-19.5 5.5q-1 21 -2 41t-3 41
q-32 3 -58 18.5t-45 39.5q-20 26 -32.5 58.5t-19.5 69.5q-1 5 -1 7v4q4 13 14 10q3 -2 6 -5t5 -10q5 -28 15.5 -55t26 -48.5t36.5 -36t47 -17.5q27 -2 47.5 9.5t34.5 31.5q13 20 18 45t3 53q-4 53 -26 87t-54 66q-19 18 -38.5 39t-36.5 45t-29.5 51.5t-17.5 65.5t3.5 73
t31.5 63t59.5 43.5t81.5 7.5q31 -5 54.5 -20t37.5 -33q15 -19 20 -38t1 -36q-5 -20 -16.5 -29t-22.5 -5q-15 5 -23.5 27t-16.5 46q-6 20 -17 36.5t-33 18.5q-30 4 -48.5 -25t-16.5 -78q1 -29 8.5 -51t19.5 -40t27 -34t32 -33t34.5 -35.5t32.5 -38.5q15 -22 26 -46.5
t16 -59.5q6 -37 0 -76.5t-29 -77.5q-21 -34 -55.5 -60t-79.5 -28l2 -59q21 1 35.5 -11t24.5 -27z" />
    <glyph glyph-name="Tcaron" unicode="&#x164;" horiz-adv-x="337" 
d="M320 644q5 -5 7.5 -12t0.5 -12q-4 -14 -15 -6q-23 18 -46.5 29.5t-46.5 18.5q-11 -160 -11 -318t12 -317q1 -10 -16.5 -19.5t-39.5 -9.5q-20 1 -35.5 9.5t-14.5 19.5q12 159 12 317t-11 318q-23 -7 -46.5 -18.5t-46.5 -29.5q-5 -3 -9 -1.5t-6 7.5q-2 5 0.5 12t7.5 12
q152 120 304 0zM271 935q5 -2 9 -8t0 -12q-1 -2 -7 -8q-17 -15 -27 -33t-16.5 -38.5t-12.5 -43t-13 -44.5q-2 -8 -7 -8q-3 -2 -8 5l-6 7.5t-7 2.5q-9 0 -23 -9q-14 -8 -24 -7q-5 2 -6 6t0 15q1 26 -1 54t-10 51q-7 23 -17.5 36t-11.5 14q-3 6 1 11.5t13 8.5q11 4 23.5 1
t17.5 -11q20 -32 29.5 -66.5t22.5 -69.5q13 38 26 75.5t42 66.5q7 6 13 4z" />
    <glyph glyph-name="Tbar" unicode="&#x166;" horiz-adv-x="340" 
d="M268 374q0 -3 4 -6t8.5 -5.5t7.5 -4t0 -1.5q-39 -3 -77 -3q0 -165 12 -327q1 -10 -16.5 -19.5t-39.5 -9.5q-20 1 -35.5 9.5t-14.5 19.5q12 162 12 327q-40 0 -77 3q-3 0 -0.5 1.5t7 4t9 5.5t4.5 6t-4 6t-8.5 5.5t-7.5 4t0 1.5l77 3q-1 67 -3.5 133.5t-7.5 134.5
q-23 -7 -46.5 -18.5t-46.5 -29.5q-5 -3 -9 -1.5t-6 7.5q-2 5 0.5 12t7.5 12q152 120 304 0q5 -5 7.5 -12t0.5 -12q-4 -14 -15 -6q-23 18 -46.5 29.5t-46.5 18.5q-5 -68 -7.5 -134.5t-3.5 -133.5l77 -3q3 0 0 -1.5t-7.5 -4t-8.5 -5.5t-4 -6z" />
    <glyph glyph-name="Tcedilla" unicode="&#x162;" horiz-adv-x="340" 
d="M241 -87q17 -25 23 -60q2 -14 0 -29.5t-11 -32.5q-8 -15 -24.5 -27.5t-39.5 -13.5q-29 0 -50 20t-27 45q-3 7 -1 16q3 12 11 9q6 -1 10 -13q4 -19 14.5 -31t22.5 -14q10 -1 16.5 5t10.5 16t5.5 23t1.5 26q0 14 -2.5 28t-7 25.5t-12 18t-19.5 5.5q-1 18 -1.5 35t-2.5 34
q-18 2 -31.5 10.5t-12.5 18.5q12 159 12 317t-11 318q-23 -7 -46.5 -18.5t-46.5 -29.5q-5 -3 -9 -1.5t-6 7.5q-2 5 0.5 12t7.5 12q152 120 304 0q5 -5 7.5 -12t0.5 -12q-4 -14 -15 -6q-23 18 -46.5 29.5t-46.5 18.5q-11 -160 -11 -318t12 -317q1 -8 -11 -16t-29 -11v-24.5
t1 -24.5q21 1 35.5 -11t24.5 -27z" />
    <glyph glyph-name="Ugrave" unicode="&#xd9;" horiz-adv-x="419" 
d="M393 647q5 -3 8 -10.5t0 -17.5q-53 -161 -41 -327q3 -51 0 -99t-21 -93q-9 -21 -21.5 -40.5t-29 -34.5t-36.5 -23.5t-42 -8.5q-23 0 -43 8t-36.5 22t-29.5 33.5t-22 40.5q-18 45 -20.5 95.5t1.5 109.5q9 162 -43 321q-5 15 6 23q9 6 28 8q11 1 20.5 2.5t18.5 5.5
q10 4 16 16q2 6 7 8q4 2 7 -2t4 -7q11 -97 16 -192.5t3 -192.5q-1 -53 -1 -98.5t8 -82.5t26.5 -60.5t50.5 -21.5q33 2 56.5 29.5t36.5 64.5q14 38 16.5 80t0.5 85q-5 88 3.5 174.5t31.5 174.5q3 10 9.5 12t11.5 -2zM278 766q2 -6 -3 -12.5t-13 -11.5q-11 -5 -23 -2t-15 13
q-9 21 -15.5 43.5t-13 43.5t-15.5 39.5t-23 30.5q0 1 -1 2q-1 3 1 8t5 7q5 2 9 -2q9 -6 14 -4q6 2 11.5 6t10.5 9q13 11 22 10q5 -1 6.5 -5.5t3.5 -15.5q3 -26 6.5 -56t10.5 -53q6 -23 14 -36t8 -14z" />
    <glyph glyph-name="Uacute" unicode="&#xda;" horiz-adv-x="420" 
d="M391 647q5 -3 8 -10.5t0 -17.5q-53 -161 -41 -327q3 -51 0 -99t-21 -93q-9 -21 -21.5 -40.5t-29 -34.5t-36.5 -23.5t-42 -8.5q-23 0 -43 8t-36.5 22t-29.5 33.5t-22 40.5q-18 45 -20.5 95.5t1.5 109.5q9 162 -43 321q-5 15 6 23q9 6 28 8q11 1 20.5 2.5t18.5 5.5
q10 4 16 16q2 6 7 8q4 2 7 -2t4 -7q11 -97 16 -192.5t3 -192.5q-1 -53 -1 -98.5t8 -82.5t26.5 -60.5t50.5 -21.5q33 2 56.5 29.5t36.5 64.5q14 38 16.5 80t0.5 85q-5 88 3.5 174.5t31.5 174.5q3 10 9.5 12t11.5 -2zM332 927q3 -2 4.5 -7t0.5 -8q-14 -13 -23 -31.5t-16 -39.5
t-13 -44t-15 -44q-4 -10 -15.5 -13t-22.5 2q-9 5 -13.5 11.5t-2.5 12.5q0 1 8 14t14 36q7 23 10 53t7 56q1 20 9 21q10 1 22 -10q6 -5 11.5 -9t10.5 -6t14 4q5 4 10 2z" />
    <glyph glyph-name="Uhungarumlaut" unicode="&#x170;" horiz-adv-x="424" 
d="M392 647q5 -3 8 -10.5t0 -17.5q-53 -161 -41 -327q3 -51 0 -99t-21 -93q-9 -21 -21.5 -40.5t-29 -34.5t-36.5 -23.5t-42 -8.5q-23 0 -43 8t-36.5 22t-29.5 33.5t-22 40.5q-18 45 -20.5 95.5t1.5 109.5q9 162 -43 321q-5 15 6 23q9 6 28 8q11 1 20.5 2.5t18.5 5.5
q10 4 16 16q2 6 7 8q4 2 7 -2t4 -7q11 -97 16 -192.5t3 -192.5q-1 -53 -1 -98.5t8 -82.5t26.5 -60.5t50.5 -21.5q33 2 56.5 29.5t36.5 64.5q14 38 16.5 80t0.5 85q-5 88 3.5 174.5t31.5 174.5q3 10 9.5 12t11.5 -2zM388 921q3 -1 3.5 -5t-1.5 -7q-18 -15 -29.5 -33
t-18.5 -38t-11.5 -42t-8.5 -44q-2 -10 -12 -16.5t-21 -6.5q-20 0 -20 15q1 1 5 19.5t9 45.5q5 28 10.5 58.5t13.5 56.5q7 18 14 17q10 -1 20 -13q5 -5 9.5 -9t9.5 -6q5 -1 8 0.5t9 5.5q7 3 11 2zM285 939q3 0 5.5 -4.5t2.5 -8.5q-10 -22 -16.5 -44t-13.5 -44t-15.5 -43.5
t-21.5 -40.5q-5 -8 -18.5 -11t-24.5 1q-8 2 -12 7.5t0 11.5q0 1 11.5 14t19.5 36t9.5 51t-0.5 53q-3 19 5 20q10 3 24 -6q7 -4 13 -6.5t11 -2.5t7 3t6 8q3 6 8 6z" />
    <glyph glyph-name="Ucircumflex" unicode="&#xdb;" horiz-adv-x="422" 
d="M392 647q5 -3 8 -10.5t0 -17.5q-53 -161 -41 -327q3 -51 0 -99t-21 -93q-9 -21 -21.5 -40.5t-29 -34.5t-36.5 -23.5t-42 -8.5q-23 0 -43 8t-36.5 22t-29.5 33.5t-22 40.5q-18 45 -20.5 95.5t1.5 109.5q9 162 -43 321q-5 15 6 23q9 6 28 8q11 1 20.5 2.5t18.5 5.5
q10 4 16 16q2 6 7 8q4 2 7 -2t4 -7q11 -97 16 -192.5t3 -192.5q-1 -53 -1 -98.5t8 -82.5t26.5 -60.5t50.5 -21.5q33 2 56.5 29.5t36.5 64.5q14 38 16.5 80t0.5 85q-5 88 3.5 174.5t31.5 174.5q3 10 9.5 12t11.5 -2zM357 759q4 -6 0 -11.5t-13 -8.5q-11 -4 -23.5 -1t-17.5 11
q-20 32 -29.5 66.5t-22.5 69.5q-7 -19 -13 -38t-13.5 -37.5t-17 -35t-24.5 -31.5q-7 -6 -13 -4q-5 2 -9 8t-1 12l8 8q16 15 26.5 33t17 38.5t12 42.5t12.5 45q4 9 7 9q4 0 9 -6q6 -10 12 -10t11.5 2.5t12.5 6.5q14 8 24 7q5 -2 6 -6t0 -15q-1 -25 1 -53t10 -51
q7 -23 17.5 -36.5t10.5 -14.5z" />
    <glyph glyph-name="Udieresis" unicode="&#xdc;" horiz-adv-x="424" 
d="M395 647q5 -3 8 -10.5t0 -17.5q-53 -161 -41 -327q3 -51 0 -99t-21 -93q-9 -21 -21.5 -40.5t-29 -34.5t-36.5 -23.5t-42 -8.5q-23 0 -43 8t-36.5 22t-29.5 33.5t-22 40.5q-18 45 -20.5 95.5t1.5 109.5q9 162 -43 321q-5 15 6 23q9 6 28 8q11 1 20.5 2.5t18.5 5.5
q10 4 16 16q2 6 7 8q4 2 7 -2t4 -7q11 -97 16 -192.5t3 -192.5q-1 -53 -1 -98.5t8 -82.5t26.5 -60.5t50.5 -21.5q33 2 56.5 29.5t36.5 64.5q14 38 16.5 80t0.5 85q-5 88 3.5 174.5t31.5 174.5q3 10 9.5 12t11.5 -2zM215 817q13 -12 15 -33q0 -21 -15 -34q-16 -13 -36 -11
q-10 1 -14 5.5t-4 10.5t2 13.5t1 15.5q1 8 -1.5 15t-1.5 13q0 13 18 16q20 2 36 -11zM337 784q-1 -8 1 -15.5t2 -13.5q-2 -15 -19 -16q-19 -2 -35 11q-15 13 -15 34q2 21 15 33q16 13 35 11q10 -1 14 -5.5t5 -10.5t-1.5 -13t-1.5 -15z" />
    <glyph glyph-name="Umacron" unicode="&#x16a;" horiz-adv-x="423" 
d="M396 647q5 -3 8 -10.5t0 -17.5q-53 -161 -41 -327q3 -51 0 -99t-21 -93q-9 -21 -21.5 -40.5t-29 -34.5t-36.5 -23.5t-42 -8.5q-23 0 -43 8t-36.5 22t-29.5 33.5t-22 40.5q-18 45 -20.5 95.5t1.5 109.5q9 162 -43 321q-5 15 6 23q9 6 28 8q11 1 20.5 2.5t18.5 5.5
q10 4 16 16q2 6 7 8q4 2 7 -2t4 -7q11 -97 16 -192.5t3 -192.5q-1 -53 -1 -98.5t8 -82.5t26.5 -60.5t50.5 -21.5q33 2 56.5 29.5t36.5 64.5q14 38 16.5 80t0.5 85q-5 88 3.5 174.5t31.5 174.5q3 10 9.5 12t11.5 -2zM349 759q0 -3 4 -6t8.5 -5.5t7.5 -4t0 -1.5
q-118 -6 -236 0q-3 0 -0.5 1.5t7 4t9 5.5t4.5 6t-4 6t-8.5 5.5t-7.5 4t0 1.5q118 6 236 0q3 0 0 -1.5t-7.5 -4t-8.5 -5.5t-4 -6z" />
    <glyph glyph-name="Utilde" unicode="&#x168;" horiz-adv-x="432" 
d="M396 647q5 -3 8 -10.5t0 -17.5q-53 -161 -41 -327q3 -51 0 -99t-21 -93q-9 -21 -21.5 -40.5t-29 -34.5t-36.5 -23.5t-42 -8.5q-23 0 -43 8t-36.5 22t-29.5 33.5t-22 40.5q-18 45 -20.5 95.5t1.5 109.5q9 162 -43 321q-5 15 6 23q9 6 28 8q11 1 20.5 2.5t18.5 5.5
q10 4 16 16q2 6 7 8q4 2 7 -2t4 -7q11 -97 16 -192.5t3 -192.5q-1 -53 -1 -98.5t8 -82.5t26.5 -60.5t50.5 -21.5q33 2 56.5 29.5t36.5 64.5q14 38 16.5 80t0.5 85q-5 88 3.5 174.5t31.5 174.5q3 10 9.5 12t11.5 -2zM406 867q5 -2 4 -5.5t-5 -7.5q-23 -22 -30 -38.5
t-14 -30.5q-6 -13 -16 -21.5t-28 -9.5q-11 -1 -25.5 1.5t-40.5 10.5q-15 5 -29.5 8t-29.5 4t-28.5 -10.5t-27.5 -28.5q-3 -4 -10 -7t-12 -2q-6 1 -5 5t5 8q13 13 20.5 24.5t11.5 22t6 19.5t5 17q5 17 17 27t36 12q14 1 33 -1.5t47 -10.5q15 -5 28 -8t24 -4q26 -2 41 17
q3 4 10 7t13 2z" />
    <glyph glyph-name="Ubreve" unicode="&#x16c;" horiz-adv-x="427" 
d="M396 647q5 -3 8 -10.5t0 -17.5q-53 -161 -41 -327q3 -51 0 -99t-21 -93q-9 -21 -21.5 -40.5t-29 -34.5t-36.5 -23.5t-42 -8.5q-23 0 -43 8t-36.5 22t-29.5 33.5t-22 40.5q-18 45 -20.5 95.5t1.5 109.5q9 162 -43 321q-5 15 6 23q9 6 28 8q11 1 20.5 2.5t18.5 5.5
q10 4 16 16q2 6 7 8q4 2 7 -2t4 -7q11 -97 16 -192.5t3 -192.5q-1 -53 -1 -98.5t8 -82.5t26.5 -60.5t50.5 -21.5q33 2 56.5 29.5t36.5 64.5q14 38 16.5 80t0.5 85q-5 88 3.5 174.5t31.5 174.5q3 10 9.5 12t11.5 -2zM366 895q5 -1 6.5 -4.5t-0.5 -5.5q-23 -25 -32 -48
t-16 -45q-5 -11 -10 -20t-14 -17q-9 -7 -21.5 -11.5t-27.5 -4.5q-31 0 -54 15q-11 8 -17.5 17.5t-11.5 20.5q-9 23 -19 45.5t-33 47.5q-2 2 -1.5 5t5.5 5q6 2 11.5 -0.5t7.5 -4.5q19 -28 41.5 -41t62.5 -14q42 1 64.5 14t41.5 41q2 2 7 4.5t10 0.5z" />
    <glyph glyph-name="Uring" unicode="&#x16e;" horiz-adv-x="423" 
d="M394 647q5 -3 8 -10.5t0 -17.5q-53 -161 -41 -327q3 -51 0 -99t-21 -93q-9 -21 -21.5 -40.5t-29 -34.5t-36.5 -23.5t-42 -8.5q-23 0 -43 8t-36.5 22t-29.5 33.5t-22 40.5q-18 45 -20.5 95.5t1.5 109.5q9 162 -43 321q-5 15 6 23q9 6 28 8q11 1 20.5 2.5t18.5 5.5
q10 4 16 16q2 6 7 8q4 2 7 -2t4 -7q11 -97 16 -192.5t3 -192.5q-1 -53 -1 -98.5t8 -82.5t26.5 -60.5t50.5 -21.5q33 2 56.5 29.5t36.5 64.5q14 38 16.5 80t0.5 85q-5 88 3.5 174.5t31.5 174.5q3 10 9.5 12t11.5 -2zM314 922q9 -17 11 -34t2 -34q-2 -18 -4 -36.5t-13 -36.5
q-10 -17 -28.5 -30t-42.5 -11q-21 0 -37 11.5t-24 27.5t-10 33t-2 34q2 18 4 37t12 36t27.5 30t41.5 12q22 0 38.5 -12t24.5 -27zM248 770q13 0 17.5 17.5t3.5 62.5q1 45 -3.5 62.5t-17.5 17.5q-17 0 -21 -22.5t-4 -57.5t4 -57.5t21 -22.5z" />
    <glyph glyph-name="Uogonek" unicode="&#x172;" horiz-adv-x="422" 
d="M303 -172q8 2 15 -4.5t9 -14.5q5 -19 -15 -45q-10 -12 -24.5 -22t-33.5 -12q-27 -2 -46 11t-30 30q-11 18 -13 36.5t1 38.5t11 40t20 48l14.5 29t18.5 32q-5 -1 -9.5 -1.5t-9.5 -0.5q-23 0 -43 8t-36.5 22t-29.5 33.5t-22 40.5q-18 45 -20.5 95.5t1.5 109.5
q9 162 -43 321q-5 15 6 23q9 6 28 8q11 1 20.5 2.5t18.5 5.5q10 4 16 16q2 6 7 8q4 2 7 -2t4 -7q11 -97 16 -192.5t3 -192.5q-1 -53 -1 -98.5t8 -82.5t26.5 -60.5t50.5 -21.5q33 2 56.5 29.5t36.5 64.5q14 38 16.5 80t0.5 85q-5 88 3.5 174.5t31.5 174.5q3 10 9.5 12
t11.5 -2q5 -3 8 -10.5t0 -17.5q-53 -161 -41 -327q3 -51 0 -99t-21 -93q-11 -25 -26.5 -47t-35.5 -37q-17 -23 -26 -47t-14 -46q-6 -29 -8.5 -52t-3.5 -44q-1 -32 6 -50t24 -16q12 1 18 10t9 22q4 12 8 22.5t12 12.5z" />
    <glyph glyph-name="Wcircumflex" unicode="&#x174;" horiz-adv-x="692" 
d="M644 664q23 -8 25 -31.5t-3 -51.5q-5 -29 -12.5 -55.5t-11.5 -41.5q-17 -53 -26 -111.5t-14 -121.5q-3 -30 -5 -60.5t-5.5 -58.5t-9.5 -53t-16 -44q-4 -8 -19 -14t-32 -9q-20 -4 -35 -1t-19 14q-28 68 -46 137.5t-32 140.5q-15 -73 -31.5 -146t-41.5 -145q-7 -5 -25 -7
t-36 0q-20 2 -33 9.5t-14 18.5q-5 84 -11.5 164t-24 154.5t-51.5 142t-94 125.5l-6 6t-2 3q-4 5 -1.5 9.5t7.5 6.5q2 1 10.5 1.5t19.5 0.5q14 -1 25.5 -0.5t15.5 1.5q10 3 13 14q1 5 6 7q6 1 13 -10q48 -66 76 -139t45.5 -149.5t29.5 -156.5t27 -161q25 74 41.5 149
t31.5 151q-8 39 -15.5 78t-15.5 79q-2 7 -2 9v4q0 13 10 13q2 0 7.5 -2.5t13.5 -6.5l18 -9t11 -4q9 0 15 10q3 6 6 4q4 0 7 -13q9 -59 18.5 -117t23 -114t32.5 -110.5t48 -106.5q13 23 15.5 65.5t4.5 93.5t4 105.5t10 105.5q6 47 11 88t0 71q-2 12 -1.5 23t3.5 20
q6 17 19 24t28 2zM491 706q4 -6 0 -11.5t-13 -8.5q-11 -4 -23.5 -1t-17.5 11q-20 32 -29.5 66.5t-22.5 69.5q-7 -19 -13 -38t-13.5 -37.5t-17 -35t-24.5 -31.5q-7 -6 -13 -4q-5 2 -9 8t-1 12l8 8q16 15 26.5 33t17 38.5t12 42.5t12.5 45q4 9 7 9q4 0 9 -6q6 -10 12 -10
t11.5 2.5t12.5 6.5q14 8 24 7q5 -2 6 -6t0 -15q-1 -25 1 -53t10 -51q7 -23 17.5 -36.5t10.5 -14.5z" />
    <glyph glyph-name="Yacute" unicode="&#xdd;" horiz-adv-x="413" 
d="M392 648q5 -4 8 -10.5t1 -14.5q-1 -2 -7 -8q-53 -51 -83.5 -125t-53.5 -161q1 -150 15 -302q1 -10 -16.5 -19t-39.5 -10q-20 -1 -35.5 6t-14.5 18q5 79 6.5 157.5t2.5 158.5q-15 43 -31 84t-35 78t-42.5 67.5t-53.5 53.5q-7 5 -7 7q-2 5 1 11t8 8q2 2 10 4t18 4
q13 2 23.5 3.5t14.5 3.5q10 4 16 17q3 5 6 7q5 1 14 -12q22 -35 39 -74t31.5 -80t27.5 -83.5t26 -83.5q24 86 54 162.5t82 131.5q8 6 15 1zM332 927q3 -2 4.5 -7t0.5 -8q-14 -13 -23 -31.5t-16 -39.5t-13 -44t-15 -44q-4 -10 -15.5 -13t-22.5 2q-9 5 -13.5 11.5t-2.5 12.5
q0 1 8 14t14 36q7 23 10 53t7 56q1 20 9 21q10 1 22 -10q6 -5 11.5 -9t10.5 -6t14 4q5 4 10 2z" />
    <glyph glyph-name="Ycircumflex" unicode="&#x176;" horiz-adv-x="414" 
d="M392 648q5 -4 8 -10.5t1 -14.5q-1 -2 -7 -8q-53 -51 -83.5 -125t-53.5 -161q1 -150 15 -302q1 -10 -16.5 -19t-39.5 -10q-20 -1 -35.5 6t-14.5 18q5 79 6.5 157.5t2.5 158.5q-15 43 -31 84t-35 78t-42.5 67.5t-53.5 53.5q-7 5 -7 7q-2 5 1 11t8 8q2 2 10 4t18 4
q13 2 23.5 3.5t14.5 3.5q10 4 16 17q3 5 6 7q5 1 14 -12q22 -35 39 -74t31.5 -80t27.5 -83.5t26 -83.5q24 86 54 162.5t82 131.5q8 6 15 1zM356 759q4 -6 0 -11.5t-13 -8.5q-11 -4 -23.5 -1t-17.5 11q-20 32 -29.5 66.5t-22.5 69.5q-7 -19 -13 -38t-13.5 -37.5t-17 -35
t-24.5 -31.5q-7 -6 -13 -4q-5 2 -9 8t-1 12l8 8q16 15 26.5 33t17 38.5t12 42.5t12.5 45q4 9 7 9q4 0 9 -6q6 -10 12 -10t11.5 2.5t12.5 6.5q14 8 24 7q5 -2 6 -6t0 -15q-1 -25 1 -53t10 -51q7 -23 17.5 -36.5t10.5 -14.5z" />
    <glyph glyph-name="Ydieresis" unicode="&#x178;" horiz-adv-x="412" 
d="M393 648q5 -4 8 -10.5t1 -14.5q-1 -2 -7 -8q-53 -51 -83.5 -125t-53.5 -161q1 -150 15 -302q1 -10 -16.5 -19t-39.5 -10q-20 -1 -35.5 6t-14.5 18q5 79 6.5 157.5t2.5 158.5q-15 43 -31 84t-35 78t-42.5 67.5t-53.5 53.5q-7 5 -7 7q-2 5 1 11t8 8q2 2 10 4t18 4
q13 2 23.5 3.5t14.5 3.5q10 4 16 17q3 5 6 7q5 1 14 -12q22 -35 39 -74t31.5 -80t27.5 -83.5t26 -83.5q24 86 54 162.5t82 131.5q8 6 15 1zM212 817q13 -12 15 -33q0 -21 -15 -34q-16 -13 -36 -11q-10 1 -14 5.5t-4 10.5t2 13.5t1 15.5q1 8 -1.5 15t-1.5 13q0 13 18 16
q20 2 36 -11zM334 784q-1 -8 1 -15.5t2 -13.5q-2 -15 -19 -16q-19 -2 -35 11q-15 13 -15 34q2 21 15 33q16 13 35 11q10 -1 14 -5.5t5 -10.5t-1.5 -13t-1.5 -15z" />
    <glyph glyph-name="Zacute" unicode="&#x179;" horiz-adv-x="352" 
d="M342 88q2 -6 -0.5 -13.5t-7.5 -11.5q-158 -120 -316 0q-6 5 -8 12t0 13q42 45 67.5 112t44 145t35.5 161t43 161q-79 9 -158 -42q-5 -2 -9 0t-6 8t1 13t8 10q134 93 271 6q6 -4 8 -10.5t0 -12.5q-39 -54 -63 -126t-42 -151.5t-36.5 -161.5t-47.5 -156q101 -23 200 49
q13 7 16 -5zM262 928q3 -2 4.5 -7t0.5 -8q-14 -13 -23 -31.5t-16 -39.5t-13 -44t-15 -44q-4 -10 -15.5 -13t-22.5 2q-9 5 -13.5 11.5t-2.5 12.5q0 1 8 14t14 36q7 23 10 53t7 56q1 20 9 21q10 1 22 -10q6 -5 11.5 -9t10.5 -6t14 4q5 4 10 2z" />
    <glyph glyph-name="Zcaron" unicode="&#x17d;" horiz-adv-x="357" 
d="M346 88q2 -6 -0.5 -13.5t-7.5 -11.5q-158 -120 -316 0q-6 5 -8 12t0 13q42 45 67.5 112t44 145t35.5 161t43 161q-79 9 -158 -42q-5 -2 -9 0t-6 8t1 13t8 10q134 93 271 6q6 -4 8 -10.5t0 -12.5q-39 -54 -63 -126t-42 -151.5t-36.5 -161.5t-47.5 -156q101 -23 200 49
q13 7 16 -5zM283 935q5 -2 9 -8t0 -12q-1 -2 -7 -8q-17 -15 -27 -33t-16.5 -38.5t-12.5 -43t-13 -44.5q-2 -8 -7 -8q-3 -2 -8 5l-6 7.5t-7 2.5q-9 0 -23 -9q-14 -8 -24 -7q-5 2 -6 6t0 15q1 26 -1 54t-10 51q-7 23 -17.5 36t-11.5 14q-3 6 1 11.5t13 8.5q11 4 23.5 1
t17.5 -11q20 -32 29.5 -66.5t22.5 -69.5q13 38 26 75.5t42 66.5q7 6 13 4z" />
    <glyph glyph-name="Zdotaccent" unicode="&#x17b;" horiz-adv-x="350" 
d="M342 88q2 -6 -0.5 -13.5t-7.5 -11.5q-158 -120 -316 0q-6 5 -8 12t0 13q42 45 67.5 112t44 145t35.5 161t43 161q-79 9 -158 -42q-5 -2 -9 0t-6 8t1 13t8 10q134 93 271 6q6 -4 8 -10.5t0 -12.5q-39 -54 -63 -126t-42 -151.5t-36.5 -161.5t-47.5 -156q101 -23 200 49
q13 7 16 -5zM204 819q4 -7 5 -14.5t1 -15.5t-1 -16t-5 -15q-4 -8 -10.5 -13t-16.5 -5q-9 0 -15.5 5t-10.5 13q-4 7 -5 15t-1 16t1 15.5t5 14.5t10.5 12.5t15.5 5.5q10 0 16.5 -5.5t10.5 -12.5z" />
    <glyph glyph-name="agrave" unicode="&#xe0;" horiz-adv-x="315" 
d="M300 72q4 -8 -11.5 -21t-36.5 -20q-19 -7 -34.5 -5t-16.5 13q-2 14 -3 29l-2 30q-6 -21 -15 -38t-21 -28.5t-28 -16.5t-37 -1q-23 4 -40 16.5t-26 29.5q-10 16 -12 33t3 34q13 45 56 74q21 15 50 26t65 10v24q1 31 1.5 58t-2 46.5t-8.5 31t-19 12.5q-11 1 -16.5 -7.5
t-10.5 -19.5q-5 -15 -12 -30t-19 -16q-11 -2 -22 9t-13 27q-3 12 1.5 24t14.5 21.5t25.5 16t35.5 7.5q38 1 65 -19.5t41 -47.5q15 -28 17.5 -58t0.5 -62q-7 -90 29 -182zM195 522q2 -6 -3 -12.5t-13 -11.5q-11 -5 -23 -2t-15 13q-9 21 -15.5 43.5t-13 43.5t-15.5 39.5
t-23 30.5q0 1 -1 2q-1 3 1 8t5 7q5 2 9 -2q9 -6 14 -4q6 2 11.5 6t10.5 9q13 11 22 10q5 -1 6.5 -5.5t3.5 -15.5q3 -26 6.5 -56t10.5 -53q6 -23 14 -36t8 -14zM126 39q19 -2 37.5 30.5t28.5 84.5q0 14 -0.5 29t-0.5 29q-38 -1 -62 -32t-29 -78q-2 -26 5 -43.5t21 -19.5z" />
    <glyph glyph-name="aacute" unicode="&#xe1;" horiz-adv-x="315" 
d="M294 72q4 -8 -11.5 -21t-36.5 -20q-19 -7 -34.5 -5t-16.5 13q-2 14 -3 29l-2 30q-6 -21 -15 -38t-21 -28.5t-28 -16.5t-37 -1q-23 4 -40 16.5t-26 29.5q-10 16 -12 33t3 34q13 45 56 74q21 15 50 26t65 10v24q1 31 1.5 58t-2 46.5t-8.5 31t-19 12.5q-11 1 -16.5 -7.5
t-10.5 -19.5q-5 -15 -12 -30t-19 -16q-11 -2 -22 9t-13 27q-3 12 1.5 24t14.5 21.5t25.5 16t35.5 7.5q38 1 65 -19.5t41 -47.5q15 -28 17.5 -58t0.5 -62q-7 -90 29 -182zM245 683q3 -2 4.5 -7t0.5 -8q-14 -13 -23 -31.5t-16 -39.5t-13 -44t-15 -44q-4 -10 -15.5 -13t-22.5 2
q-9 5 -13.5 11.5t-2.5 12.5q0 1 8 14t14 36q7 23 10 53t7 56q1 20 9 21q10 1 22 -10q6 -5 11.5 -9t10.5 -6t14 4q5 4 10 2zM120 39q19 -2 37.5 30.5t28.5 84.5q0 14 -0.5 29t-0.5 29q-38 -1 -62 -32t-29 -78q-2 -26 5 -43.5t21 -19.5z" />
    <glyph glyph-name="acircumflex" unicode="&#xe2;" horiz-adv-x="319" 
d="M297 72q4 -8 -11.5 -21t-36.5 -20q-19 -7 -34.5 -5t-16.5 13q-2 14 -3 29l-2 30q-6 -21 -15 -38t-21 -28.5t-28 -16.5t-37 -1q-23 4 -40 16.5t-26 29.5q-10 16 -12 33t3 34q13 45 56 74q21 15 50 26t65 10v24q1 31 1.5 58t-2 46.5t-8.5 31t-19 12.5q-11 1 -16.5 -7.5
t-10.5 -19.5q-5 -15 -12 -30t-19 -16q-11 -2 -22 9t-13 27q-3 12 1.5 24t14.5 21.5t25.5 16t35.5 7.5q38 1 65 -19.5t41 -47.5q15 -28 17.5 -58t0.5 -62q-7 -90 29 -182zM272 515q4 -6 0 -11.5t-13 -8.5q-11 -4 -23.5 -1t-17.5 11q-20 32 -29.5 66.5t-22.5 69.5
q-7 -19 -13 -38t-13.5 -37.5t-17 -35t-24.5 -31.5q-7 -6 -13 -4q-5 2 -9 8t-1 12l8 8q16 15 26.5 33t17 38.5t12 42.5t12.5 45q4 9 7 9q4 0 9 -6q6 -10 12 -10t11.5 2.5t12.5 6.5q14 8 24 7q5 -2 6 -6t0 -15q-1 -25 1 -53t10 -51q7 -23 17.5 -36.5t10.5 -14.5zM123 39
q19 -2 37.5 30.5t28.5 84.5q0 14 -0.5 29t-0.5 29q-38 -1 -62 -32t-29 -78q-2 -26 5 -43.5t21 -19.5z" />
    <glyph glyph-name="adieresis" unicode="&#xe4;" horiz-adv-x="325" 
d="M302 72q4 -8 -11.5 -21t-36.5 -20q-19 -7 -34.5 -5t-16.5 13q-2 14 -3 29l-2 30q-6 -21 -15 -38t-21 -28.5t-28 -16.5t-37 -1q-23 4 -40 16.5t-26 29.5q-10 16 -12 33t3 34q13 45 56 74q21 15 50 26t65 10v24q1 31 1.5 58t-2 46.5t-8.5 31t-19 12.5q-11 1 -16.5 -7.5
t-10.5 -19.5q-5 -15 -12 -30t-19 -16q-11 -2 -22 9t-13 27q-3 12 1.5 24t14.5 21.5t25.5 16t35.5 7.5q38 1 65 -19.5t41 -47.5q15 -28 17.5 -58t0.5 -62q-7 -90 29 -182zM128 39q19 -2 37.5 30.5t28.5 84.5q0 14 -0.5 29t-0.5 29q-38 -1 -62 -32t-29 -78q-2 -26 5 -43.5
t21 -19.5zM132 573q13 -12 15 -33q0 -21 -15 -34q-16 -13 -36 -11q-10 1 -14 5.5t-4 10.5t2 13.5t1 15.5q1 8 -1.5 15t-1.5 13q0 13 18 16q20 2 36 -11zM254 540q-1 -8 1 -15.5t2 -13.5q-2 -15 -19 -16q-19 -2 -35 11q-15 13 -15 34q2 21 15 33q16 13 35 11q10 -1 14 -5.5
t5 -10.5t-1.5 -13t-1.5 -15z" />
    <glyph glyph-name="amacron" unicode="&#x101;" horiz-adv-x="316" 
d="M296 72q4 -8 -11.5 -21t-36.5 -20q-19 -7 -34.5 -5t-16.5 13q-2 14 -3 29l-2 30q-6 -21 -15 -38t-21 -28.5t-28 -16.5t-37 -1q-23 4 -40 16.5t-26 29.5q-10 16 -12 33t3 34q13 45 56 74q21 15 50 26t65 10v24q1 31 1.5 58t-2 46.5t-8.5 31t-19 12.5q-11 1 -16.5 -7.5
t-10.5 -19.5q-5 -15 -12 -30t-19 -16q-11 -2 -22 9t-13 27q-3 12 1.5 24t14.5 21.5t25.5 16t35.5 7.5q38 1 65 -19.5t41 -47.5q15 -28 17.5 -58t0.5 -62q-7 -90 29 -182zM122 39q19 -2 37.5 30.5t28.5 84.5q0 14 -0.5 29t-0.5 29q-38 -1 -62 -32t-29 -78q-2 -26 5 -43.5
t21 -19.5zM259 515q0 -3 4 -6t8.5 -5.5t7.5 -4t0 -1.5q-118 -6 -236 0q-3 0 -0.5 1.5t7 4t9 5.5t4.5 6t-4 6t-8.5 5.5t-7.5 4t0 1.5q118 6 236 0q3 0 0 -1.5t-7.5 -4t-8.5 -5.5t-4 -6z" />
    <glyph glyph-name="atilde" unicode="&#xe3;" horiz-adv-x="349" 
d="M305 72q4 -8 -11.5 -21t-36.5 -20q-19 -7 -34.5 -5t-16.5 13q-2 14 -3 29l-2 30q-6 -21 -15 -38t-21 -28.5t-28 -16.5t-37 -1q-23 4 -40 16.5t-26 29.5q-10 16 -12 33t3 34q13 45 56 74q21 15 50 26t65 10v24q1 31 1.5 58t-2 46.5t-8.5 31t-19 12.5q-11 1 -16.5 -7.5
t-10.5 -19.5q-5 -15 -12 -30t-19 -16q-11 -2 -22 9t-13 27q-3 12 1.5 24t14.5 21.5t25.5 16t35.5 7.5q38 1 65 -19.5t41 -47.5q15 -28 17.5 -58t0.5 -62q-7 -90 29 -182zM325 623q5 -2 4 -5.5t-5 -7.5q-23 -22 -30 -38.5t-14 -30.5q-6 -13 -16 -21.5t-28 -9.5
q-11 -1 -25.5 1.5t-40.5 10.5q-15 5 -29.5 8t-29.5 4t-28.5 -10.5t-27.5 -28.5q-3 -4 -10 -7t-12 -2q-6 1 -5 5t5 8q13 13 20.5 24.5t11.5 22t6 19.5t5 17q5 17 17 27t36 12q14 1 33 -1.5t47 -10.5q15 -5 28 -8t24 -4q26 -2 41 17q3 4 10 7t13 2zM131 39q19 -2 37.5 30.5
t28.5 84.5q0 14 -0.5 29t-0.5 29q-38 -1 -62 -32t-29 -78q-2 -26 5 -43.5t21 -19.5z" />
    <glyph glyph-name="abreve" unicode="&#x103;" horiz-adv-x="330" 
d="M306 72q4 -8 -11.5 -21t-36.5 -20q-19 -7 -34.5 -5t-16.5 13q-2 14 -3 29l-2 30q-6 -21 -15 -38t-21 -28.5t-28 -16.5t-37 -1q-23 4 -40 16.5t-26 29.5q-10 16 -12 33t3 34q13 45 56 74q21 15 50 26t65 10v24q1 31 1.5 58t-2 46.5t-8.5 31t-19 12.5q-11 1 -16.5 -7.5
t-10.5 -19.5q-5 -15 -12 -30t-19 -16q-11 -2 -22 9t-13 27q-3 12 1.5 24t14.5 21.5t25.5 16t35.5 7.5q38 1 65 -19.5t41 -47.5q15 -28 17.5 -58t0.5 -62q-7 -90 29 -182zM286 651q5 -1 6.5 -4.5t-0.5 -5.5q-23 -25 -32 -48t-16 -45q-5 -11 -10 -20t-14 -17
q-9 -7 -21.5 -11.5t-27.5 -4.5q-31 0 -54 15q-11 8 -17.5 17.5t-11.5 20.5q-9 23 -19 45.5t-33 47.5q-2 2 -1.5 5t5.5 5q6 2 11.5 -0.5t7.5 -4.5q19 -28 41.5 -41t62.5 -14q42 1 64.5 14t41.5 41q2 2 7 4.5t10 0.5zM132 39q19 -2 37.5 30.5t28.5 84.5q0 14 -0.5 29t-0.5 29
q-38 -1 -62 -32t-29 -78q-2 -26 5 -43.5t21 -19.5z" />
    <glyph glyph-name="aring" unicode="&#xe5;" horiz-adv-x="321" 
d="M300 72q4 -8 -11.5 -21t-36.5 -20q-19 -7 -34.5 -5t-16.5 13q-2 14 -3 29l-2 30q-6 -21 -15 -38t-21 -28.5t-28 -16.5t-37 -1q-23 4 -40 16.5t-26 29.5q-10 16 -12 33t3 34q13 45 56 74q21 15 50 26t65 10v24q1 31 1.5 58t-2 46.5t-8.5 31t-19 12.5q-11 1 -16.5 -7.5
t-10.5 -19.5q-5 -15 -12 -30t-19 -16q-11 -2 -22 9t-13 27q-3 12 1.5 24t14.5 21.5t25.5 16t35.5 7.5q38 1 65 -19.5t41 -47.5q15 -28 17.5 -58t0.5 -62q-7 -90 29 -182zM230 678q9 -17 11 -34t2 -34q-2 -18 -4 -36.5t-13 -36.5q-10 -17 -28.5 -30t-42.5 -11q-21 0 -37 11.5
t-24 27.5t-10 33t-2 34q2 18 4 37t12 36t27.5 30t41.5 12q22 0 38.5 -12t24.5 -27zM126 39q19 -2 37.5 30.5t28.5 84.5q0 14 -0.5 29t-0.5 29q-38 -1 -62 -32t-29 -78q-2 -26 5 -43.5t21 -19.5zM164 526q13 0 17.5 17.5t3.5 62.5q1 45 -3.5 62.5t-17.5 17.5q-17 0 -21 -22.5
t-4 -57.5t4 -57.5t21 -22.5z" />
    <glyph glyph-name="aogonek" unicode="&#x105;" horiz-adv-x="319" 
d="M270 -162q8 2 15 -4.5t9 -14.5q5 -19 -15 -45q-10 -12 -24.5 -22t-33.5 -12q-27 -2 -46 11t-30 30q-11 18 -13 36.5t1 38.5t11 40t20 48q9 18 20 39.5t27 42.5q-16 2 -16 13q-2 14 -3 29l-2 30q-6 -21 -15 -38t-21 -28.5t-28 -16.5t-37 -1q-23 4 -40 16.5t-26 29.5
q-10 16 -12 33t3 34q13 45 56 74q21 15 50 26t65 10v24q1 31 1.5 58t-2 46.5t-8.5 31t-19 12.5q-11 1 -16.5 -7.5t-10.5 -19.5q-5 -15 -12 -30t-19 -16q-11 -2 -22 9t-13 27q-3 12 1.5 24t14.5 21.5t25.5 16t35.5 7.5q38 1 65 -19.5t41 -47.5q15 -28 17.5 -58t0.5 -62
q-7 -90 29 -182q3 -8 -10.5 -20t-33.5 -20q-20 -23 -30 -49.5t-15 -49.5q-6 -29 -8.5 -52t-3.5 -44q-1 -32 6 -50t24 -16q12 1 18 10t9 22q4 12 8 22.5t12 12.5zM120 39q19 -2 37.5 30.5t28.5 84.5q0 14 -0.5 29t-0.5 29q-38 -1 -62 -32t-29 -78q-2 -26 5 -43.5t21 -19.5z
" />
    <glyph glyph-name="cacute" unicode="&#x107;" horiz-adv-x="269" 
d="M163 415q-18 2 -31 -15t-21 -45t-10 -62t-3 -69q1 -33 3.5 -66.5t11.5 -59.5q8 -27 23 -43.5t35 -12.5q24 4 41 29.5t20 53.5q1 8 9 12q9 2 11 -6q1 -2 1.5 -6.5t-1.5 -12.5q-3 -19 -11.5 -37t-22.5 -32.5t-33 -24t-43 -10.5q-22 -1 -40 5t-32.5 16.5t-24.5 24.5t-17 29
q-14 31 -15 61.5t-1 59.5q3 35 8.5 72t22.5 76q8 18 21 35.5t30.5 29.5t39.5 17.5t48 0.5q42 -9 60.5 -34t10.5 -48q-5 -16 -14.5 -23t-20.5 -5q-12 4 -21 18.5t-13 37.5q-3 17 -7.5 24.5t-13.5 9.5zM240 683q3 -2 4.5 -7t0.5 -8q-14 -13 -23 -31.5t-16 -39.5t-13 -44
t-15 -44q-4 -10 -15.5 -13t-22.5 2q-9 5 -13.5 11.5t-2.5 12.5q0 1 8 14t14 36q7 23 10 53t7 56q1 20 9 21q10 1 22 -10q6 -5 11.5 -9t10.5 -6t14 4q5 4 10 2z" />
    <glyph glyph-name="ccircumflex" unicode="&#x109;" horiz-adv-x="283" 
d="M167 415q-18 2 -31 -15t-21 -45t-10 -62t-3 -69q1 -33 3.5 -66.5t11.5 -59.5q8 -27 23 -43.5t35 -12.5q24 4 41 29.5t20 53.5q1 8 9 12q9 2 11 -6q1 -2 1.5 -6.5t-1.5 -12.5q-3 -19 -11.5 -37t-22.5 -32.5t-33 -24t-43 -10.5q-22 -1 -40 5t-32.5 16.5t-24.5 24.5t-17 29
q-14 31 -15 61.5t-1 59.5q3 35 8.5 72t22.5 76q8 18 21 35.5t30.5 29.5t39.5 17.5t48 0.5q42 -9 60.5 -34t10.5 -48q-5 -16 -14.5 -23t-20.5 -5q-12 4 -21 18.5t-13 37.5q-3 17 -7.5 24.5t-13.5 9.5zM268 515q4 -6 0 -11.5t-13 -8.5q-11 -4 -23.5 -1t-17.5 11
q-20 32 -29.5 66.5t-22.5 69.5q-7 -19 -13 -38t-13.5 -37.5t-17 -35t-24.5 -31.5q-7 -6 -13 -4q-5 2 -9 8t-1 12l8 8q16 15 26.5 33t17 38.5t12 42.5t12.5 45q4 9 7 9q4 0 9 -6q6 -10 12 -10t11.5 2.5t12.5 6.5q14 8 24 7q5 -2 6 -6t0 -15q-1 -25 1 -53t10 -51
q7 -23 17.5 -36.5t10.5 -14.5z" />
    <glyph glyph-name="ccaron" unicode="&#x10d;" horiz-adv-x="288" 
d="M170 415q-18 2 -31 -15t-21 -45t-10 -62t-3 -69q1 -33 3.5 -66.5t11.5 -59.5q8 -27 23 -43.5t35 -12.5q24 4 41 29.5t20 53.5q1 8 9 12q9 2 11 -6q1 -2 1.5 -6.5t-1.5 -12.5q-3 -19 -11.5 -37t-22.5 -32.5t-33 -24t-43 -10.5q-22 -1 -40 5t-32.5 16.5t-24.5 24.5t-17 29
q-14 31 -15 61.5t-1 59.5q3 35 8.5 72t22.5 76q8 18 21 35.5t30.5 29.5t39.5 17.5t48 0.5q42 -9 60.5 -34t10.5 -48q-5 -16 -14.5 -23t-20.5 -5q-12 4 -21 18.5t-13 37.5q-3 17 -7.5 24.5t-13.5 9.5zM264 690q5 -2 9 -8t0 -12q-1 -2 -7 -8q-17 -15 -27 -33t-16.5 -38.5
t-12.5 -43t-13 -44.5q-2 -8 -7 -8q-3 -2 -8 5l-6 7.5t-7 2.5q-9 0 -23 -9q-14 -8 -24 -7q-5 2 -6 6t0 15q1 26 -1 54t-10 51q-7 23 -17.5 36t-11.5 14q-3 6 1 11.5t13 8.5q11 4 23.5 1t17.5 -11q20 -32 29.5 -66.5t22.5 -69.5q13 38 26 75.5t42 66.5q7 6 13 4z" />
    <glyph glyph-name="cdotaccent" unicode="&#x10b;" horiz-adv-x="273" 
d="M167 415q-18 2 -31 -15t-21 -45t-10 -62t-3 -69q1 -33 3.5 -66.5t11.5 -59.5q8 -27 23 -43.5t35 -12.5q24 4 41 29.5t20 53.5q1 8 9 12q9 2 11 -6q1 -2 1.5 -6.5t-1.5 -12.5q-3 -19 -11.5 -37t-22.5 -32.5t-33 -24t-43 -10.5q-22 -1 -40 5t-32.5 16.5t-24.5 24.5t-17 29
q-14 31 -15 61.5t-1 59.5q3 35 8.5 72t22.5 76q8 18 21 35.5t30.5 29.5t39.5 17.5t48 0.5q42 -9 60.5 -34t10.5 -48q-5 -16 -14.5 -23t-20.5 -5q-12 4 -21 18.5t-13 37.5q-3 17 -7.5 24.5t-13.5 9.5zM186 574q4 -7 5 -14.5t1 -15.5t-1 -16t-5 -15q-4 -8 -10.5 -13t-16.5 -5
q-9 0 -15.5 5t-10.5 13q-4 7 -5 15t-1 16t1 15.5t5 14.5t10.5 12.5t15.5 5.5q10 0 16.5 -5.5t10.5 -12.5z" />
    <glyph glyph-name="ccedilla" unicode="&#xe7;" horiz-adv-x="273" 
d="M211 -87q17 -25 23 -60q2 -14 0 -29.5t-11 -32.5q-8 -15 -24.5 -27.5t-39.5 -13.5q-29 0 -50 20t-27 45q-3 7 -1 16q3 12 11 9q6 -1 10 -13q4 -19 14.5 -31t22.5 -14q10 -1 16.5 5t10.5 16t5.5 23t1.5 26q0 14 -2.5 28t-7 25.5t-12 18t-19.5 5.5q-1 20 -2 39.5t-3 39.5
q-36 4 -59.5 26.5t-35.5 48.5q-14 31 -15 61.5t-1 59.5q3 35 8.5 72t22.5 76q8 18 21 35.5t30.5 29.5t39.5 17.5t48 0.5q42 -9 60.5 -34t10.5 -48q-5 -16 -14.5 -23t-20.5 -5q-12 4 -21 18.5t-13 37.5q-3 17 -7.5 24.5t-13.5 9.5q-18 2 -31 -15t-21 -45t-10 -62t-3 -69
q1 -33 3.5 -66.5t11.5 -59.5q8 -27 23 -43.5t35 -12.5q24 4 41 29.5t20 53.5q1 8 9 12q9 2 11 -6q1 -2 1.5 -6.5t-1.5 -12.5q-6 -37 -33.5 -68t-72.5 -36v-28.5t1 -28.5q21 1 35.5 -11t24.5 -27z" />
    <glyph glyph-name="egrave" unicode="&#xe8;" horiz-adv-x="272" 
d="M259 130v-5t-1 -8q-2 -18 -9.5 -36.5t-21 -34t-33.5 -26t-45 -12.5q-22 -1 -40 5t-32.5 16.5t-24.5 24.5t-17 29q-14 31 -15 61.5t-1 59.5q4 35 6.5 71.5t17.5 74.5q7 18 18.5 35.5t27.5 30t36 19t46 3.5q32 -5 50.5 -21.5t26.5 -35.5q9 -19 9 -37t-3 -35
q-6 -27 -17.5 -48.5t-27.5 -26.5q-26 1 -52 1h-52v-11q1 -33 3.5 -66.5t11.5 -59.5q8 -27 23.5 -43.5t35.5 -12.5q23 4 40 29.5t20 53.5q1 10 9 12t11 -7zM185 523q2 -6 -3 -12.5t-13 -11.5q-11 -5 -23 -2t-15 13q-9 21 -15.5 43.5t-13 43.5t-15.5 39.5t-23 30.5q0 1 -1 2
q-1 3 1 8t5 7q5 2 9 -2q9 -6 14 -4q6 2 11.5 6t10.5 9q13 11 22 10q5 -1 6.5 -5.5t3.5 -15.5q3 -26 6.5 -56t10.5 -53q6 -23 14 -36t8 -14zM167 407q-15 2 -26 -9t-18.5 -30t-11.5 -45t-5 -54q20 1 41 1t41 -2q2 -1 6.5 15t6.5 39q3 31 -4 56.5t-30 28.5z" />
    <glyph glyph-name="eacute" unicode="&#xe9;" horiz-adv-x="274" 
d="M252 130v-5t-1 -8q-2 -18 -9.5 -36.5t-21 -34t-33.5 -26t-45 -12.5q-22 -1 -40 5t-32.5 16.5t-24.5 24.5t-17 29q-14 31 -15 61.5t-1 59.5q4 35 6.5 71.5t17.5 74.5q7 18 18.5 35.5t27.5 30t36 19t46 3.5q32 -5 50.5 -21.5t26.5 -35.5q9 -19 9 -37t-3 -35
q-6 -27 -17.5 -48.5t-27.5 -26.5q-26 1 -52 1h-52v-11q1 -33 3.5 -66.5t11.5 -59.5q8 -27 23.5 -43.5t35.5 -12.5q23 4 40 29.5t20 53.5q1 10 9 12t11 -7zM234 684q3 -2 4.5 -7t0.5 -8q-14 -13 -23 -31.5t-16 -39.5t-13 -44t-15 -44q-4 -10 -15.5 -13t-22.5 2
q-9 5 -13.5 11.5t-2.5 12.5q0 1 8 14t14 36q7 23 10 53t7 56q1 20 9 21q10 1 22 -10q6 -5 11.5 -9t10.5 -6t14 4q5 4 10 2zM160 407q-15 2 -26 -9t-18.5 -30t-11.5 -45t-5 -54q20 1 41 1t41 -2q2 -1 6.5 15t6.5 39q3 31 -4 56.5t-30 28.5z" />
    <glyph glyph-name="ecircumflex" unicode="&#xea;" horiz-adv-x="286" 
d="M256 130v-5t-1 -8q-2 -18 -9.5 -36.5t-21 -34t-33.5 -26t-45 -12.5q-22 -1 -40 5t-32.5 16.5t-24.5 24.5t-17 29q-14 31 -15 61.5t-1 59.5q4 35 6.5 71.5t17.5 74.5q7 18 18.5 35.5t27.5 30t36 19t46 3.5q32 -5 50.5 -21.5t26.5 -35.5q9 -19 9 -37t-3 -35
q-6 -27 -17.5 -48.5t-27.5 -26.5q-26 1 -52 1h-52v-11q1 -33 3.5 -66.5t11.5 -59.5q8 -27 23.5 -43.5t35.5 -12.5q23 4 40 29.5t20 53.5q1 10 9 12t11 -7zM262 516q4 -6 0 -11.5t-13 -8.5q-11 -4 -23.5 -1t-17.5 11q-20 32 -29.5 66.5t-22.5 69.5q-7 -19 -13 -38
t-13.5 -37.5t-17 -35t-24.5 -31.5q-7 -6 -13 -4q-5 2 -9 8t-1 12l8 8q16 15 26.5 33t17 38.5t12 42.5t12.5 45q4 9 7 9q4 0 9 -6q6 -10 12 -10t11.5 2.5t12.5 6.5q14 8 24 7q5 -2 6 -6t0 -15q-1 -25 1 -53t10 -51q7 -23 17.5 -36.5t10.5 -14.5zM164 407q-15 2 -26 -9
t-18.5 -30t-11.5 -45t-5 -54q20 1 41 1t41 -2q2 -1 6.5 15t6.5 39q3 31 -4 56.5t-30 28.5z" />
    <glyph glyph-name="ecaron" unicode="&#x11b;" horiz-adv-x="291" 
d="M259 130v-5t-1 -8q-2 -18 -9.5 -36.5t-21 -34t-33.5 -26t-45 -12.5q-22 -1 -40 5t-32.5 16.5t-24.5 24.5t-17 29q-14 31 -15 61.5t-1 59.5q4 35 6.5 71.5t17.5 74.5q7 18 18.5 35.5t27.5 30t36 19t46 3.5q32 -5 50.5 -21.5t26.5 -35.5q9 -19 9 -37t-3 -35
q-6 -27 -17.5 -48.5t-27.5 -26.5q-26 1 -52 1h-52v-11q1 -33 3.5 -66.5t11.5 -59.5q8 -27 23.5 -43.5t35.5 -12.5q23 4 40 29.5t20 53.5q1 10 9 12t11 -7zM258 691q5 -2 9 -8t0 -12q-1 -2 -7 -8q-17 -15 -27 -33t-16.5 -38.5t-12.5 -43t-13 -44.5q-2 -8 -7 -8q-3 -2 -8 5
l-6 7.5t-7 2.5q-9 0 -23 -9q-14 -8 -24 -7q-5 2 -6 6t0 15q1 26 -1 54t-10 51q-7 23 -17.5 36t-11.5 14q-3 6 1 11.5t13 8.5q11 4 23.5 1t17.5 -11q20 -32 29.5 -66.5t22.5 -69.5q13 38 26 75.5t42 66.5q7 6 13 4zM167 407q-15 2 -26 -9t-18.5 -30t-11.5 -45t-5 -54
q20 1 41 1t41 -2q2 -1 6.5 15t6.5 39q3 31 -4 56.5t-30 28.5z" />
    <glyph glyph-name="edieresis" unicode="&#xeb;" horiz-adv-x="286" 
d="M262 130v-5t-1 -8q-2 -18 -9.5 -36.5t-21 -34t-33.5 -26t-45 -12.5q-22 -1 -40 5t-32.5 16.5t-24.5 24.5t-17 29q-14 31 -15 61.5t-1 59.5q4 35 6.5 71.5t17.5 74.5q7 18 18.5 35.5t27.5 30t36 19t46 3.5q32 -5 50.5 -21.5t26.5 -35.5q9 -19 9 -37t-3 -35
q-6 -27 -17.5 -48.5t-27.5 -26.5q-26 1 -52 1h-52v-11q1 -33 3.5 -66.5t11.5 -59.5q8 -27 23.5 -43.5t35.5 -12.5q23 4 40 29.5t20 53.5q1 10 9 12t11 -7zM170 407q-15 2 -26 -9t-18.5 -30t-11.5 -45t-5 -54q20 1 41 1t41 -2q2 -1 6.5 15t6.5 39q3 31 -4 56.5t-30 28.5z
M123 574q13 -12 15 -33q0 -21 -15 -34q-16 -13 -36 -11q-10 1 -14 5.5t-4 10.5t2 13.5t1 15.5q1 8 -1.5 15t-1.5 13q0 13 18 16q20 2 36 -11zM245 541q-1 -8 1 -15.5t2 -13.5q-2 -15 -19 -16q-19 -2 -35 11q-15 13 -15 34q2 21 15 33q16 13 35 11q10 -1 14 -5.5t5 -10.5
t-1.5 -13t-1.5 -15z" />
    <glyph glyph-name="edotaccent" unicode="&#x117;" horiz-adv-x="275" 
d="M257 130v-5t-1 -8q-2 -18 -9.5 -36.5t-21 -34t-33.5 -26t-45 -12.5q-22 -1 -40 5t-32.5 16.5t-24.5 24.5t-17 29q-14 31 -15 61.5t-1 59.5q4 35 6.5 71.5t17.5 74.5q7 18 18.5 35.5t27.5 30t36 19t46 3.5q32 -5 50.5 -21.5t26.5 -35.5q9 -19 9 -37t-3 -35
q-6 -27 -17.5 -48.5t-27.5 -26.5q-26 1 -52 1h-52v-11q1 -33 3.5 -66.5t11.5 -59.5q8 -27 23.5 -43.5t35.5 -12.5q23 4 40 29.5t20 53.5q1 10 9 12t11 -7zM165 407q-15 2 -26 -9t-18.5 -30t-11.5 -45t-5 -54q20 1 41 1t41 -2q2 -1 6.5 15t6.5 39q3 31 -4 56.5t-30 28.5z
M181 575q4 -7 5 -14.5t1 -15.5t-1 -16t-5 -15q-4 -8 -10.5 -13t-16.5 -5q-9 0 -15.5 5t-10.5 13q-4 7 -5 15t-1 16t1 15.5t5 14.5t10.5 12.5t15.5 5.5q10 0 16.5 -5.5t10.5 -12.5z" />
    <glyph glyph-name="emacron" unicode="&#x113;" horiz-adv-x="294" 
d="M260 130v-5t-1 -8q-2 -18 -9.5 -36.5t-21 -34t-33.5 -26t-45 -12.5q-22 -1 -40 5t-32.5 16.5t-24.5 24.5t-17 29q-14 31 -15 61.5t-1 59.5q4 35 6.5 71.5t17.5 74.5q7 18 18.5 35.5t27.5 30t36 19t46 3.5q32 -5 50.5 -21.5t26.5 -35.5q9 -19 9 -37t-3 -35
q-6 -27 -17.5 -48.5t-27.5 -26.5q-26 1 -52 1h-52v-11q1 -33 3.5 -66.5t11.5 -59.5q8 -27 23.5 -43.5t35.5 -12.5q23 4 40 29.5t20 53.5q1 10 9 12t11 -7zM168 407q-15 2 -26 -9t-18.5 -30t-11.5 -45t-5 -54q20 1 41 1t41 -2q2 -1 6.5 15t6.5 39q3 31 -4 56.5t-30 28.5z
M254 516q0 -3 4 -6t8.5 -5.5t7.5 -4t0 -1.5q-118 -6 -236 0q-3 0 -0.5 1.5t7 4t9 5.5t4.5 6t-4 6t-8.5 5.5t-7.5 4t0 1.5q118 6 236 0q3 0 0 -1.5t-7.5 -4t-8.5 -5.5t-4 -6z" />
    <glyph glyph-name="ebreve" unicode="&#x115;" horiz-adv-x="305" 
d="M266 130v-5t-1 -8q-2 -18 -9.5 -36.5t-21 -34t-33.5 -26t-45 -12.5q-22 -1 -40 5t-32.5 16.5t-24.5 24.5t-17 29q-14 31 -15 61.5t-1 59.5q4 35 6.5 71.5t17.5 74.5q7 18 18.5 35.5t27.5 30t36 19t46 3.5q32 -5 50.5 -21.5t26.5 -35.5q9 -19 9 -37t-3 -35
q-6 -27 -17.5 -48.5t-27.5 -26.5q-26 1 -52 1h-52v-11q1 -33 3.5 -66.5t11.5 -59.5q8 -27 23.5 -43.5t35.5 -12.5q23 4 40 29.5t20 53.5q1 10 9 12t11 -7zM277 652q5 -1 6.5 -4.5t-0.5 -5.5q-23 -25 -32 -48t-16 -45q-5 -11 -10 -20t-14 -17q-9 -7 -21.5 -11.5t-27.5 -4.5
q-31 0 -54 15q-11 8 -17.5 17.5t-11.5 20.5q-9 23 -19 45.5t-33 47.5q-2 2 -1.5 5t5.5 5q6 2 11.5 -0.5t7.5 -4.5q19 -28 41.5 -41t62.5 -14q42 1 64.5 14t41.5 41q2 2 7 4.5t10 0.5zM174 407q-15 2 -26 -9t-18.5 -30t-11.5 -45t-5 -54q20 1 41 1t41 -2q2 -1 6.5 15t6.5 39
q3 31 -4 56.5t-30 28.5z" />
    <glyph glyph-name="eogonek" unicode="&#x119;" horiz-adv-x="279" 
d="M258 130v-5t-1 -8q-3 -24 -16 -48.5t-36 -40.5q-26 -26 -36.5 -55.5t-16.5 -55.5q-7 -29 -9.5 -52t-2.5 -44q-1 -32 5.5 -50t23.5 -16q12 1 18 10t10 22q4 12 8 22.5t12 12.5t14.5 -4.5t8.5 -14.5q5 -19 -15 -45q-9 -12 -24 -22t-34 -12q-26 -2 -45 11t-30 30
q-11 18 -13.5 36.5t0.5 38.5t11 40t21 48q8 18 18.5 39.5t26.5 41.5q-3 -1 -8 -1q-22 -1 -40 5t-32.5 16.5t-24.5 24.5t-17 29q-14 31 -15 61.5t-1 59.5q4 35 6.5 71.5t17.5 74.5q7 18 18.5 35.5t27.5 30t36 19t46 3.5q32 -5 50.5 -21.5t26.5 -35.5q9 -19 9 -37t-3 -35
q-6 -27 -17.5 -48.5t-27.5 -26.5q-26 1 -52 1h-52v-11q1 -33 3.5 -66.5t11.5 -59.5q8 -27 23.5 -43.5t35.5 -12.5q10 2 18 7q3 3 5 3q15 12 25 32t12 41q1 10 9 12t11 -7zM166 407q-15 2 -26 -9t-18.5 -30t-11.5 -45t-5 -54q20 1 41 1t41 -2q2 -1 6.5 15t6.5 39
q3 31 -4 56.5t-30 28.5z" />
    <glyph glyph-name="gcircumflex" unicode="&#x11d;" horiz-adv-x="362" 
d="M313 498q18 -11 27 -28.5t4 -34.5q-3 -10 -8.5 -14.5t-13 -5.5t-16 1t-15.5 6q-26 12 -38 13.5t-20 -3.5q18 -14 31 -33t21 -39q15 -41 10 -87q-6 -64 -46 -107q-19 -21 -44.5 -35t-56.5 -12q-36 0 -67 22q2 -20 22.5 -35.5t55.5 -17.5q30 0 53 -9t40 -23q34 -31 40 -80
q8 -59 -23 -111q-17 -27 -46.5 -48.5t-71.5 -18.5q-38 3 -65 24.5t-42 47.5q-29 51 -20 108q6 31 19 46.5t31 11.5q17 -5 26 -27t7 -65q-2 -23 1.5 -44t10.5 -36.5t17.5 -25.5t23.5 -10q12 0 22.5 8t17 23t9.5 34.5t2 41.5q-2 45 -18 68.5t-51 25.5q-20 2 -35.5 13t-25.5 28
t-14 39t-4 49q-34 38 -38 92q-2 31 5 63.5t26 64.5q19 30 48 53t65 22q21 0 40 -8q7 17 17.5 31.5t24 23t29.5 9t33 -10.5zM207 279q1 31 -2 57.5t-9 46t-16 30t-22 10.5q-24 -2 -36 -43.5t-10 -101.5t14.5 -94t33.5 -35q20 0 33 34.5t14 95.5zM268 539q4 -6 0 -11.5
t-13 -8.5q-11 -4 -23.5 -1t-17.5 11q-20 32 -29.5 66.5t-22.5 69.5q-7 -19 -13 -38t-13.5 -37.5t-17 -35t-24.5 -31.5q-7 -6 -13 -4q-5 2 -9 8t-1 12l8 8q16 15 26.5 33t17 38.5t12 42.5t12.5 45q4 9 7 9q4 0 9 -6q6 -10 12 -10t11.5 2.5t12.5 6.5q14 8 24 7q5 -2 6 -6
t0 -15q-1 -25 1 -53t10 -51q7 -23 17.5 -36.5t10.5 -14.5z" />
    <glyph glyph-name="gdotaccent" unicode="&#x121;" horiz-adv-x="360" 
d="M312 498q18 -11 27 -28.5t4 -34.5q-3 -10 -8.5 -14.5t-13 -5.5t-16 1t-15.5 6q-26 12 -38 13.5t-20 -3.5q18 -14 31 -33t21 -39q15 -41 10 -87q-6 -64 -46 -107q-19 -21 -44.5 -35t-56.5 -12q-36 0 -67 22q2 -20 22.5 -35.5t55.5 -17.5q30 0 53 -9t40 -23q34 -31 40 -80
q8 -59 -23 -111q-17 -27 -46.5 -48.5t-71.5 -18.5q-38 3 -65 24.5t-42 47.5q-29 51 -20 108q6 31 19 46.5t31 11.5q17 -5 26 -27t7 -65q-2 -23 1.5 -44t10.5 -36.5t17.5 -25.5t23.5 -10q12 0 22.5 8t17 23t9.5 34.5t2 41.5q-2 45 -18 68.5t-51 25.5q-20 2 -35.5 13t-25.5 28
t-14 39t-4 49q-34 38 -38 92q-2 31 5 63.5t26 64.5q19 30 48 53t65 22q21 0 40 -8q7 17 17.5 31.5t24 23t29.5 9t33 -10.5zM206 279q1 31 -2 57.5t-9 46t-16 30t-22 10.5q-24 -2 -36 -43.5t-10 -101.5t14.5 -94t33.5 -35q20 0 33 34.5t14 95.5zM185 598q4 -7 5 -14.5
t1 -15.5t-1 -16t-5 -15q-4 -8 -10.5 -13t-16.5 -5q-9 0 -15.5 5t-10.5 13q-4 7 -5 15t-1 16t1 15.5t5 14.5t10.5 12.5t15.5 5.5q10 0 16.5 -5.5t10.5 -12.5z" />
    <glyph glyph-name="gbreve" unicode="&#x11f;" horiz-adv-x="368" 
d="M318 498q18 -11 27 -28.5t4 -34.5q-3 -10 -8.5 -14.5t-13 -5.5t-16 1t-15.5 6q-26 12 -38 13.5t-20 -3.5q18 -14 31 -33t21 -39q15 -41 10 -87q-6 -64 -46 -107q-19 -21 -44.5 -35t-56.5 -12q-36 0 -67 22q2 -20 22.5 -35.5t55.5 -17.5q30 0 53 -9t40 -23q34 -31 40 -80
q8 -59 -23 -111q-17 -27 -46.5 -48.5t-71.5 -18.5q-38 3 -65 24.5t-42 47.5q-29 51 -20 108q6 31 19 46.5t31 11.5q17 -5 26 -27t7 -65q-2 -23 1.5 -44t10.5 -36.5t17.5 -25.5t23.5 -10q12 0 22.5 8t17 23t9.5 34.5t2 41.5q-2 45 -18 68.5t-51 25.5q-20 2 -35.5 13t-25.5 28
t-14 39t-4 49q-34 38 -38 92q-2 31 5 63.5t26 64.5q19 30 48 53t65 22q21 0 40 -8q7 17 17.5 31.5t24 23t29.5 9t33 -10.5zM212 279q1 31 -2 57.5t-9 46t-16 30t-22 10.5q-24 -2 -36 -43.5t-10 -101.5t14.5 -94t33.5 -35q20 0 33 34.5t14 95.5zM278 675q5 -1 6.5 -4.5
t-0.5 -5.5q-23 -25 -32 -48t-16 -45q-5 -11 -10 -20t-14 -17q-9 -7 -21.5 -11.5t-27.5 -4.5q-31 0 -54 15q-11 8 -17.5 17.5t-11.5 20.5q-9 23 -19 45.5t-33 47.5q-2 2 -1.5 5t5.5 5q6 2 11.5 -0.5t7.5 -4.5q19 -28 41.5 -41t62.5 -14q42 1 64.5 14t41.5 41q2 2 7 4.5
t10 0.5z" />
    <glyph glyph-name="hcircumflex" unicode="&#x125;" horiz-adv-x="385" 
d="M362 72q1 -4 -2.5 -11t-11 -15t-17 -15.5t-19.5 -13.5q-20 -11 -35.5 -11.5t-16.5 10.5q-5 55 -8.5 110t-5.5 111q-2 75 -12.5 108.5t-30.5 34.5q-12 0 -22.5 -12t-19 -30.5t-14.5 -40t-10 -39.5q-3 -120 -15 -242q-1 -10 -19 -9t-39 14q-19 10 -33 26.5t-11 24.5
q78 271 -1 541q-4 16 7 24q9 7 28 10q10 2 19.5 3.5t15.5 3.5q12 7 15 17q5 8 8 9q4 2 6.5 -2t3.5 -9q8 -86 12 -171.5t4 -172.5q13 38 33 62.5t53 22.5q23 -2 41 -15t31 -33q25 -41 31 -107q5 -47 13.5 -92.5t21.5 -90.5zM329 700q4 -6 0 -11.5t-13 -8.5q-11 -4 -23.5 -1
t-17.5 11q-20 32 -29.5 66.5t-22.5 69.5q-7 -19 -13 -38t-13.5 -37.5t-17 -35t-24.5 -31.5q-7 -6 -13 -4q-5 2 -9 8t-1 12l8 8q16 15 26.5 33t17 38.5t12 42.5t12.5 45q4 9 7 9q4 0 9 -6q6 -10 12 -10t11.5 2.5t12.5 6.5q14 8 24 7q5 -2 6 -6t0 -15q-1 -25 1 -53t10 -51
q7 -23 17.5 -36.5t10.5 -14.5z" />
    <glyph glyph-name="lacute" unicode="&#x13a;" horiz-adv-x="172" 
d="M116 646q4 -8 6 -19t2 -14q-24 -271 0 -541q0 -3 -4.5 -19t-12.5 -32q-8 -17 -17.5 -28t-20.5 -9q-9 0 -18 12.5t-16 28t-10.5 29.5t-3.5 18q24 270 0 541q-1 8 2 20t8 22q5 11 12 19t14 10q9 3 18.5 -2.5t15.5 -11.5q5 -5 9 -8.5t8 -4.5q6 -6 8 -11zM158 913
q3 -2 4.5 -7t0.5 -8q-14 -13 -23 -31.5t-16 -39.5t-13 -44t-15 -44q-4 -10 -15.5 -13t-22.5 2q-9 5 -13.5 11.5t-2.5 12.5q0 1 8 14t14 36q7 23 10 53t7 56q1 20 9 21q10 1 22 -10q6 -5 11.5 -9t10.5 -6t14 4q5 4 10 2z" />
    <glyph glyph-name="nacute" unicode="&#x144;" horiz-adv-x="368" 
d="M346 72q4 -8 -12 -20.5t-36 -19.5q-19 -7 -35 -5t-17 13q-17 112 -14 221q4 75 -1 110.5t-31 37.5q-17 0 -29.5 -13.5t-21 -34t-13.5 -44t-7 -42.5q2 -60 -1 -118t-12 -117q-1 -10 -19.5 -12t-39.5 6q-19 7 -32 18.5t-9 19.5q70 152 1 306q-7 16 4 21q9 5 28 3
q11 -2 20.5 -2.5t15.5 1.5q11 3 14 14q5 7 7 7q4 1 7 -3t4 -9l4 -32t4 -33q9 42 34 69.5t70 21.5q31 -4 51 -22t28 -43q9 -25 8 -53.5t-4 -62.5q-8 -92 34 -183zM276 680q3 -2 4.5 -7t0.5 -8q-14 -13 -23 -31.5t-16 -39.5t-13 -44t-15 -44q-4 -10 -15.5 -13t-22.5 2
q-9 5 -13.5 11.5t-2.5 12.5q0 1 8 14t14 36q7 23 10 53t7 56q1 20 9 21q10 1 22 -10q6 -5 11.5 -9t10.5 -6t14 4q5 4 10 2z" />
    <glyph glyph-name="ncaron" unicode="&#x148;" horiz-adv-x="374" 
d="M351 72q4 -8 -12 -20.5t-36 -19.5q-19 -7 -35 -5t-17 13q-17 112 -14 221q4 75 -1 110.5t-31 37.5q-17 0 -29.5 -13.5t-21 -34t-13.5 -44t-7 -42.5q2 -60 -1 -118t-12 -117q-1 -10 -19.5 -12t-39.5 6q-19 7 -32 18.5t-9 19.5q70 152 1 306q-7 16 4 21q9 5 28 3
q11 -2 20.5 -2.5t15.5 1.5q11 3 14 14q5 7 7 7q4 1 7 -3t4 -9l4 -32t4 -33q9 42 34 69.5t70 21.5q31 -4 51 -22t28 -43q9 -25 8 -53.5t-4 -62.5q-8 -92 34 -183zM298 687q5 -2 9 -8t0 -12q-1 -2 -7 -8q-17 -15 -27 -33t-16.5 -38.5t-12.5 -43t-13 -44.5q-2 -8 -7 -8
q-3 -2 -8 5l-6 7.5t-7 2.5q-9 0 -23 -9q-14 -8 -24 -7q-5 2 -6 6t0 15q1 26 -1 54t-10 51q-7 23 -17.5 36t-11.5 14q-3 6 1 11.5t13 8.5q11 4 23.5 1t17.5 -11q20 -32 29.5 -66.5t22.5 -69.5q13 38 26 75.5t42 66.5q7 6 13 4z" />
    <glyph glyph-name="ntilde" unicode="&#xf1;" horiz-adv-x="385" 
d="M355 72q4 -8 -12 -20.5t-36 -19.5q-19 -7 -35 -5t-17 13q-17 112 -14 221q4 75 -1 110.5t-31 37.5q-17 0 -29.5 -13.5t-21 -34t-13.5 -44t-7 -42.5q2 -60 -1 -118t-12 -117q-1 -10 -19.5 -12t-39.5 6q-19 7 -32 18.5t-9 19.5q70 152 1 306q-7 16 4 21q9 5 28 3
q11 -2 20.5 -2.5t15.5 1.5q11 3 14 14q5 7 7 7q4 1 7 -3t4 -9l4 -32t4 -33q9 42 34 69.5t70 21.5q31 -4 51 -22t28 -43q9 -25 8 -53.5t-4 -62.5q-8 -92 34 -183zM354 620q5 -2 4 -5.5t-5 -7.5q-23 -22 -30 -38.5t-14 -30.5q-6 -13 -16 -21.5t-28 -9.5q-11 -1 -25.5 1.5
t-40.5 10.5q-15 5 -29.5 8t-29.5 4t-28.5 -10.5t-27.5 -28.5q-3 -4 -10 -7t-12 -2q-6 1 -5 5t5 8q13 13 20.5 24.5t11.5 22t6 19.5t5 17q5 17 17 27t36 12q14 1 33 -1.5t47 -10.5q15 -5 28 -8t24 -4q26 -2 41 17q3 4 10 7t13 2z" />
    <glyph glyph-name="ograve" unicode="&#xf2;" horiz-adv-x="327" 
d="M295 364q14 -31 16 -64t2 -68q-2 -38 -5.5 -74.5t-21.5 -70.5q-9 -16 -22 -31t-30.5 -26t-38.5 -17t-45 -5q-42 2 -70.5 23.5t-42.5 50.5q-14 30 -15.5 63.5t-1.5 69.5q2 39 5.5 76t20.5 70t51 57t83 23q42 -1 71.5 -24t43.5 -53zM216 93q8 25 9.5 58.5t1.5 73.5t-1.5 73
t-9.5 59q-7 25 -19.5 39.5t-29.5 13.5q-17 1 -29.5 -13.5t-19.5 -40.5q-8 -25 -9.5 -58.5t-2.5 -73.5q1 -40 2.5 -73.5t8.5 -58.5q8 -25 20.5 -39.5t29.5 -14.5t29.5 14.5t19.5 40.5zM205 519q2 -6 -3 -12.5t-13 -11.5q-11 -5 -23 -2t-15 13q-9 21 -15.5 43.5t-13 43.5
t-15.5 39.5t-23 30.5q0 1 -1 2q-1 3 1 8t5 7q5 2 9 -2q9 -6 14 -4q6 2 11.5 6t10.5 9q13 11 22 10q5 -1 6.5 -5.5t3.5 -15.5q3 -26 6.5 -56t10.5 -53q6 -23 14 -36t8 -14z" />
    <glyph glyph-name="oacute" unicode="&#xf3;" horiz-adv-x="327" 
d="M289 364q14 -31 16 -64t2 -68q-2 -38 -5.5 -74.5t-21.5 -70.5q-9 -16 -22 -31t-30.5 -26t-38.5 -17t-45 -5q-42 2 -70.5 23.5t-42.5 50.5q-14 30 -15.5 63.5t-1.5 69.5q2 39 5.5 76t20.5 70t51 57t83 23q42 -1 71.5 -24t43.5 -53zM210 93q8 25 9.5 58.5t1.5 73.5t-1.5 73
t-9.5 59q-7 25 -19.5 39.5t-29.5 13.5q-17 1 -29.5 -13.5t-19.5 -40.5q-8 -25 -9.5 -58.5t-2.5 -73.5q1 -40 2.5 -73.5t8.5 -58.5q8 -25 20.5 -39.5t29.5 -14.5t29.5 14.5t19.5 40.5zM255 680q3 -2 4.5 -7t0.5 -8q-14 -13 -23 -31.5t-16 -39.5t-13 -44t-15 -44
q-4 -10 -15.5 -13t-22.5 2q-9 5 -13.5 11.5t-2.5 12.5q0 1 8 14t14 36q7 23 10 53t7 56q1 20 9 21q10 1 22 -10q6 -5 11.5 -9t10.5 -6t14 4q5 4 10 2z" />
    <glyph glyph-name="ohungarumlaut" unicode="&#x151;" horiz-adv-x="341" 
d="M293 364q14 -31 16 -64t2 -68q-2 -38 -5.5 -74.5t-21.5 -70.5q-9 -16 -22 -31t-30.5 -26t-38.5 -17t-45 -5q-42 2 -70.5 23.5t-42.5 50.5q-14 30 -15.5 63.5t-1.5 69.5q2 39 5.5 76t20.5 70t51 57t83 23q42 -1 71.5 -24t43.5 -53zM214 93q8 25 9.5 58.5t1.5 73.5t-1.5 73
t-9.5 59q-7 25 -19.5 39.5t-29.5 13.5q-17 1 -29.5 -13.5t-19.5 -40.5q-8 -25 -9.5 -58.5t-2.5 -73.5q1 -40 2.5 -73.5t8.5 -58.5q8 -25 20.5 -39.5t29.5 -14.5t29.5 14.5t19.5 40.5zM314 674q3 -1 3.5 -5t-1.5 -7q-18 -15 -29.5 -33t-18.5 -38t-11.5 -42t-8.5 -44
q-2 -10 -12 -16.5t-21 -6.5q-20 0 -20 15q1 1 5 19.5t9 45.5q5 28 10.5 58.5t13.5 56.5q7 18 14 17q10 -1 20 -13q5 -5 9.5 -9t9.5 -6q5 -1 8 0.5t9 5.5q7 3 11 2zM211 692q3 0 5.5 -4.5t2.5 -8.5q-10 -22 -16.5 -44t-13.5 -44t-15.5 -43.5t-21.5 -40.5q-5 -8 -18.5 -11
t-24.5 1q-8 2 -12 7.5t0 11.5q0 1 11.5 14t19.5 36t9.5 51t-0.5 53q-3 19 5 20q10 3 24 -6q7 -4 13 -6.5t11 -2.5t7 3t6 8q3 6 8 6z" />
    <glyph glyph-name="ocircumflex" unicode="&#xf4;" horiz-adv-x="331" 
d="M292 364q14 -31 16 -64t2 -68q-2 -38 -5.5 -74.5t-21.5 -70.5q-9 -16 -22 -31t-30.5 -26t-38.5 -17t-45 -5q-42 2 -70.5 23.5t-42.5 50.5q-14 30 -15.5 63.5t-1.5 69.5q2 39 5.5 76t20.5 70t51 57t83 23q42 -1 71.5 -24t43.5 -53zM213 93q8 25 9.5 58.5t1.5 73.5t-1.5 73
t-9.5 59q-7 25 -19.5 39.5t-29.5 13.5q-17 1 -29.5 -13.5t-19.5 -40.5q-8 -25 -9.5 -58.5t-2.5 -73.5q1 -40 2.5 -73.5t8.5 -58.5q8 -25 20.5 -39.5t29.5 -14.5t29.5 14.5t19.5 40.5zM282 512q4 -6 0 -11.5t-13 -8.5q-11 -4 -23.5 -1t-17.5 11q-20 32 -29.5 66.5t-22.5 69.5
q-7 -19 -13 -38t-13.5 -37.5t-17 -35t-24.5 -31.5q-7 -6 -13 -4q-5 2 -9 8t-1 12l8 8q16 15 26.5 33t17 38.5t12 42.5t12.5 45q4 9 7 9q4 0 9 -6q6 -10 12 -10t11.5 2.5t12.5 6.5q14 8 24 7q5 -2 6 -6t0 -15q-1 -25 1 -53t10 -51q7 -23 17.5 -36.5t10.5 -14.5z" />
    <glyph glyph-name="odieresis" unicode="&#xf6;" horiz-adv-x="339" 
d="M298 364q14 -31 16 -64t2 -68q-2 -38 -5.5 -74.5t-21.5 -70.5q-9 -16 -22 -31t-30.5 -26t-38.5 -17t-45 -5q-42 2 -70.5 23.5t-42.5 50.5q-14 30 -15.5 63.5t-1.5 69.5q2 39 5.5 76t20.5 70t51 57t83 23q42 -1 71.5 -24t43.5 -53zM219 93q8 25 9.5 58.5t1.5 73.5t-1.5 73
t-9.5 59q-7 25 -19.5 39.5t-29.5 13.5q-17 1 -29.5 -13.5t-19.5 -40.5q-8 -25 -9.5 -58.5t-2.5 -73.5q1 -40 2.5 -73.5t8.5 -58.5q8 -25 20.5 -39.5t29.5 -14.5t29.5 14.5t19.5 40.5zM143 570q13 -12 15 -33q0 -21 -15 -34q-16 -13 -36 -11q-10 1 -14 5.5t-4 10.5t2 13.5
t1 15.5q1 8 -1.5 15t-1.5 13q0 13 18 16q20 2 36 -11zM265 537q-1 -8 1 -15.5t2 -13.5q-2 -15 -19 -16q-19 -2 -35 11q-15 13 -15 34q2 21 15 33q16 13 35 11q10 -1 14 -5.5t5 -10.5t-1.5 -13t-1.5 -15z" />
    <glyph glyph-name="omacron" unicode="&#x14d;" horiz-adv-x="334" 
d="M296 364q14 -31 16 -64t2 -68q-2 -38 -5.5 -74.5t-21.5 -70.5q-9 -16 -22 -31t-30.5 -26t-38.5 -17t-45 -5q-42 2 -70.5 23.5t-42.5 50.5q-14 30 -15.5 63.5t-1.5 69.5q2 39 5.5 76t20.5 70t51 57t83 23q42 -1 71.5 -24t43.5 -53zM217 93q8 25 9.5 58.5t1.5 73.5t-1.5 73
t-9.5 59q-7 25 -19.5 39.5t-29.5 13.5q-17 1 -29.5 -13.5t-19.5 -40.5q-8 -25 -9.5 -58.5t-2.5 -73.5q1 -40 2.5 -73.5t8.5 -58.5q8 -25 20.5 -39.5t29.5 -14.5t29.5 14.5t19.5 40.5zM274 512q0 -3 4 -6t8.5 -5.5t7.5 -4t0 -1.5q-118 -6 -236 0q-3 0 -0.5 1.5t7 4t9 5.5
t4.5 6t-4 6t-8.5 5.5t-7.5 4t0 1.5q118 6 236 0q3 0 0 -1.5t-7.5 -4t-8.5 -5.5t-4 -6z" />
    <glyph glyph-name="otilde" unicode="&#xf5;" horiz-adv-x="362" 
d="M300 364q14 -31 16 -64t2 -68q-2 -38 -5.5 -74.5t-21.5 -70.5q-9 -16 -22 -31t-30.5 -26t-38.5 -17t-45 -5q-42 2 -70.5 23.5t-42.5 50.5q-14 30 -15.5 63.5t-1.5 69.5q2 39 5.5 76t20.5 70t51 57t83 23q42 -1 71.5 -24t43.5 -53zM221 93q8 25 9.5 58.5t1.5 73.5t-1.5 73
t-9.5 59q-7 25 -19.5 39.5t-29.5 13.5q-17 1 -29.5 -13.5t-19.5 -40.5q-8 -25 -9.5 -58.5t-2.5 -73.5q1 -40 2.5 -73.5t8.5 -58.5q8 -25 20.5 -39.5t29.5 -14.5t29.5 14.5t19.5 40.5zM335 620q5 -2 4 -5.5t-5 -7.5q-23 -22 -30 -38.5t-14 -30.5q-6 -13 -16 -21.5t-28 -9.5
q-11 -1 -25.5 1.5t-40.5 10.5q-15 5 -29.5 8t-29.5 4t-28.5 -10.5t-27.5 -28.5q-3 -4 -10 -7t-12 -2q-6 1 -5 5t5 8q13 13 20.5 24.5t11.5 22t6 19.5t5 17q5 17 17 27t36 12q14 1 33 -1.5t47 -10.5q15 -5 28 -8t24 -4q26 -2 41 17q3 4 10 7t13 2z" />
    <glyph glyph-name="obreve" unicode="&#x14f;" horiz-adv-x="341" 
d="M300 364q14 -31 16 -64t2 -68q-2 -38 -5.5 -74.5t-21.5 -70.5q-9 -16 -22 -31t-30.5 -26t-38.5 -17t-45 -5q-42 2 -70.5 23.5t-42.5 50.5q-14 30 -15.5 63.5t-1.5 69.5q2 39 5.5 76t20.5 70t51 57t83 23q42 -1 71.5 -24t43.5 -53zM221 93q8 25 9.5 58.5t1.5 73.5t-1.5 73
t-9.5 59q-7 25 -19.5 39.5t-29.5 13.5q-17 1 -29.5 -13.5t-19.5 -40.5q-8 -25 -9.5 -58.5t-2.5 -73.5q1 -40 2.5 -73.5t8.5 -58.5q8 -25 20.5 -39.5t29.5 -14.5t29.5 14.5t19.5 40.5zM295 648q5 -1 6.5 -4.5t-0.5 -5.5q-23 -25 -32 -48t-16 -45q-5 -11 -10 -20t-14 -17
q-9 -7 -21.5 -11.5t-27.5 -4.5q-31 0 -54 15q-11 8 -17.5 17.5t-11.5 20.5q-9 23 -19 45.5t-33 47.5q-2 2 -1.5 5t5.5 5q6 2 11.5 -0.5t7.5 -4.5q19 -28 41.5 -41t62.5 -14q42 1 64.5 14t41.5 41q2 2 7 4.5t10 0.5z" />
    <glyph glyph-name="rcaron" unicode="&#x159;" horiz-adv-x="291" 
d="M234 419q26 -11 33 -29t2 -31q-5 -14 -16 -22t-28 -3q-6 2 -12.5 5.5t-10.5 7.5q-8 7 -18 9q-18 3 -34 -15t-24 -50q2 -64 1 -127.5t-5 -127.5q-1 -10 -19 -12.5t-39 6.5q-19 8 -32.5 21t-10.5 21q54 153 0 306q-6 16 7 23q6 4 14.5 5t17.5 0q8 0 16 -1t14 1q10 3 14 14
q4 7 8 8q4 0 6.5 -4t2.5 -9q2 -21 2.5 -41.5t1.5 -41.5q14 50 44 76t65 11zM272 687q5 -2 9 -8t0 -12q-1 -2 -7 -8q-17 -15 -27 -33t-16.5 -38.5t-12.5 -43t-13 -44.5q-2 -8 -7 -8q-3 -2 -8 5l-6 7.5t-7 2.5q-9 0 -23 -9q-14 -8 -24 -7q-5 2 -6 6t0 15q1 26 -1 54t-10 51
q-7 23 -17.5 36t-11.5 14q-3 6 1 11.5t13 8.5q11 4 23.5 1t17.5 -11q20 -32 29.5 -66.5t22.5 -69.5q13 38 26 75.5t42 66.5q7 6 13 4z" />
    <glyph glyph-name="racute" unicode="&#x155;" horiz-adv-x="273" 
d="M227 419q26 -11 33 -29t2 -31q-5 -14 -16 -22t-28 -3q-6 2 -12.5 5.5t-10.5 7.5q-8 7 -18 9q-18 3 -34 -15t-24 -50q2 -64 1 -127.5t-5 -127.5q-1 -10 -19 -12.5t-39 6.5q-19 8 -32.5 21t-10.5 21q54 153 0 306q-6 16 7 23q6 4 14.5 5t17.5 0q8 0 16 -1t14 1q10 3 14 14
q4 7 8 8q4 0 6.5 -4t2.5 -9q2 -21 2.5 -41.5t1.5 -41.5q14 50 44 76t65 11zM248 680q3 -2 4.5 -7t0.5 -8q-14 -13 -23 -31.5t-16 -39.5t-13 -44t-15 -44q-4 -10 -15.5 -13t-22.5 2q-9 5 -13.5 11.5t-2.5 12.5q0 1 8 14t14 36q7 23 10 53t7 56q1 20 9 21q10 1 22 -10
q6 -5 11.5 -9t10.5 -6t14 4q5 4 10 2z" />
    <glyph glyph-name="sacute" unicode="&#x15b;" horiz-adv-x="263" 
d="M147 408q-9 1 -17 -3.5t-13.5 -13t-8.5 -19.5t-2 -23q1 -30 18 -49.5t37 -38.5q12 -11 24 -23.5t23 -25.5q10 -13 17.5 -27t10.5 -34q5 -23 0.5 -46t-19.5 -45q-14 -21 -38.5 -37t-56.5 -15q-24 0 -43 9.5t-32.5 25.5t-22.5 36t-13 43q-1 5 -1 8q3 9 12 6q6 -2 9 -12
q8 -30 25 -55.5t40 -28.5q11 -2 21 3.5t17.5 15t11.5 23.5t3 29q-2 37 -20.5 58.5t-40.5 41.5q-12 11 -23 21t-20.5 21t-16.5 23.5t-10 28.5q-4 21 1 44t22 45q17 20 44 35t61 11q26 -2 45.5 -13t31.5 -25q23 -28 17 -55q-5 -14 -14.5 -21t-20.5 -4q-12 3 -20.5 18.5
t-13.5 38.5q-4 14 -8.5 21t-15.5 8zM218 680q3 -2 4.5 -7t0.5 -8q-14 -13 -23 -31.5t-16 -39.5t-13 -44t-15 -44q-4 -10 -15.5 -13t-22.5 2q-9 5 -13.5 11.5t-2.5 12.5q0 1 8 14t14 36q7 23 10 53t7 56q1 20 9 21q10 1 22 -10q6 -5 11.5 -9t10.5 -6t14 4q5 4 10 2z" />
    <glyph glyph-name="scircumflex" unicode="&#x15d;" horiz-adv-x="271" 
d="M151 408q-9 1 -17 -3.5t-13.5 -13t-8.5 -19.5t-2 -23q1 -30 18 -49.5t37 -38.5q12 -11 24 -23.5t23 -25.5q10 -13 17.5 -27t10.5 -34q5 -23 0.5 -46t-19.5 -45q-14 -21 -38.5 -37t-56.5 -15q-24 0 -43 9.5t-32.5 25.5t-22.5 36t-13 43q-1 5 -1 8q3 9 12 6q6 -2 9 -12
q8 -30 25 -55.5t40 -28.5q11 -2 21 3.5t17.5 15t11.5 23.5t3 29q-2 37 -20.5 58.5t-40.5 41.5q-12 11 -23 21t-20.5 21t-16.5 23.5t-10 28.5q-4 21 1 44t22 45q17 20 44 35t61 11q26 -2 45.5 -13t31.5 -25q23 -28 17 -55q-5 -14 -14.5 -21t-20.5 -4q-12 3 -20.5 18.5
t-13.5 38.5q-4 14 -8.5 21t-15.5 8zM246 512q4 -6 0 -11.5t-13 -8.5q-11 -4 -23.5 -1t-17.5 11q-20 32 -29.5 66.5t-22.5 69.5q-7 -19 -13 -38t-13.5 -37.5t-17 -35t-24.5 -31.5q-7 -6 -13 -4q-5 2 -9 8t-1 12l8 8q16 15 26.5 33t17 38.5t12 42.5t12.5 45q4 9 7 9q4 0 9 -6
q6 -10 12 -10t11.5 2.5t12.5 6.5q14 8 24 7q5 -2 6 -6t0 -15q-1 -25 1 -53t10 -51q7 -23 17.5 -36.5t10.5 -14.5z" />
    <glyph glyph-name="scaron" unicode="&#x161;" horiz-adv-x="277" 
d="M155 408q-9 1 -17 -3.5t-13.5 -13t-8.5 -19.5t-2 -23q1 -30 18 -49.5t37 -38.5q12 -11 24 -23.5t23 -25.5q10 -13 17.5 -27t10.5 -34q5 -23 0.5 -46t-19.5 -45q-14 -21 -38.5 -37t-56.5 -15q-24 0 -43 9.5t-32.5 25.5t-22.5 36t-13 43q-1 5 -1 8q3 9 12 6q6 -2 9 -12
q8 -30 25 -55.5t40 -28.5q11 -2 21 3.5t17.5 15t11.5 23.5t3 29q-2 37 -20.5 58.5t-40.5 41.5q-12 11 -23 21t-20.5 21t-16.5 23.5t-10 28.5q-4 21 1 44t22 45q17 20 44 35t61 11q26 -2 45.5 -13t31.5 -25q23 -28 17 -55q-5 -14 -14.5 -21t-20.5 -4q-12 3 -20.5 18.5
t-13.5 38.5q-4 14 -8.5 21t-15.5 8zM243 687q5 -2 9 -8t0 -12q-1 -2 -7 -8q-17 -15 -27 -33t-16.5 -38.5t-12.5 -43t-13 -44.5q-2 -8 -7 -8q-3 -2 -8 5l-6 7.5t-7 2.5q-9 0 -23 -9q-14 -8 -24 -7q-5 2 -6 6t0 15q1 26 -1 54t-10 51q-7 23 -17.5 36t-11.5 14q-3 6 1 11.5
t13 8.5q11 4 23.5 1t17.5 -11q20 -32 29.5 -66.5t22.5 -69.5q13 38 26 75.5t42 66.5q7 6 13 4z" />
    <glyph glyph-name="scedilla" unicode="&#x15f;" horiz-adv-x="270" 
d="M203 -88q17 -25 23 -60q2 -14 0 -29.5t-11 -32.5q-8 -15 -24.5 -27.5t-39.5 -13.5q-29 0 -50 20t-27 45q-3 7 -1 16q3 12 11 9q6 -1 10 -13q4 -19 14.5 -31t22.5 -14q10 -1 16.5 5t10.5 16t5.5 23t1.5 26q0 14 -2.5 28t-7 25.5t-12 18t-19.5 5.5l-2 40t-3 40
q-23 1 -40.5 11t-30.5 25.5t-21 35.5t-12 42q-1 5 -1 8q3 9 12 6q6 -2 9 -12q8 -30 25 -55.5t40 -28.5q11 -2 21 3.5t17.5 15t11.5 23.5t3 29q-2 37 -20.5 58.5t-40.5 41.5q-12 11 -23 21t-20.5 21t-16.5 23.5t-10 28.5q-4 21 1 44t22 45q17 20 44 35t61 11q26 -2 45.5 -13
t31.5 -25q23 -28 17 -55q-5 -14 -14.5 -21t-20.5 -4q-12 3 -20.5 18.5t-13.5 38.5q-4 14 -8.5 21t-15.5 8q-9 1 -17 -3.5t-13.5 -13t-8.5 -19.5t-2 -23q1 -30 18 -49.5t37 -38.5q12 -11 24 -23.5t23 -25.5q10 -13 17.5 -27t10.5 -34q5 -23 0.5 -46t-19.5 -45
q-13 -19 -33 -33.5t-46 -18.5v-29t1 -29q21 1 35.5 -11t24.5 -27z" />
    <glyph glyph-name="ugrave" unicode="&#xf9;" horiz-adv-x="356" 
d="M339 394q4 -2 5 -7t-1 -9q-69 -153 -3 -306q4 -8 -11.5 -20.5t-35.5 -19.5q-19 -6 -35 -4.5t-17 12.5q-2 15 -3.5 30t-3.5 30q-9 -42 -34.5 -68t-70.5 -20q-28 5 -46.5 22.5t-26.5 41.5t-7 52.5t4 62.5q9 94 -33 187q-7 16 4 21q10 5 29 3q11 -1 20.5 -1.5t14.5 1.5
q12 3 15 14q3 7 7 8t7 -3t4 -9q15 -114 12 -228q-3 -75 1 -109t27 -36q16 -1 28 12t20 33t13.5 43t7.5 42q-5 121 12 243q3 18 14 16q5 -1 11 -5.5t13 -9.5q8 -8 16 -14.5t13 -8.5q12 -3 20 2q8 3 10 2zM210 521q2 -6 -3 -12.5t-13 -11.5q-11 -5 -23 -2t-15 13
q-9 21 -15.5 43.5t-13 43.5t-15.5 39.5t-23 30.5q0 1 -1 2q-1 3 1 8t5 7q5 2 9 -2q9 -6 14 -4q6 2 11.5 6t10.5 9q13 11 22 10q5 -1 6.5 -5.5t3.5 -15.5q3 -26 6.5 -56t10.5 -53q6 -23 14 -36t8 -14z" />
    <glyph glyph-name="uacute" unicode="&#xfa;" horiz-adv-x="357" 
d="M334 394q4 -2 5 -7t-1 -9q-69 -153 -3 -306q4 -8 -11.5 -20.5t-35.5 -19.5q-19 -6 -35 -4.5t-17 12.5q-2 15 -3.5 30t-3.5 30q-9 -42 -34.5 -68t-70.5 -20q-28 5 -46.5 22.5t-26.5 41.5t-7 52.5t4 62.5q9 94 -33 187q-7 16 4 21q10 5 29 3q11 -1 20.5 -1.5t14.5 1.5
q12 3 15 14q3 7 7 8t7 -3t4 -9q15 -114 12 -228q-3 -75 1 -109t27 -36q16 -1 28 12t20 33t13.5 43t7.5 42q-5 121 12 243q3 18 14 16q5 -1 11 -5.5t13 -9.5q8 -8 16 -14.5t13 -8.5q12 -3 20 2q8 3 10 2zM261 682q3 -2 4.5 -7t0.5 -8q-14 -13 -23 -31.5t-16 -39.5t-13 -44
t-15 -44q-4 -10 -15.5 -13t-22.5 2q-9 5 -13.5 11.5t-2.5 12.5q0 1 8 14t14 36q7 23 10 53t7 56q1 20 9 21q10 1 22 -10q6 -5 11.5 -9t10.5 -6t14 4q5 4 10 2z" />
    <glyph glyph-name="uhungarumlaut" unicode="&#x171;" horiz-adv-x="364" 
d="M337 394q4 -2 5 -7t-1 -9q-69 -153 -3 -306q4 -8 -11.5 -20.5t-35.5 -19.5q-19 -6 -35 -4.5t-17 12.5q-2 15 -3.5 30t-3.5 30q-9 -42 -34.5 -68t-70.5 -20q-28 5 -46.5 22.5t-26.5 41.5t-7 52.5t4 62.5q9 94 -33 187q-7 16 4 21q10 5 29 3q11 -1 20.5 -1.5t14.5 1.5
q12 3 15 14q3 7 7 8t7 -3t4 -9q15 -114 12 -228q-3 -75 1 -109t27 -36q16 -1 28 12t20 33t13.5 43t7.5 42q-5 121 12 243q3 18 14 16q5 -1 11 -5.5t13 -9.5q8 -8 16 -14.5t13 -8.5q12 -3 20 2q8 3 10 2zM319 676q3 -1 3.5 -5t-1.5 -7q-18 -15 -29.5 -33t-18.5 -38t-11.5 -42
t-8.5 -44q-2 -10 -12 -16.5t-21 -6.5q-20 0 -20 15q1 1 5 19.5t9 45.5q5 28 10.5 58.5t13.5 56.5q7 18 14 17q10 -1 20 -13q5 -5 9.5 -9t9.5 -6q5 -1 8 0.5t9 5.5q7 3 11 2zM216 694q3 0 5.5 -4.5t2.5 -8.5q-10 -22 -16.5 -44t-13.5 -44t-15.5 -43.5t-21.5 -40.5
q-5 -8 -18.5 -11t-24.5 1q-8 2 -12 7.5t0 11.5q0 1 11.5 14t19.5 36t9.5 51t-0.5 53q-3 19 5 20q10 3 24 -6q7 -4 13 -6.5t11 -2.5t7 3t6 8q3 6 8 6z" />
    <glyph glyph-name="ucircumflex" unicode="&#xfb;" horiz-adv-x="361" 
d="M337 394q4 -2 5 -7t-1 -9q-69 -153 -3 -306q4 -8 -11.5 -20.5t-35.5 -19.5q-19 -6 -35 -4.5t-17 12.5q-2 15 -3.5 30t-3.5 30q-9 -42 -34.5 -68t-70.5 -20q-28 5 -46.5 22.5t-26.5 41.5t-7 52.5t4 62.5q9 94 -33 187q-7 16 4 21q10 5 29 3q11 -1 20.5 -1.5t14.5 1.5
q12 3 15 14q3 7 7 8t7 -3t4 -9q15 -114 12 -228q-3 -75 1 -109t27 -36q16 -1 28 12t20 33t13.5 43t7.5 42q-5 121 12 243q3 18 14 16q5 -1 11 -5.5t13 -9.5q8 -8 16 -14.5t13 -8.5q12 -3 20 2q8 3 10 2zM288 514q4 -6 0 -11.5t-13 -8.5q-11 -4 -23.5 -1t-17.5 11
q-20 32 -29.5 66.5t-22.5 69.5q-7 -19 -13 -38t-13.5 -37.5t-17 -35t-24.5 -31.5q-7 -6 -13 -4q-5 2 -9 8t-1 12l8 8q16 15 26.5 33t17 38.5t12 42.5t12.5 45q4 9 7 9q4 0 9 -6q6 -10 12 -10t11.5 2.5t12.5 6.5q14 8 24 7q5 -2 6 -6t0 -15q-1 -25 1 -53t10 -51
q7 -23 17.5 -36.5t10.5 -14.5z" />
    <glyph glyph-name="udieresis" unicode="&#xfc;" horiz-adv-x="366" 
d="M341 394q4 -2 5 -7t-1 -9q-69 -153 -3 -306q4 -8 -11.5 -20.5t-35.5 -19.5q-19 -6 -35 -4.5t-17 12.5q-2 15 -3.5 30t-3.5 30q-9 -42 -34.5 -68t-70.5 -20q-28 5 -46.5 22.5t-26.5 41.5t-7 52.5t4 62.5q9 94 -33 187q-7 16 4 21q10 5 29 3q11 -1 20.5 -1.5t14.5 1.5
q12 3 15 14q3 7 7 8t7 -3t4 -9q15 -114 12 -228q-3 -75 1 -109t27 -36q16 -1 28 12t20 33t13.5 43t7.5 42q-5 121 12 243q3 18 14 16q5 -1 11 -5.5t13 -9.5q8 -8 16 -14.5t13 -8.5q12 -3 20 2q8 3 10 2zM147 572q13 -12 15 -33q0 -21 -15 -34q-16 -13 -36 -11q-10 1 -14 5.5
t-4 10.5t2 13.5t1 15.5q1 8 -1.5 15t-1.5 13q0 13 18 16q20 2 36 -11zM269 539q-1 -8 1 -15.5t2 -13.5q-2 -15 -19 -16q-19 -2 -35 11q-15 13 -15 34q2 21 15 33q16 13 35 11q10 -1 14 -5.5t5 -10.5t-1.5 -13t-1.5 -15z" />
    <glyph glyph-name="umacron" unicode="&#x16b;" horiz-adv-x="362" 
d="M339 394q4 -2 5 -7t-1 -9q-69 -153 -3 -306q4 -8 -11.5 -20.5t-35.5 -19.5q-19 -6 -35 -4.5t-17 12.5q-2 15 -3.5 30t-3.5 30q-9 -42 -34.5 -68t-70.5 -20q-28 5 -46.5 22.5t-26.5 41.5t-7 52.5t4 62.5q9 94 -33 187q-7 16 4 21q10 5 29 3q11 -1 20.5 -1.5t14.5 1.5
q12 3 15 14q3 7 7 8t7 -3t4 -9q15 -114 12 -228q-3 -75 1 -109t27 -36q16 -1 28 12t20 33t13.5 43t7.5 42q-5 121 12 243q3 18 14 16q5 -1 11 -5.5t13 -9.5q8 -8 16 -14.5t13 -8.5q12 -3 20 2q8 3 10 2zM278 514q0 -3 4 -6t8.5 -5.5t7.5 -4t0 -1.5q-118 -6 -236 0
q-3 0 -0.5 1.5t7 4t9 5.5t4.5 6t-4 6t-8.5 5.5t-7.5 4t0 1.5q118 6 236 0q3 0 0 -1.5t-7.5 -4t-8.5 -5.5t-4 -6z" />
    <glyph glyph-name="utilde" unicode="&#x169;" horiz-adv-x="371" 
d="M343 394q4 -2 5 -7t-1 -9q-69 -153 -3 -306q4 -8 -11.5 -20.5t-35.5 -19.5q-19 -6 -35 -4.5t-17 12.5q-2 15 -3.5 30t-3.5 30q-9 -42 -34.5 -68t-70.5 -20q-28 5 -46.5 22.5t-26.5 41.5t-7 52.5t4 62.5q9 94 -33 187q-7 16 4 21q10 5 29 3q11 -1 20.5 -1.5t14.5 1.5
q12 3 15 14q3 7 7 8t7 -3t4 -9q15 -114 12 -228q-3 -75 1 -109t27 -36q16 -1 28 12t20 33t13.5 43t7.5 42q-5 121 12 243q3 18 14 16q5 -1 11 -5.5t13 -9.5q8 -8 16 -14.5t13 -8.5q12 -3 20 2q8 3 10 2zM339 622q5 -2 4 -5.5t-5 -7.5q-23 -22 -30 -38.5t-14 -30.5
q-6 -13 -16 -21.5t-28 -9.5q-11 -1 -25.5 1.5t-40.5 10.5q-15 5 -29.5 8t-29.5 4t-28.5 -10.5t-27.5 -28.5q-3 -4 -10 -7t-12 -2q-6 1 -5 5t5 8q13 13 20.5 24.5t11.5 22t6 19.5t5 17q5 17 17 27t36 12q14 1 33 -1.5t47 -10.5q15 -5 28 -8t24 -4q26 -2 41 17q3 4 10 7t13 2z
" />
    <glyph glyph-name="ubreve" unicode="&#x16d;" horiz-adv-x="368" 
d="M343 394q4 -2 5 -7t-1 -9q-69 -153 -3 -306q4 -8 -11.5 -20.5t-35.5 -19.5q-19 -6 -35 -4.5t-17 12.5q-2 15 -3.5 30t-3.5 30q-9 -42 -34.5 -68t-70.5 -20q-28 5 -46.5 22.5t-26.5 41.5t-7 52.5t4 62.5q9 94 -33 187q-7 16 4 21q10 5 29 3q11 -1 20.5 -1.5t14.5 1.5
q12 3 15 14q3 7 7 8t7 -3t4 -9q15 -114 12 -228q-3 -75 1 -109t27 -36q16 -1 28 12t20 33t13.5 43t7.5 42q-5 121 12 243q3 18 14 16q5 -1 11 -5.5t13 -9.5q8 -8 16 -14.5t13 -8.5q12 -3 20 2q8 3 10 2zM299 650q5 -1 6.5 -4.5t-0.5 -5.5q-23 -25 -32 -48t-16 -45
q-5 -11 -10 -20t-14 -17q-9 -7 -21.5 -11.5t-27.5 -4.5q-31 0 -54 15q-11 8 -17.5 17.5t-11.5 20.5q-9 23 -19 45.5t-33 47.5q-2 2 -1.5 5t5.5 5q6 2 11.5 -0.5t7.5 -4.5q19 -28 41.5 -41t62.5 -14q42 1 64.5 14t41.5 41q2 2 7 4.5t10 0.5z" />
    <glyph glyph-name="uring" unicode="&#x16f;" horiz-adv-x="362" 
d="M339 394q4 -2 5 -7t-1 -9q-69 -153 -3 -306q4 -8 -11.5 -20.5t-35.5 -19.5q-19 -6 -35 -4.5t-17 12.5q-2 15 -3.5 30t-3.5 30q-9 -42 -34.5 -68t-70.5 -20q-28 5 -46.5 22.5t-26.5 41.5t-7 52.5t4 62.5q9 94 -33 187q-7 16 4 21q10 5 29 3q11 -1 20.5 -1.5t14.5 1.5
q12 3 15 14q3 7 7 8t7 -3t4 -9q15 -114 12 -228q-3 -75 1 -109t27 -36q16 -1 28 12t20 33t13.5 43t7.5 42q-5 121 12 243q3 18 14 16q5 -1 11 -5.5t13 -9.5q8 -8 16 -14.5t13 -8.5q12 -3 20 2q8 3 10 2zM245 677q9 -17 11 -34t2 -34q-2 -18 -4 -36.5t-13 -36.5
q-10 -17 -28.5 -30t-42.5 -11q-21 0 -37 11.5t-24 27.5t-10 33t-2 34q2 18 4 37t12 36t27.5 30t41.5 12q22 0 38.5 -12t24.5 -27zM179 525q13 0 17.5 17.5t3.5 62.5q1 45 -3.5 62.5t-17.5 17.5q-17 0 -21 -22.5t-4 -57.5t4 -57.5t21 -22.5z" />
    <glyph glyph-name="uogonek" unicode="&#x173;" horiz-adv-x="366" 
d="M314 -162q8 2 15 -4.5t9 -14.5q5 -19 -15 -45q-10 -12 -24.5 -22t-33.5 -12q-27 -2 -46 11t-30 30q-11 18 -13 36.5t1 38.5t11 40t20 48q9 19 20.5 40.5t28.5 42.5q-9 1 -15 4t-6 9q-2 15 -3.5 30t-3.5 30q-9 -42 -34.5 -68t-70.5 -20q-28 5 -46.5 22.5t-26.5 41.5
t-7 52.5t4 62.5q9 94 -33 187q-7 16 4 21q10 5 29 3q11 -1 20.5 -1.5t14.5 1.5q12 3 15 14q3 7 7 8t7 -3t4 -9q15 -114 12 -228q-3 -75 1 -109t27 -36q16 -1 28 12t20 33t13.5 43t7.5 42q-5 121 12 243q3 18 14 16q5 -1 11 -5.5t13 -9.5q8 -8 16 -14.5t13 -8.5q12 -3 20 2
q8 3 10 2q4 -2 5 -7t-1 -9q-69 -153 -3 -306q3 -7 -9 -18t-29 -19q-22 -24 -32 -51t-16 -51q-6 -29 -8.5 -52t-3.5 -44q-1 -32 6 -50t24 -16q12 1 18 10t9 22q4 12 8 22.5t12 12.5z" />
    <glyph glyph-name="wcircumflex" unicode="&#x175;" horiz-adv-x="523" 
d="M469 414q15 -5 19 -17t1 -27t-9 -31t-10 -28q-23 -59 -34 -126q-6 -35 -10.5 -73t-17.5 -74q-4 -8 -18.5 -13t-30.5 -7q-20 -3 -34.5 1t-17.5 15q-11 34 -18.5 67.5t-14.5 68.5q-10 -48 -26 -89t-35 -55q-6 -5 -22.5 -7.5t-32.5 -0.5q-19 3 -31 10t-11 18q3 46 2 89.5
t-9.5 84.5t-28 79t-54.5 72q-6 5 -8.5 8.5t-4.5 5.5q-6 9 6 12q10 3 29 0q11 -2 20.5 -3.5t17.5 0.5q10 3 13 13q2 7 5 7q5 1 14 -11q25 -39 40.5 -81t25 -85t15 -87t11.5 -89q10 13 18.5 31.5t15.5 40t12 44.5t9 46q-6 37 -12.5 73.5t-15.5 73.5q-3 15 -3 18q-1 10 10 12
q5 0 10.5 -2.5t12.5 -6.5q8 -5 15 -9t15 -4q10 0 16 9q4 6 8 6q6 -2 6 -15q3 -40 6 -79.5t10 -78.5t18.5 -76.5t29.5 -74.5q8 23 11.5 47.5t5.5 49.5l9 95q3 25 4 46t-3 38q-5 24 1 40q5 16 19 24.5t31 4.5zM377 512q4 -6 0 -11.5t-13 -8.5q-11 -4 -23.5 -1t-17.5 11
q-20 32 -29.5 66.5t-22.5 69.5q-7 -19 -13 -38t-13.5 -37.5t-17 -35t-24.5 -31.5q-7 -6 -13 -4q-5 2 -9 8t-1 12l8 8q16 15 26.5 33t17 38.5t12 42.5t12.5 45q4 9 7 9q4 0 9 -6q6 -10 12 -10t11.5 2.5t12.5 6.5q14 8 24 7q5 -2 6 -6t0 -15q-1 -25 1 -53t10 -51
q7 -23 17.5 -36.5t10.5 -14.5z" />
    <glyph glyph-name="yacute" unicode="&#xfd;" horiz-adv-x="339" 
d="M325 373q2 -18 -0.5 -36t-5.5 -34q-5 -29 -14 -60t-17 -68q-9 -37 -18 -79t-20 -85t-25.5 -83t-34.5 -69t-44 -43t-50 -3q-17 6 -29.5 19t-20 29t-10 33.5t1.5 33.5q6 27 20 36.5t27 6.5q10 -4 16.5 -15t5.5 -30q-3 -19 -10 -29q-4 -6 -7 -12t-4 -14q-2 -10 3 -18.5
t16 -12.5q12 -4 25.5 3t26.5 23.5t25 40.5t21 54q-23 57 -41 117.5t-38 116.5t-46 104t-64 78q-5 4 -5 8q-3 8 9 18q10 6 26 8q10 1 18.5 2t16.5 4q12 5 16 17q3 6 7 8q5 1 10 -8q22 -38 39 -80.5t31.5 -86.5t27.5 -88.5t28 -85.5q11 50 19 95.5t12 83.5q2 27 0.5 50.5
t-8.5 43.5q-9 26 -7 44q2 16 13 23.5t27 -1.5q15 -9 22 -25t9 -34zM257 683q3 -2 4.5 -7t0.5 -8q-14 -13 -23 -31.5t-16 -39.5t-13 -44t-15 -44q-4 -10 -15.5 -13t-22.5 2q-9 5 -13.5 11.5t-2.5 12.5q0 1 8 14t14 36q7 23 10 53t7 56q1 20 9 21q10 1 22 -10q6 -5 11.5 -9
t10.5 -6t14 4q5 4 10 2z" />
    <glyph glyph-name="ycircumflex" unicode="&#x177;" horiz-adv-x="343" 
d="M328 373q2 -18 -0.5 -36t-5.5 -34q-5 -29 -14 -60t-17 -68q-9 -37 -18 -79t-20 -85t-25.5 -83t-34.5 -69t-44 -43t-50 -3q-17 6 -29.5 19t-20 29t-10 33.5t1.5 33.5q6 27 20 36.5t27 6.5q10 -4 16.5 -15t5.5 -30q-3 -19 -10 -29q-4 -6 -7 -12t-4 -14q-2 -10 3 -18.5
t16 -12.5q12 -4 25.5 3t26.5 23.5t25 40.5t21 54q-23 57 -41 117.5t-38 116.5t-46 104t-64 78q-5 4 -5 8q-3 8 9 18q10 6 26 8q10 1 18.5 2t16.5 4q12 5 16 17q3 6 7 8q5 1 10 -8q22 -38 39 -80.5t31.5 -86.5t27.5 -88.5t28 -85.5q11 50 19 95.5t12 83.5q2 27 0.5 50.5
t-8.5 43.5q-9 26 -7 44q2 16 13 23.5t27 -1.5q15 -9 22 -25t9 -34zM284 515q4 -6 0 -11.5t-13 -8.5q-11 -4 -23.5 -1t-17.5 11q-20 32 -29.5 66.5t-22.5 69.5q-7 -19 -13 -38t-13.5 -37.5t-17 -35t-24.5 -31.5q-7 -6 -13 -4q-5 2 -9 8t-1 12l8 8q16 15 26.5 33t17 38.5
t12 42.5t12.5 45q4 9 7 9q4 0 9 -6q6 -10 12 -10t11.5 2.5t12.5 6.5q14 8 24 7q5 -2 6 -6t0 -15q-1 -25 1 -53t10 -51q7 -23 17.5 -36.5t10.5 -14.5z" />
    <glyph glyph-name="ydieresis" unicode="&#xff;" horiz-adv-x="344" 
d="M329 373q2 -18 -0.5 -36t-5.5 -34q-5 -29 -14 -60t-17 -68q-9 -37 -18 -79t-20 -85t-25.5 -83t-34.5 -69t-44 -43t-50 -3q-17 6 -29.5 19t-20 29t-10 33.5t1.5 33.5q6 27 20 36.5t27 6.5q10 -4 16.5 -15t5.5 -30q-3 -19 -10 -29q-4 -6 -7 -12t-4 -14q-2 -10 3 -18.5
t16 -12.5q12 -4 25.5 3t26.5 23.5t25 40.5t21 54q-23 57 -41 117.5t-38 116.5t-46 104t-64 78q-5 4 -5 8q-3 8 9 18q10 6 26 8q10 1 18.5 2t16.5 4q12 5 16 17q3 6 7 8q5 1 10 -8q22 -38 39 -80.5t31.5 -86.5t27.5 -88.5t28 -85.5q11 50 19 95.5t12 83.5q2 27 0.5 50.5
t-8.5 43.5q-9 26 -7 44q2 16 13 23.5t27 -1.5q15 -9 22 -25t9 -34zM140 573q13 -12 15 -33q0 -21 -15 -34q-16 -13 -36 -11q-10 1 -14 5.5t-4 10.5t2 13.5t1 15.5q1 8 -1.5 15t-1.5 13q0 13 18 16q20 2 36 -11zM262 540q-1 -8 1 -15.5t2 -13.5q-2 -15 -19 -16q-19 -2 -35 11
q-15 13 -15 34q2 21 15 33q16 13 35 11q10 -1 14 -5.5t5 -10.5t-1.5 -13t-1.5 -15z" />
    <glyph glyph-name="zdotaccent" unicode="&#x17c;" horiz-adv-x="309" 
d="M297 71q2 -5 0 -10.5t-7 -7.5q-136 -70 -271 -1q-13 7 -11 14l4 4q36 26 58.5 64.5t39 82.5t32 91t38.5 91q-61 6 -121 -15q-5 -2 -9 0.5t-6 8.5q-2 5 0.5 10.5t7.5 7.5q116 45 233 -12q13 -7 9 -14q0 -1 -3 -4q-36 -27 -58 -65.5t-38.5 -83.5t-32.5 -92t-40 -90
q80 -9 159 28q11 5 16 -7zM198 570q4 -7 5 -14.5t1 -15.5t-1 -16t-5 -15q-4 -8 -10.5 -13t-16.5 -5q-9 0 -15.5 5t-10.5 13q-4 7 -5 15t-1 16t1 15.5t5 14.5t10.5 12.5t15.5 5.5q10 0 16.5 -5.5t10.5 -12.5z" />
    <glyph glyph-name="zcaron" unicode="&#x17e;" horiz-adv-x="316" 
d="M300 71q2 -5 0 -10.5t-7 -7.5q-136 -70 -271 -1q-13 7 -11 14l4 4q36 26 58.5 64.5t39 82.5t32 91t38.5 91q-61 6 -121 -15q-5 -2 -9 0.5t-6 8.5q-2 5 0.5 10.5t7.5 7.5q116 45 233 -12q13 -7 9 -14q0 -1 -3 -4q-36 -27 -58 -65.5t-38.5 -83.5t-32.5 -92t-40 -90
q80 -9 159 28q11 5 16 -7zM276 686q5 -2 9 -8t0 -12q-1 -2 -7 -8q-17 -15 -27 -33t-16.5 -38.5t-12.5 -43t-13 -44.5q-2 -8 -7 -8q-3 -2 -8 5l-6 7.5t-7 2.5q-9 0 -23 -9q-14 -8 -24 -7q-5 2 -6 6t0 15q1 26 -1 54t-10 51q-7 23 -17.5 36t-11.5 14q-3 6 1 11.5t13 8.5
q11 4 23.5 1t17.5 -11q20 -32 29.5 -66.5t22.5 -69.5q13 38 26 75.5t42 66.5q7 6 13 4z" />
    <glyph glyph-name="zacute" unicode="&#x17a;" horiz-adv-x="308" 
d="M294 71q2 -5 0 -10.5t-7 -7.5q-136 -70 -271 -1q-13 7 -11 14l4 4q36 26 58.5 64.5t39 82.5t32 91t38.5 91q-61 6 -121 -15q-5 -2 -9 0.5t-6 8.5q-2 5 0.5 10.5t7.5 7.5q116 45 233 -12q13 -7 9 -14q0 -1 -3 -4q-36 -27 -58 -65.5t-38.5 -83.5t-32.5 -92t-40 -90
q80 -9 159 28q11 5 16 -7zM253 679q3 -2 4.5 -7t0.5 -8q-14 -13 -23 -31.5t-16 -39.5t-13 -44t-15 -44q-4 -10 -15.5 -13t-22.5 2q-9 5 -13.5 11.5t-2.5 12.5q0 1 8 14t14 36q7 23 10 53t7 56q1 20 9 21q10 1 22 -10q6 -5 11.5 -9t10.5 -6t14 4q5 4 10 2z" />
    <glyph glyph-name="iogonek" unicode="&#x12f;" horiz-adv-x="195" 
d="M152 -162q8 2 15 -4.5t9 -14.5q5 -19 -15 -45q-10 -12 -24.5 -22t-33.5 -12q-27 -2 -46 11t-30 30q-11 18 -13 36.5t1 38.5t11 40t20 48q8 15 16.5 32.5t20.5 34.5q-10 14 -16 30t-5 22q7 79 9.5 158.5t0.5 159.5q0 17 8 23q4 2 9.5 2.5t11.5 -2.5q7 -4 14 -7.5t12 -5.5
q9 -2 13 5q5 3 6 2q3 -2 5 -8t2 -10q-2 -79 0.5 -158t10.5 -158q0 -3 -4.5 -16t-12.5 -26q-8 -14 -17.5 -23t-20.5 -7h-2q-8 -15 -12.5 -30t-7.5 -29q-6 -29 -8.5 -52t-3.5 -44q-1 -32 6 -50t24 -16q12 1 18 10t9 22q4 12 8 22.5t12 12.5zM151 578q8 -19 11.5 -37.5
t1.5 -28.5q-1 -11 -5.5 -13t-11.5 -2q-8 0 -16.5 1t-18.5 1t-18.5 -1t-15.5 -1q-8 0 -12 2t-6 13q-1 10 2.5 28.5t10.5 37.5q7 20 17 34.5t22 14.5q12 1 22 -14t17 -35z" />
    <glyph glyph-name="dotlessi" unicode="&#x131;" horiz-adv-x="148" 
d="M114 380q-2 -79 0.5 -158t10.5 -158q0 -3 -4.5 -16t-12.5 -26q-8 -14 -17.5 -23t-20.5 -7q-9 0 -18 9.5t-15.5 21.5t-10.5 23.5t-3 16.5q7 79 9.5 158.5t0.5 159.5q0 17 8 23q4 2 9.5 2.5t11.5 -2.5q7 -4 14 -7.5t12 -5.5q9 -2 13 5q5 3 6 2q3 -2 5 -8t2 -10z" />
    <glyph glyph-name="igrave" unicode="&#xec;" horiz-adv-x="159" 
d="M126 380q-2 -79 0.5 -158t10.5 -158q0 -3 -4.5 -16t-12.5 -26q-8 -14 -17.5 -23t-20.5 -7q-9 0 -18 9.5t-15.5 21.5t-10.5 23.5t-3 16.5q7 79 9.5 158.5t0.5 159.5q0 17 8 23q4 2 9.5 2.5t11.5 -2.5q7 -4 14 -7.5t12 -5.5q9 -2 13 5q5 3 6 2q3 -2 5 -8t2 -10zM116 521
q2 -6 -3 -12.5t-13 -11.5q-11 -5 -23 -2t-15 13q-9 21 -15.5 43.5t-13 43.5t-15.5 39.5t-23 30.5q0 1 -1 2q-1 3 1 8t5 7q5 2 9 -2q9 -6 14 -4q6 2 11.5 6t10.5 9q13 11 22 10q5 -1 6.5 -5.5t3.5 -15.5q3 -26 6.5 -56t10.5 -53q6 -23 14 -36t8 -14z" />
    <glyph glyph-name="iacute" unicode="&#xed;" horiz-adv-x="168" 
d="M125 380q-2 -79 0.5 -158t10.5 -158q0 -3 -4.5 -16t-12.5 -26q-8 -14 -17.5 -23t-20.5 -7q-9 0 -18 9.5t-15.5 21.5t-10.5 23.5t-3 16.5q7 79 9.5 158.5t0.5 159.5q0 17 8 23q4 2 9.5 2.5t11.5 -2.5q7 -4 14 -7.5t12 -5.5q9 -2 13 5q5 3 6 2q3 -2 5 -8t2 -10zM171 682
q3 -2 4.5 -7t0.5 -8q-14 -13 -23 -31.5t-16 -39.5t-13 -44t-15 -44q-4 -10 -15.5 -13t-22.5 2q-9 5 -13.5 11.5t-2.5 12.5q0 1 8 14t14 36q7 23 10 53t7 56q1 20 9 21q10 1 22 -10q6 -5 11.5 -9t10.5 -6t14 4q5 4 10 2z" />
    <glyph glyph-name="icircumflex" unicode="&#xee;" horiz-adv-x="173" 
d="M126 380q-2 -79 0.5 -158t10.5 -158q0 -3 -4.5 -16t-12.5 -26q-8 -14 -17.5 -23t-20.5 -7q-9 0 -18 9.5t-15.5 21.5t-10.5 23.5t-3 16.5q7 79 9.5 158.5t0.5 159.5q0 17 8 23q4 2 9.5 2.5t11.5 -2.5q7 -4 14 -7.5t12 -5.5q9 -2 13 5q5 3 6 2q3 -2 5 -8t2 -10zM177 512
q4 -6 0 -11t-12 -7q-10 -4 -20.5 -1.5t-15.5 10.5q-17 28 -26.5 59t-20.5 63q-12 -35 -23.5 -68.5t-37.5 -59.5q-7 -5 -11 -3q-5 2 -8.5 7t-0.5 11l7 7q15 13 23.5 29t14.5 34.5t11 38.5t11 40q4 8 7 8t8 -5q5 -9 11 -9q8 0 22 8q13 7 21 6q5 -2 5.5 -5.5t-0.5 -13.5
q-1 -22 0.5 -47.5t9.5 -45.5q6 -20 15.5 -32t9.5 -13z" />
    <glyph glyph-name="idieresis" unicode="&#xef;" horiz-adv-x="159" 
d="M119 380q-2 -79 0.5 -158t10.5 -158q0 -3 -4.5 -16t-12.5 -26q-8 -14 -17.5 -23t-20.5 -7q-9 0 -18 9.5t-15.5 21.5t-10.5 23.5t-3 16.5q7 79 9.5 158.5t0.5 159.5q0 17 8 23q4 2 9.5 2.5t11.5 -2.5q7 -4 14 -7.5t12 -5.5q9 -2 13 5q5 3 6 2q3 -2 5 -8t2 -10zM54 572
q13 -12 15 -33q0 -21 -15 -34q-16 -13 -36 -11q-10 1 -14 5.5t-4 10.5t2 13.5t1 15.5q1 8 -1.5 15t-1.5 13q0 13 18 16q20 2 36 -11zM156 539q-1 -8 1 -15.5t2 -13.5q-2 -15 -19 -16q-19 -2 -35 11q-15 13 -15 34q2 21 15 33q16 13 35 11q10 -1 14 -5.5t5 -10.5t-1.5 -13
t-1.5 -15z" />
    <glyph glyph-name="imacron" unicode="&#x12b;" horiz-adv-x="154" 
d="M116 380q-2 -79 0.5 -158t10.5 -158q0 -3 -4.5 -16t-12.5 -26q-8 -14 -17.5 -23t-20.5 -7q-9 0 -18 9.5t-15.5 21.5t-10.5 23.5t-3 16.5q7 79 9.5 158.5t0.5 159.5q0 17 8 23q4 2 9.5 2.5t11.5 -2.5q7 -4 14 -7.5t12 -5.5q9 -2 13 5q5 3 6 2q3 -2 5 -8t2 -10zM144 514
q0 -3 4 -6t8.5 -5.5t7.5 -4t0 -1.5q-29 -2 -49.5 -2.5t-38.5 -0.5t-38.5 0.5t-49.5 2.5q-3 0 -0.5 1.5t7 4t9 5.5t4.5 6t-4 6t-8.5 5.5t-7.5 4t0 1.5q29 1 49.5 2t38.5 1t38.5 -1t49.5 -2q3 0 0 -1.5t-7.5 -4t-8.5 -5.5t-4 -6z" />
    </font>
</defs>
</svg>
